<?xml version="1.0" encoding="UTF-8"?>
<svg version="1.1" xmlns="http://www.w3.org/2000/svg" width="110" height="110">
<path d="M0 0 C10.36349542 8.13453964 16.16921897 20.7564922 18.01171875 33.6328125 C18.76079671 47.47940516 14.89399408 60.96616972 5.94140625 71.609375 C-2.83556404 81.12081979 -14.27221614 88.24297579 -27.4921875 89.00390625 C-43.93602396 89.41205171 -56.50307182 86.22613929 -68.92578125 74.6328125 C-79.9001337 62.4532899 -83.83944142 48.79479627 -83.10058594 32.68994141 C-82.04301221 20.24424832 -75.18067681 8.90973651 -66.21484375 0.48046875 C-45.64880528 -16.11976367 -20.9725944 -14.8892658 0 0 Z " fill="#FBCB0C" transform="translate(87.92578125,16.3671875)"/>
<path d="M0 0 C9.14787423 2.1110479 16.6408316 9.5693326 22 17 C29.04819536 28.89032427 30.86723901 40.73973918 27.8125 54.3125 C24.1452287 67.15647807 16.7223213 75.74287842 5.453125 82.65234375 C3 84 3 84 0 85 C0 78.73 0 72.46 0 66 C2.31 66 4.62 66 7 66 C6.98735952 61.92344518 6.8637033 57.99259074 6 54 C3.14397465 51.60751405 3.14397465 51.60751405 0 51 C0 50.01 0 49.02 0 48 C0.58007812 48.14179687 1.16015625 48.28359375 1.7578125 48.4296875 C6.55050947 49.42481175 6.55050947 49.42481175 10.93359375 47.73046875 C12.77630677 45.89980899 12.77630677 45.89980899 15 43 C13.5359591 39.58390456 12.08328527 37.13458211 9 35 C5.92483209 34.9628218 3.01219342 35.40785941 0 36 C0.33 35.01 0.66 34.02 1 33 C2.2375 32.505 2.2375 32.505 3.5 32 C6.24145522 30.24187014 6.24145522 30.24187014 6.55078125 27.36328125 C6.79035459 24.57064273 6.94766913 21.80208019 7 19 C4.69 19 2.38 19 0 19 C0 14.05 0 9.1 0 4 C0.33 4.66 0.66 5.32 1 6 C1.66 6 2.32 6 3 6 C2.505 5.566875 2.01 5.13375 1.5 4.6875 C0 3 0 3 0 0 Z " fill="#B91617" transform="translate(72,13)"/>
<path d="M0 0 C0 0.99 0 1.98 0 3 C-0.66 3 -1.32 3 -2 3 C-1.67257813 3.53109375 -1.34515625 4.0621875 -1.0078125 4.609375 C0.2642989 7.62694157 0.1959363 9.98693023 0.125 13.25 C0.10695313 14.32765625 0.08890625 15.4053125 0.0703125 16.515625 C0.04710938 17.33546875 0.02390625 18.1553125 0 19 C-2.31 19 -4.62 19 -7 19 C-7 22.96 -7 26.92 -7 31 C-6.030625 31.2475 -5.06125 31.495 -4.0625 31.75 C-2.5465625 32.36875 -2.5465625 32.36875 -1 33 C-0.30859375 35.078125 -0.30859375 35.078125 0 37 C-0.58007812 36.78601562 -1.16015625 36.57203125 -1.7578125 36.3515625 C-4.26583312 35.58177399 -6.37109695 35.05129567 -9 35 C-11.69688917 36.67806437 -13.00883526 38.44722469 -15 41 C-13.55481219 44.3721049 -11.87649547 46.69880363 -9 49 C-6.33165034 49.33498301 -6.33165034 49.33498301 -4 49 C-3.67 46.03 -3.34 43.06 -3 40 C-1.68 40.66 -0.36 41.32 1 42 C1 42.99 1 43.98 1 45 C1.70125 44.835 2.4025 44.67 3.125 44.5 C6.13888194 43.97584662 8.94713625 43.92900317 12 44 C11 46 11 46 7.6875 47.125 C4 48 4 48 0 48 C0 48.99 0 49.98 0 51 C-0.969375 51.2475 -1.93875 51.495 -2.9375 51.75 C-6.26063114 53.67082626 -6.26063114 53.67082626 -6.62109375 56.87109375 C-6.85468422 59.9221447 -6.99051295 62.94042724 -7 66 C-4.69 66 -2.38 66 0 66 C0 72.27 0 78.54 0 85 C-10.47503867 80.80998453 -19.41096754 74.01570393 -24.640625 63.79296875 C-29.55830035 52.10642417 -31.1676208 39.60978983 -28.0234375 27.12109375 C-25.98971652 22.13660584 -23.60061276 18.03268629 -20 14 C-19.34 14 -18.68 14 -18 14 C-15.00518135 18.40414508 -15.00518135 18.40414508 -14 21 C-14.75 24.4375 -14.75 24.4375 -16 27 C-16.66 27 -17.32 27 -18 27 C-17.67 25.35 -17.34 23.7 -17 22 C-17.66 22 -18.32 22 -19 22 C-19.33 22.99 -19.66 23.98 -20 25 C-20.66 24.67 -21.32 24.34 -22 24 C-22 23.67 -22 23.34 -22 23 C-22.33 23.99 -22.66 24.98 -23 26 C-20.84377121 27.30913891 -19.42047902 28 -16.875 28 C-14.67504748 27.08767615 -14.67504748 27.08767615 -13.875 24.125 C-13.58625 23.09375 -13.2975 22.0625 -13 21 C-12.34 20.01 -11.68 19.02 -11 18 C-10.01 18 -9.02 18 -8 18 C-8 17.34 -8 16.68 -8 16 C-8.928125 15.896875 -9.85625 15.79375 -10.8125 15.6875 C-14.03254358 14.9929808 -15.02579865 14.52259061 -17 12 C-13.25 9 -13.25 9 -11 9 C-10.566875 9.825 -10.13375 10.65 -9.6875 11.5 C-9.130625 12.325 -8.57375 13.15 -8 14 C-5.37305578 14.41780879 -5.37305578 14.41780879 -3 14 C-2.67 12.68 -2.34 11.36 -2 10 C-2.99 10 -3.98 10 -5 10 C-4.34 10.33 -3.68 10.66 -3 11 C-3 11.66 -3 12.32 -3 13 C-4.65 13 -6.3 13 -8 13 C-8.33 11.68 -8.66 10.36 -9 9 C-7.35 8.67 -5.7 8.34 -4 8 C-4.495 7.566875 -4.99 7.13375 -5.5 6.6875 C-7 5 -7 5 -7 2 C-4.35261084 0.5393715 -3.10551666 0 0 0 Z " fill="#081A61" transform="translate(39,13)"/>
<path d="M0 0 C6.460199 -0.36567164 6.460199 -0.36567164 8.9375 1.3125 C10 3 10 3 10 6 C7.03 5.505 7.03 5.505 4 5 C5.52206009 7.62901288 6.84365964 9.84365964 9 12 C9 12.99 9 13.98 9 15 C8.34 15 7.68 15 7 15 C6.67 14.67 6.34 14.34 6 14 C6.60990891 17.55780196 7.5783681 20.6828589 9 24 C9.66 24 10.32 24 11 24 C11 23.01 11 22.02 11 21 C11.66 21 12.32 21 13 21 C13 19.35 13 17.7 13 16 C13.66 16.33 14.32 16.66 15 17 C15.40729228 19.32156597 15.74438677 21.6568787 16 24 C13.03 24.495 13.03 24.495 10 25 C10.33 26.32 10.66 27.64 11 29 C12.65 29 14.3 29 16 29 C16 35.27 16 41.54 16 48 C11.30218827 49.87912469 9.07080262 50.22365258 4.1875 50.125 C3.02605469 50.10695312 1.86460938 50.08890625 0.66796875 50.0703125 C-0.65267578 50.03550781 -0.65267578 50.03550781 -2 50 C-0.68 49.34 0.64 48.68 2 48 C2 47.01 2 46.02 2 45 C0.515 44.505 0.515 44.505 -1 44 C-1 43.34 -1 42.68 -1 42 C-1.33 42 -1.66 42 -2 42 C-2.66 42.66 -3.32 43.32 -4 44 C-4.66 43.01 -5.32 42.02 -6 41 C-8.56282742 40.27034634 -8.56282742 40.27034634 -11 40 C-11 42.64 -11 45.28 -11 48 C-9.35 48 -7.7 48 -6 48 C-9 50 -9 50 -12.625 49.6875 C-16 49 -16 49 -17 48 C-17.08651611 46.58429877 -17.10704904 45.164405 -17.09765625 43.74609375 C-17.09443359 42.89208984 -17.09121094 42.03808594 -17.08789062 41.15820312 C-17.07951172 40.26037109 -17.07113281 39.36253906 -17.0625 38.4375 C-17.05798828 37.53580078 -17.05347656 36.63410156 -17.04882812 35.70507812 C-17.03700225 33.46998686 -17.0205222 31.23502563 -17 29 C-15.35 29 -13.7 29 -12 29 C-12.33 27.35 -12.66 25.7 -13 24 C-14.98 24.33 -16.96 24.66 -19 25 C-18.21572648 23.35063087 -17.42234741 21.70558873 -16.625 20.0625 C-16.18414062 19.14597656 -15.74328125 18.22945312 -15.2890625 17.28515625 C-14 15 -14 15 -12 14 C-11.9175 14.61875 -11.835 15.2375 -11.75 15.875 C-10.76174558 18.67505419 -9.59640015 18.74113932 -7 20 C-5.75 22.125 -5.75 22.125 -5 24 C-4.34 24 -3.68 24 -3 24 C-2.91773332 20.95613276 -3.02391783 18.92824652 -4 16 C-5.85744207 15.38932856 -5.85744207 15.38932856 -8 15 C-9.3479743 14.36345658 -10.68596724 13.70394612 -12 13 C-10 12 -10 12 -8.1875 11.625 C-5.47391489 10.84968997 -3.36832832 9.51309865 -1 8 C-1.33 7.34 -1.66 6.68 -2 6 C-1.39421747 3.98072489 -0.73080266 1.97746603 0 0 Z " fill="#FAF7F2" transform="translate(56,50)"/>
<path d="M0 0 C3.76029079 0.51276693 6.66312112 1.22033126 10 3 C10.66 3.165 11.32 3.33 12 3.5 C14.19929074 4.04982269 16.00722558 4.93244227 18 6 C17.34 6 16.68 6 16 6 C16.825 6.9075 17.65 7.815 18.5 8.75 C21.64742994 13.08213672 21.37493891 16.93856902 21.078125 22.1328125 C21.00157326 24.94226143 21.45032473 27.2610198 22 30 C21.0625 32.3125 21.0625 32.3125 20 34 C19.34 34 18.68 34 18 34 C18 34.99 18 35.98 18 37 C17.34 37 16.68 37 16 37 C11.42857143 29.71428571 11.42857143 29.71428571 12 25 C12.66 25.33 13.32 25.66 14 26 C14 26.66 14 27.32 14 28 C14.66 28 15.32 28 16 28 C14.47793991 25.37098712 13.15634036 23.15634036 11 21 C11 20.01 11 19.02 11 18 C12.65 18 14.3 18 16 18 C15.01 17.34 14.02 16.68 13 16 C13.99 15.67 14.98 15.34 16 15 C13.04335481 13.5216774 10.25770263 13.93967217 7 14 C6.40267181 16.76264289 6 19.16032769 6 22 C2.35022743 24.90322818 0.74147821 26 -4 26 C-2.88625 26.391875 -1.7725 26.78375 -0.625 27.1875 C2.18817883 28.38908043 2.86450317 28.77417196 4.5 31.5 C5 34 5 34 4 37 C2.68 37 1.36 37 0 37 C-0.33 35.68 -0.66 34.36 -1 33 C-1.99 33 -2.98 33 -4 33 C-4 32.34 -4 31.68 -4 31 C-4.66 30.67 -5.32 30.34 -6 30 C-6 29.34 -6 28.68 -6 28 C-7.65 30.97 -9.3 33.94 -11 37 C-8.03 36.505 -8.03 36.505 -5 36 C-3.875 39.75 -3.875 39.75 -5 42 C-8.96 42 -12.92 42 -17 42 C-17.48828125 32.91796875 -17.48828125 32.91796875 -17 30 C-14.60354412 28.11176478 -13.08655314 27 -10 27 C-10.33 25.68 -10.66 24.36 -11 23 C-10.113125 23.04125 -9.22625 23.0825 -8.3125 23.125 C-5.02722987 23.00102754 -2.94550705 22.38612096 0 21 C-2.97 21 -5.94 21 -9 21 C-9.66 19.68 -10.32 18.36 -11 17 C-11.66 16.67 -12.32 16.34 -13 16 C-12.98839844 16.63808594 -12.97679687 17.27617188 -12.96484375 17.93359375 C-12.95582031 18.75988281 -12.94679688 19.58617188 -12.9375 20.4375 C-12.92589844 21.26121094 -12.91429687 22.08492187 -12.90234375 22.93359375 C-13 25 -13 25 -14 26 C-16.125 26.5 -16.125 26.5 -19 26 C-21.56769638 23.87354337 -23.79256985 21.49369631 -26 19 C-24.14356139 15.13794467 -22.57444674 12.53189977 -19 10 C-15.51660807 10.17603665 -12.3277106 10.98553288 -9 12 C-8.66226563 11.4225 -8.32453125 10.845 -7.9765625 10.25 C-7.53054687 9.5075 -7.08453125 8.765 -6.625 8 C-6.18414062 7.2575 -5.74328125 6.515 -5.2890625 5.75 C-4.86367188 5.1725 -4.43828125 4.595 -4 4 C-3.34 4 -2.68 4 -2 4 C-1.34 2.68 -0.68 1.36 0 0 Z " fill="#2B2E2C" transform="translate(49,37)"/>
<path d="M0 0 C0.77923828 0.00902344 1.55847656 0.01804687 2.36132812 0.02734375 C4.26185447 0.05066309 6.16222008 0.08652414 8.0625 0.125 C8.3925 0.785 8.7225 1.445 9.0625 2.125 C7.7425 2.455 6.4225 2.785 5.0625 3.125 C4.7325 4.445 4.4025 5.765 4.0625 7.125 C5.3825 7.455 6.7025 7.785 8.0625 8.125 C8.0625 8.785 8.0625 9.445 8.0625 10.125 C7.0725 10.125 6.0825 10.125 5.0625 10.125 C5.0625 9.465 5.0625 8.805 5.0625 8.125 C4.4025 8.125 3.7425 8.125 3.0625 8.125 C3.0625 9.115 3.0625 10.105 3.0625 11.125 C5.0425 11.125 7.0225 11.125 9.0625 11.125 C9.3925 10.135 9.7225 9.145 10.0625 8.125 C10.7225 8.125 11.3825 8.125 12.0625 8.125 C12.35125 9.094375 12.64 10.06375 12.9375 11.0625 C13.70464682 14.23164203 13.70464682 14.23164203 16.0625 15.125 C16.0625 17.435 16.0625 19.745 16.0625 22.125 C15.464375 22.16625 14.86625 22.2075 14.25 22.25 C11.71149168 23.00239901 11.71149168 23.00239901 10.3125 26.1875 C9.69375 27.6415625 9.69375 27.6415625 9.0625 29.125 C9.68125 29.228125 10.3 29.33125 10.9375 29.4375 C13.0625 30.125 13.0625 30.125 15.0625 33.125 C6.49107143 32.125 6.49107143 32.125 3.0625 31.125 C3.0625 30.465 3.0625 29.805 3.0625 29.125 C2.464375 29.33125 1.86625 29.5375 1.25 29.75 C-0.9375 30.125 -0.9375 30.125 -3.9375 28.125 C-9.34280969 29.9267699 -12.25013817 35.31603673 -14.9375 40.125 C-15.80375 39.196875 -15.80375 39.196875 -16.6875 38.25 C-19.01802993 35.84389788 -19.01802993 35.84389788 -22.9375 34.125 C-22.9375 30.165 -22.9375 26.205 -22.9375 22.125 C-20.6275 22.125 -18.3175 22.125 -15.9375 22.125 C-16.07916357 20.20802063 -16.22599584 18.29142277 -16.375 16.375 C-16.45621094 15.30765625 -16.53742187 14.2403125 -16.62109375 13.140625 C-16.87840773 10.68820038 -17.25562218 8.48578709 -17.9375 6.125 C-17.2775 6.125 -16.6175 6.125 -15.9375 6.125 C-15.9375 4.805 -15.9375 3.485 -15.9375 2.125 C-10.46690419 0.27967286 -5.74930072 -0.12809068 0 0 Z " fill="#FEFCF5" transform="translate(54.9375,9.875)"/>
<path d="M0 0 C2.26171875 0.4609375 2.26171875 0.4609375 4.6875 1.375 C5.49574219 1.67148438 6.30398437 1.96796875 7.13671875 2.2734375 C7.75160156 2.51320313 8.36648437 2.75296875 9 3 C9 3.99 9 4.98 9 6 C9.99 6.33 10.98 6.66 12 7 C12 7.66 12 8.32 12 9 C11.34 9 10.68 9 10 9 C9.67 13.29 9.34 17.58 9 22 C11.31 22 13.62 22 16 22 C16.34699743 25.72700939 16.54118409 29.28672699 16 33 C13.0625 35.5625 13.0625 35.5625 10 37 C9.67 37.66 9.34 38.32 9 39 C9.56847656 38.77441406 10.13695313 38.54882812 10.72265625 38.31640625 C13.2795444 37.4925675 15.30502742 36.97867901 18 37 C20.88525351 38.90782161 22.91886589 41.25638268 25 44 C23.19798233 47.8078835 21.37518418 50.37485675 18 53 C14.56472756 52.88355009 12.07491161 52.53745581 9 51 C9 51.99 9 52.98 9 54 C9.969375 54.309375 10.93875 54.61875 11.9375 54.9375 C15 56 15 56 16 57 C16.14355117 61.00220653 16.04216403 64.99441683 16 69 C12.04 69 8.08 69 4 69 C3.67 67.68 3.34 66.36 3 65 C5.97 64.505 5.97 64.505 9 64 C8.67 63.34 8.34 62.68 8 62 C7.69208131 59.66922657 7.49104726 57.33758104 7.28125 54.99609375 C7.20467988 53.00416869 7.20467988 53.00416869 6 52 C6.03234898 50.08258745 6.10105824 48.1657362 6.1875 46.25 C6.27378198 41.26525015 6.27378198 41.26525015 4 36.875 C3.34 36.25625 2.68 35.6375 2 35 C2 34.34 2 33.68 2 33 C3.485 32.505 3.485 32.505 5 32 C4.01 31.34 3.02 30.68 2 30 C1 27 1 27 2.1875 24.3125 C3.0846875 23.1678125 3.0846875 23.1678125 4 22 C5.32 22 6.64 22 8 22 C8 19.69 8 17.38 8 15 C6.68 14.34 5.36 13.68 4 13 C4 11.35 4 9.7 4 8 C3.34 8 2.68 8 2 8 C1.67 9.32 1.34 10.64 1 12 C-1.97 11.505 -1.97 11.505 -5 11 C-5 10.01 -5 9.02 -5 8 C-4.34 8 -3.68 8 -3 8 C-3 8.66 -3 9.32 -3 10 C-2.01 10 -1.02 10 0 10 C0 9.34 0 8.68 0 8 C-1.32 7.67 -2.64 7.34 -4 7 C-3.6875 4.625 -3.6875 4.625 -3 2 C-2.01 1.34 -1.02 0.68 0 0 Z " fill="#FCCA0A" transform="translate(63,10)"/>
<path d="M0 0 C3.76029079 0.51276693 6.66312112 1.22033126 10 3 C10.66 3.165 11.32 3.33 12 3.5 C14.19929074 4.04982269 16.00722558 4.93244227 18 6 C17.34 6 16.68 6 16 6 C17.2375 7.36125 17.2375 7.36125 18.5 8.75 C21.64742994 13.08213672 21.37493891 16.93856902 21.078125 22.1328125 C21.00157326 24.94226143 21.45032473 27.2610198 22 30 C21.0625 32.3125 21.0625 32.3125 20 34 C19.34 34 18.68 34 18 34 C18 34.99 18 35.98 18 37 C17.34 37 16.68 37 16 37 C11.42857143 29.71428571 11.42857143 29.71428571 12 25 C12.66 25.33 13.32 25.66 14 26 C14 26.66 14 27.32 14 28 C14.66 28 15.32 28 16 28 C14.47793991 25.37098712 13.15634036 23.15634036 11 21 C11 20.01 11 19.02 11 18 C12.65 18 14.3 18 16 18 C15.01 17.34 14.02 16.68 13 16 C13.99 15.67 14.98 15.34 16 15 C8.39277848 13.16377412 0.75362732 12.03675813 -7 11 C-6.38722388 8.03824877 -5.74627478 6.61941217 -4 4 C-3.34 4 -2.68 4 -2 4 C-1.34 2.68 -0.68 1.36 0 0 Z " fill="#634225" transform="translate(49,37)"/>
<path d="M0 0 C9.87585107 2.27904255 18.0806083 10.79900276 23.35546875 19.14453125 C26.13496861 24.25767263 26.13496861 24.25767263 25.59375 27.234375 C25.3978125 27.81703125 25.201875 28.3996875 25 29 C24.0925 28.814375 23.185 28.62875 22.25 28.4375 C19.31685676 28.04265379 17.7355343 28.05308428 15 29 C15 28.34 15 27.68 15 27 C16.98 26.34 18.96 25.68 21 25 C20.67 23.68 20.34 22.36 20 21 C19.505 21.33 19.01 21.66 18.5 22 C14.90909106 23.43636358 11.85543873 23.12851462 8 23 C8 25.64 8 28.28 8 31 C7.34 30.67 6.68 30.34 6 30 C6.33 26.37 6.66 22.74 7 19 C4.69 19 2.38 19 0 19 C0 14.05 0 9.1 0 4 C0.33 4.66 0.66 5.32 1 6 C1.66 6 2.32 6 3 6 C2.505 5.566875 2.01 5.13375 1.5 4.6875 C0 3 0 3 0 0 Z " fill="#BB1A16" transform="translate(72,13)"/>
<path d="M0 0 C2.375 -0.1875 2.375 -0.1875 5 0 C5.66 0.99 6.32 1.98 7 3 C8.7325 3.680625 8.7325 3.680625 10.5 4.375 C14 6 14 6 15.5 8.5 C16 11 16 11 15 14 C13.68 14 12.36 14 11 14 C10.67 12.68 10.34 11.36 10 10 C9.01 10 8.02 10 7 10 C7 9.34 7 8.68 7 8 C6.34 7.67 5.68 7.34 5 7 C5 6.34 5 5.68 5 5 C3.35 7.97 1.7 10.94 0 14 C1.98 13.67 3.96 13.34 6 13 C7.125 16.75 7.125 16.75 6 19 C2.04 19 -1.92 19 -6 19 C-6.48828125 9.91796875 -6.48828125 9.91796875 -6 7 C-3.60354412 5.11176478 -2.08655314 4 1 4 C0.67 2.68 0.34 1.36 0 0 Z " fill="#F7CA12" transform="translate(38,60)"/>
<path d="M0 0 C1.703125 1.41015625 1.703125 1.41015625 3.25 3.0625 C3.77078125 3.61035156 4.2915625 4.15820312 4.828125 4.72265625 C5.21484375 5.14417969 5.6015625 5.56570312 6 6 C4.42705864 9.86085606 2.28856993 12.44222339 -1 15 C-4.8125 14.8125 -4.8125 14.8125 -8 14 C-9.23921302 11.02588876 -10.30058404 8.14737182 -11 5 C-10.34 5 -9.68 5 -9 5 C-9.33 3.68 -9.66 2.36 -10 1 C-3.76119403 -1.41044776 -3.76119403 -1.41044776 0 0 Z " fill="#FDCA03" transform="translate(82,48)"/>
<path d="M0 0 C0.33 0.66 0.66 1.32 1 2 C1.99 2.33 2.98 2.66 4 3 C4 3.66 4 4.32 4 5 C2.68 5.33 1.36 5.66 0 6 C0 7.32 0 8.64 0 10 C1.65 10 3.3 10 5 10 C5 9.34 5 8.68 5 8 C4.01 7.67 3.02 7.34 2 7 C3.32 6.67 4.64 6.34 6 6 C6.33 6.99 6.66 7.98 7 9 C6.01 10.485 6.01 10.485 5 12 C2.06247802 12.45192646 0.62024561 12.44914337 -1.8125 10.6875 C-3 9 -3 9 -3 6 C-4.32 7.32 -5.64 8.64 -7 10 C-3.535 11.485 -3.535 11.485 0 13 C0 13.66 0 14.32 0 15 C-0.639375 15.226875 -1.27875 15.45375 -1.9375 15.6875 C-4.24928429 16.82191056 -4.24928429 16.82191056 -4.5625 19.375 C-4.706875 20.24125 -4.85125 21.1075 -5 22 C-6.5625 24.3125 -6.5625 24.3125 -8 26 C-11.37462715 25.45276317 -13.08235 24.9451 -16 23 C-14.25 18.125 -14.25 18.125 -12 17 C-12.33 18.32 -12.66 19.64 -13 21 C-11.68 20.34 -10.36 19.68 -9 19 C-9.33 20.65 -9.66 22.3 -10 24 C-9.34 24 -8.68 24 -8 24 C-7.06714773 20.35339566 -6.65826361 18.65375657 -8.4375 15.25 C-8.953125 14.5075 -9.46875 13.765 -10 13 C-10 12.34 -10 11.68 -10 11 C-10.66 10.67 -11.32 10.34 -12 10 C-10.37744772 8.51814875 -8.75188112 7.03959744 -7.125 5.5625 C-6.22007813 4.73878906 -5.31515625 3.91507813 -4.3828125 3.06640625 C-2 1 -2 1 0 0 Z " fill="#262D5A" transform="translate(31,16)"/>
<path d="M0 0 C0 0.99 0 1.98 0 3 C-0.66 3 -1.32 3 -2 3 C-1.67257813 3.53109375 -1.34515625 4.0621875 -1.0078125 4.609375 C0.2642989 7.62694157 0.1959363 9.98693023 0.125 13.25 C0.10695313 14.32765625 0.08890625 15.4053125 0.0703125 16.515625 C0.04710938 17.33546875 0.02390625 18.1553125 0 19 C-2.31 19 -4.62 19 -7 19 C-7 22.96 -7 26.92 -7 31 C-7.33 31 -7.66 31 -8 31 C-8.33 27.37 -8.66 23.74 -9 20 C-9.99 21.98 -10.98 23.96 -12 26 C-12.66 25.67 -13.32 25.34 -14 25 C-13.25 22.0625 -13.25 22.0625 -12 19 C-9.875 18.125 -9.875 18.125 -8 18 C-8 17.34 -8 16.68 -8 16 C-8.928125 15.896875 -9.85625 15.79375 -10.8125 15.6875 C-14.03254358 14.9929808 -15.02579865 14.52259061 -17 12 C-13.25 9 -13.25 9 -11 9 C-10.566875 9.825 -10.13375 10.65 -9.6875 11.5 C-9.130625 12.325 -8.57375 13.15 -8 14 C-5.37305578 14.41780879 -5.37305578 14.41780879 -3 14 C-2.67 12.68 -2.34 11.36 -2 10 C-2.99 10 -3.98 10 -5 10 C-4.34 10.33 -3.68 10.66 -3 11 C-3 11.66 -3 12.32 -3 13 C-4.65 13 -6.3 13 -8 13 C-8.33 11.68 -8.66 10.36 -9 9 C-7.35 8.67 -5.7 8.34 -4 8 C-4.495 7.566875 -4.99 7.13375 -5.5 6.6875 C-7 5 -7 5 -7 2 C-4.35261084 0.5393715 -3.10551666 0 0 0 Z " fill="#192560" transform="translate(39,13)"/>
<path d="M0 0 C2.97 0.99 5.94 1.98 9 3 C8.01 4.485 8.01 4.485 7 6 C6.58256635 8.24645876 6.58256635 8.24645876 6.4375 10.625 C6.09841828 14.90158172 6.09841828 14.90158172 5 16 C2.875 16.5 2.875 16.5 0 16 C-2.56769638 13.87354337 -4.79256985 11.49369631 -7 9 C-5.27845212 5.23511958 -3.00765886 2.84936103 0 0 Z " fill="#F8CA02" transform="translate(30,47)"/>
<path d="M0 0 C3.96 0 7.92 0 12 0 C12.66 1.32 13.32 2.64 14 4 C13.67 4.99 13.34 5.98 13 7 C12.34 7 11.68 7 11 7 C8.64046906 9.35953094 8.50858587 10.77895617 8 14 C8.66 14 9.32 14 10 14 C9.34 15.32 8.68 16.64 8 18 C7.4225 17.38125 6.845 16.7625 6.25 16.125 C3.91947007 13.71889788 3.91947007 13.71889788 0 12 C0 8.04 0 4.08 0 0 Z " fill="#F9CB0E" transform="translate(32,32)"/>
<path d="M0 0 C6.71393342 5.24907522 6.71393342 5.24907522 8 8.625 C8 10.94854343 7.7333024 12.8000928 7 15 C6.01 14.67 5.02 14.34 4 14 C1.85744207 14.38932856 1.85744207 14.38932856 0 15 C-0.66 14.01 -1.32 13.02 -2 12 C-3.98 12.99 -3.98 12.99 -6 14 C-6.66 12.02 -7.32 10.04 -8 8 C-5.36 5.36 -2.72 2.72 0 0 Z " fill="#FECC08" transform="translate(55,22)"/>
<path d="M0 0 C0 0.66 0 1.32 0 2 C-1.32 2 -2.64 2 -4 2 C-4 2.66 -4 3.32 -4 4 C-2.68 4.33 -1.36 4.66 0 5 C-1.32 5.33 -2.64 5.66 -4 6 C-4 6.66 -4 7.32 -4 8 C-2.35 8 -0.7 8 1 8 C-2.00440021 10.00293347 -3.70993945 10.49271626 -7.1875 11.125 C-8.08855469 11.29257812 -8.98960938 11.46015625 -9.91796875 11.6328125 C-10.60503906 11.75398438 -11.29210938 11.87515625 -12 12 C-15 6.25 -15 6.25 -15 4 C-14.34 4 -13.68 4 -13 4 C-13 2.68 -13 1.36 -13 0 C-7.76054572 -1.71289851 -4.90876951 -2.45438476 0 0 Z " fill="#FEFBEE" transform="translate(52,12)"/>
<path d="M0 0 C2.12889258 2.59169531 3.75013707 4.60186417 4 8 C2.34765625 10.140625 2.34765625 10.140625 0.0625 12.25 C-0.68902344 12.95640625 -1.44054688 13.6628125 -2.21484375 14.390625 C-2.80394531 14.92171875 -3.39304687 15.4528125 -4 16 C-10.70459519 10.9059081 -10.70459519 10.9059081 -11.9375 7.125 C-11.958125 6.42375 -11.97875 5.7225 -12 5 C-10.70990357 4.49596232 -9.41786211 3.99690074 -8.125 3.5 C-7.04605469 3.08234375 -7.04605469 3.08234375 -5.9453125 2.65625 C-4 2 -4 2 -2 2 C-1.34 1.34 -0.68 0.68 0 0 Z " fill="#FECC07" transform="translate(60,72)"/>
<path d="M0 0 C3.92550992 2.06089271 5.59636273 5.4019273 7.5 9.3125 C8.82432432 13.66385135 8.82432432 13.66385135 7.5 16.3125 C6.5925 16.126875 5.685 15.94125 4.75 15.75 C1.81685676 15.35515379 0.2355343 15.36558428 -2.5 16.3125 C-2.5 15.6525 -2.5 14.9925 -2.5 14.3125 C-0.52 13.6525 1.46 12.9925 3.5 12.3125 C3.17 10.9925 2.84 9.6725 2.5 8.3125 C1.943125 8.6425 1.38625 8.9725 0.8125 9.3125 C-1.80284522 10.4434601 -3.6806646 10.46912974 -6.5 10.3125 C-7.3125 8.125 -7.3125 8.125 -7.5 5.3125 C-5.23856862 2.25291636 -3.86458036 0.48307255 0 0 Z " fill="#BD2017" transform="translate(89.5,25.6875)"/>
<path d="M0 0 C3.37462715 0.54723683 5.08235 1.0549 8 3 C8.41820365 7.02590716 8.12945079 10.94387531 8 15 C4.04 15 0.08 15 -4 15 C-4.33 13.68 -4.66 12.36 -5 11 C-3.02 10.67 -1.04 10.34 1 10 C0.67 9.34 0.34 8.68 0 8 C-0.13415472 5.3276379 -0.04318541 2.67749512 0 0 Z " fill="#FCC908" transform="translate(71,64)"/>
<path d="M0 0 C-1.09901281 2.56436322 -2.00497569 4.00439032 -4.125 5.875 C-6.32321149 7.93642897 -6.32321149 7.93642897 -6.25 11.25 C-6.12625 12.61125 -6.12625 12.61125 -6 14 C-6.99 13.67 -7.98 13.34 -9 13 C-9.33 12.34 -9.66 11.68 -10 11 C-12.52733235 10.34444881 -12.52733235 10.34444881 -15 10 C-15 7.03 -15 4.06 -15 1 C-9.91913204 0.15318867 -5.15171623 -0.09038099 0 0 Z " fill="#FEFDF7" transform="translate(54,22)"/>
<path d="M0 0 C3.71599191 -0.20086443 4.77208445 -0.1519437 8 2 C10.64632287 1.6878236 10.64632287 1.6878236 13 1 C13.33 1.66 13.66 2.32 14 3 C12.68 2.67 11.36 2.34 10 2 C10 2.66 10 3.32 10 4 C11.32 4.33 12.64 4.66 14 5 C13.79375 5.61875 13.5875 6.2375 13.375 6.875 C13.25125 7.57625 13.1275 8.2775 13 9 C13.66 9.66 14.32 10.32 15 11 C13.2507786 11.08142927 11.50045458 11.13938541 9.75 11.1875 C8.28820312 11.23970703 8.28820312 11.23970703 6.796875 11.29296875 C3.55684393 10.95358002 2.23163887 10.35795805 0 8 C-0.52799676 5.23857697 -0.18598981 2.83634455 0 0 Z " fill="#F0ECDB" transform="translate(45,90)"/>
<path d="M0 0 C2.31 0 4.62 0 7 0 C7.28875 0.94875 7.5775 1.8975 7.875 2.875 C8.76825109 6.05211578 8.76825109 6.05211578 11 8 C10.6875 9.875 10.6875 9.875 10 12 C9.814375 12.7425 9.62875 13.485 9.4375 14.25 C9.293125 14.8275 9.14875 15.405 9 16 C8.34 16 7.68 16 7 16 C7 16.99 7 17.98 7 19 C6.34 19 5.68 19 5 19 C0.42857143 11.71428571 0.42857143 11.71428571 1 7 C1.66 7.33 2.32 7.66 3 8 C3 8.66 3 9.32 3 10 C3.66 10 4.32 10 5 10 C3.47793991 7.37098712 2.15634036 5.15634036 0 3 C0 2.01 0 1.02 0 0 Z " fill="#828A85" transform="translate(60,55)"/>
<path d="M0 0 C0.5775 0.515625 1.155 1.03125 1.75 1.5625 C3.87827523 3.26505193 3.87827523 3.26505193 6.25 2.6875 C6.8275 2.460625 7.405 2.23375 8 2 C8.33 2.99 8.66 3.98 9 5 C11.31 5.33 13.62 5.66 16 6 C16 6.66 16 7.32 16 8 C16.66 8.66 17.32 9.32 18 10 C9.42857143 9 9.42857143 9 6 8 C6 7.34 6 6.68 6 6 C5.1028125 6.309375 5.1028125 6.309375 4.1875 6.625 C2 7 2 7 -1 5 C-4.31487625 6.10495875 -4.96283765 6.90435968 -7.0625 9.5625 C-8.59765625 11.50390625 -8.59765625 11.50390625 -10 13 C-10.66 13 -11.32 13 -12 13 C-12.1875 10.125 -12.1875 10.125 -12 7 C-11.01 6.34 -10.02 5.68 -9 5 C-8.34 5.33 -7.68 5.66 -7 6 C-7.33 5.01 -7.66 4.02 -8 3 C-6.68 3 -5.36 3 -4 3 C-3.67 2.34 -3.34 1.68 -3 1 C-3 1.66 -3 2.32 -3 3 C-2.01 2.01 -1.02 1.02 0 0 Z " fill="#F5F2DB" transform="translate(52,33)"/>
<path d="M0 0 C1.98567708 0.5859375 3.97135417 1.171875 5.95703125 1.7578125 C5.62703125 3.0778125 5.29703125 4.3978125 4.95703125 5.7578125 C4.29703125 5.7578125 3.63703125 5.7578125 2.95703125 5.7578125 C2.95703125 6.4178125 2.95703125 7.0778125 2.95703125 7.7578125 C1.96703125 7.7578125 0.97703125 7.7578125 -0.04296875 7.7578125 C-0.37296875 9.0778125 -0.70296875 10.3978125 -1.04296875 11.7578125 C-4.01296875 11.2628125 -4.01296875 11.2628125 -7.04296875 10.7578125 C-7.04296875 9.7678125 -7.04296875 8.7778125 -7.04296875 7.7578125 C-6.38296875 7.7578125 -5.72296875 7.7578125 -5.04296875 7.7578125 C-5.04296875 8.4178125 -5.04296875 9.0778125 -5.04296875 9.7578125 C-4.05296875 9.7578125 -3.06296875 9.7578125 -2.04296875 9.7578125 C-2.04296875 9.0978125 -2.04296875 8.4378125 -2.04296875 7.7578125 C-3.36296875 7.4278125 -4.68296875 7.0978125 -6.04296875 6.7578125 C-5.73046875 4.3828125 -5.73046875 4.3828125 -5.04296875 1.7578125 C-2.04296875 -0.2421875 -2.04296875 -0.2421875 0 0 Z " fill="#FEF9E2" transform="translate(65.04296875,10.2421875)"/>
<path d="M0 0 C4.455 0.99 4.455 0.99 9 2 C9 2.66 9 3.32 9 4 C8.360625 4.226875 7.72125 4.45375 7.0625 4.6875 C4.75071571 5.82191056 4.75071571 5.82191056 4.4375 8.375 C4.293125 9.24125 4.14875 10.1075 4 11 C2.4375 13.3125 2.4375 13.3125 1 15 C-2.37462715 14.45276317 -4.08235 13.9451 -7 12 C-5.25 7.125 -5.25 7.125 -3 6 C-3.33 7.32 -3.66 8.64 -4 10 C-2.68 9.34 -1.36 8.68 0 8 C-0.33 9.65 -0.66 11.3 -1 13 C-0.34 13 0.32 13 1 13 C1.95225866 8.81006189 2.17609291 6.71215849 0 3 C0 2.01 0 1.02 0 0 Z " fill="#CFB112" transform="translate(22,27)"/>
<path d="M0 0 C1.9375 0.8125 1.9375 0.8125 3.9375 2.8125 C3.38194444 7.36805556 3.38194444 7.36805556 1.9375 8.8125 C-1.0625 8.9375 -1.0625 8.9375 -4.0625 8.8125 C-5.0625 7.8125 -5.0625 7.8125 -5.3125 5.4375 C-5.0625 2.8125 -5.0625 2.8125 -3.8125 0.9375 C-2.0625 -0.1875 -2.0625 -0.1875 0 0 Z " fill="#F4BA03" transform="translate(80.0625,20.1875)"/>
<path d="M0 0 C0.33 0.99 0.66 1.98 1 3 C1.99 3.33 2.98 3.66 4 4 C4 4.66 4 5.32 4 6 C3.34 6 2.68 6 2 6 C1.67 10.29 1.34 14.58 1 19 C0.67 19 0.34 19 0 19 C0 16.69 0 14.38 0 12 C-1.32 11.34 -2.64 10.68 -4 10 C-3.38461538 3.47692308 -3.38461538 3.47692308 -1.4375 1.0625 C-0.7259375 0.5365625 -0.7259375 0.5365625 0 0 Z " fill="#F4BD36" transform="translate(71,13)"/>
<path d="M0 0 C6.460199 -0.36567164 6.460199 -0.36567164 8.9375 1.3125 C10 3 10 3 10 6 C7.03 5.505 7.03 5.505 4 5 C3.67 5.99 3.34 6.98 3 8 C3 7.01 3 6.02 3 5 C2.34 5 1.68 5 1 5 C0.67 5.99 0.34 6.98 0 8 C-0.66 7.34 -1.32 6.68 -2 6 C-1.34 4.02 -0.68 2.04 0 0 Z " fill="#E4E1D9" transform="translate(56,50)"/>
<path d="M0 0 C7.45840708 2.13345133 7.45840708 2.13345133 9.5625 5.5 C10 8 10 8 9 11 C7.68 11 6.36 11 5 11 C4.67 9.68 4.34 8.36 4 7 C3.01 7 2.02 7 1 7 C1 6.34 1 5.68 1 5 C0.34 4.67 -0.32 4.34 -1 4 C-0.67 2.68 -0.34 1.36 0 0 Z " fill="#888B89" transform="translate(44,63)"/>
<path d="M0 0 C3.4782397 1.62317853 5.46726261 2.84573566 7.125 6.4375 C8.77491779 11.26940209 7.73422585 16.0439755 7 21 C6.01 20.34 5.02 19.68 4 19 C3.84765625 16.35546875 3.84765625 16.35546875 4.0625 13.1875 C4.25353913 8.23744188 4.25353913 8.23744188 2 3.875 C1.34 3.25625 0.68 2.6375 0 2 C0 1.34 0 0.68 0 0 Z " fill="#F6F0D9" transform="translate(65,43)"/>
<path d="M0 0 C1.66611905 -0.042721 3.33382885 -0.04063832 5 0 C6 1 6 1 6.0625 4.5625 C6.041875 5.696875 6.02125 6.83125 6 8 C4.02 8 2.04 8 0 8 C0 5.36 0 2.72 0 0 Z " fill="#5C5C5C" transform="translate(45,90)"/>
<path d="M0 0 C2 4 2 4 3 7 C2.0625 9.1875 2.0625 9.1875 1 11 C-3 11 -3 11 -6 10 C-4.02 6.7 -2.04 3.4 0 0 Z " fill="#FBF8E9" transform="translate(43,64)"/>
<path d="M0 0 C1.98 0.99 1.98 0.99 4 2 C4 2.99 4 3.98 4 5 C4.70125 4.835 5.4025 4.67 6.125 4.5 C9.13888194 3.97584662 11.94713625 3.92900317 15 4 C14 6 14 6 10.875 7.1875 C6.83529318 8.0345353 4.01376904 7.81913654 0 7 C0 4.69 0 2.38 0 0 Z " fill="#20231F" transform="translate(36,53)"/>
<path d="M0 0 C0.66 0.66 1.32 1.32 2 2 C1.34 3.98 0.68 5.96 0 8 C-0.66 8 -1.32 8 -2 8 C-2 10.64 -2 13.28 -2 16 C-2.66 15.67 -3.32 15.34 -4 15 C-3.67 11.37 -3.34 7.74 -3 4 C-4.98 4 -6.96 4 -9 4 C-7.09401557 1.56457545 -5.99403725 0.99841804 -2.9375 0.1875 C-1.968125 0.125625 -0.99875 0.06375 0 0 Z " fill="#BC1D16" transform="translate(82,28)"/>
<path d="M0 0 C0.68707555 2.49064888 1 4.37886292 1 7 C-3.89277899 11.09628009 -3.89277899 11.09628009 -7.875 10.75 C-8.57625 10.5025 -9.2775 10.255 -10 10 C-10 9.34 -10 8.68 -10 8 C-8.3603125 7.4121875 -8.3603125 7.4121875 -6.6875 6.8125 C-3.08925078 5.2974477 -1.65475777 3.60153162 0 0 Z " fill="#707371" transform="translate(54,52)"/>
<path d="M0 0 C0.66 0 1.32 0 2 0 C2 6.27 2 12.54 2 19 C0.68 18.67 -0.64 18.34 -2 18 C-2 17.34 -2 16.68 -2 16 C-1.34 16 -0.68 16 0 16 C0 10.72 0 5.44 0 0 Z " fill="#1A2867" transform="translate(37,79)"/>
<path d="M0 0 C0 1.65 0 3.3 0 5 C4.455 5.99 4.455 5.99 9 7 C7 9 7 9 4.8359375 9.1953125 C3.61777344 9.16050781 3.61777344 9.16050781 2.375 9.125 C1.55773438 9.10695313 0.74046875 9.08890625 -0.1015625 9.0703125 C-0.72804688 9.04710937 -1.35453125 9.02390625 -2 9 C-2.99 7.02 -3.98 5.04 -5 3 C-2.25 0 -2.25 0 0 0 Z " fill="#263232" transform="translate(42,49)"/>
<path d="M0 0 C2.31 0 4.62 0 7 0 C7.6875 2.8125 7.6875 2.8125 8 6 C6.5625 7.875 6.5625 7.875 5 9 C0 3.375 0 3.375 0 0 Z " fill="#787C76" transform="translate(60,55)"/>
<path d="M0 0 C1.32 0 2.64 0 4 0 C4 0.66 4 1.32 4 2 C2.68 2.33 1.36 2.66 0 3 C0 4.32 0 5.64 0 7 C1.65 7 3.3 7 5 7 C5 6.34 5 5.68 5 5 C4.01 4.67 3.02 4.34 2 4 C3.32 3.67 4.64 3.34 6 3 C6.33 3.99 6.66 4.98 7 6 C6.01 7.485 6.01 7.485 5 9 C2.5 9.3125 2.5 9.3125 0 9 C-2 7 -2 7 -2.25 4.5 C-2 2 -2 2 0 0 Z " fill="#E1C20B" transform="translate(31,19)"/>
<path d="M0 0 C1.65 0 3.3 0 5 0 C5 0.99 5 1.98 5 3 C4.01 2.34 3.02 1.68 2 1 C2 1.66 2 2.32 2 3 C3.32 3.66 4.64 4.32 6 5 C5.67 6.32 5.34 7.64 5 9 C2.03 8.505 2.03 8.505 -1 8 C-1 7.01 -1 6.02 -1 5 C-0.34 5 0.32 5 1 5 C1 5.66 1 6.32 1 7 C1.99 7 2.98 7 4 7 C4 6.34 4 5.68 4 5 C2.68 4.67 1.36 4.34 0 4 C0 2.68 0 1.36 0 0 Z " fill="#FED023" transform="translate(59,13)"/>
<path d="M0 0 C0 0.66 0 1.32 0 2 C-1.32 2 -2.64 2 -4 2 C-4 2.66 -4 3.32 -4 4 C-2.68 4.33 -1.36 4.66 0 5 C-1.32 5.33 -2.64 5.66 -4 6 C-4 6.66 -4 7.32 -4 8 C-2.35 8 -0.7 8 1 8 C-2 10 -2 10 -5 10 C-6.4783226 7.04335481 -6.06032783 4.25770263 -6 1 C-3.92446352 0.4465236 -2.15634036 0 0 0 Z " fill="#FED01E" transform="translate(52,12)"/>
<path d="M0 0 C1.98 0 3.96 0 6 0 C5.67 1.65 5.34 3.3 5 5 C4.34 5 3.68 5 3 5 C3 5.99 3 6.98 3 8 C2.34 8 1.68 8 1 8 C0.67 5.36 0.34 2.72 0 0 Z " fill="#535353" transform="translate(60,90)"/>
<path d="M0 0 C-1 3 -1 3 -3 4 C-3.33 4.99 -3.66 5.98 -4 7 C-1.69 6.01 0.62 5.02 3 4 C1.125 7.875 1.125 7.875 0 9 C-1.66617115 9.04063832 -3.33388095 9.042721 -5 9 C-5.75 6.75 -5.75 6.75 -6 4 C-2.86486486 0 -2.86486486 0 0 0 Z " fill="#F3BB03" transform="translate(88,27)"/>
<path d="M0 0 C0.66 0.33 1.32 0.66 2 1 C2 4 2 4 -0.375 6.6875 C-3 9 -3 9 -5 9 C-5.1875 6.125 -5.1875 6.125 -5 3 C-4.01 2.34 -3.02 1.68 -2 1 C-1.34 1.33 -0.68 1.66 0 2 C0 1.34 0 0.68 0 0 Z " fill="#EDF1E2" transform="translate(45,37)"/>
<path d="M0 0 C0.66 0.99 1.32 1.98 2 3 C5.56769552 3.73606499 5.56769552 3.73606499 9 4 C9 4.66 9 5.32 9 6 C9.66 6.66 10.32 7.32 11 8 C2.42857143 7 2.42857143 7 -1 6 C-1 4.68 -1 3.36 -1 2 C-1.66 1.67 -2.32 1.34 -3 1 C-2.01 0.67 -1.02 0.34 0 0 Z " fill="#E8DCB8" transform="translate(59,35)"/>
<path d="M0 0 C0.66 0.33 1.32 0.66 2 1 C1.40572612 2.60785777 0.79916412 4.21117709 0.1875 5.8125 C-0.14894531 6.70582031 -0.48539063 7.59914063 -0.83203125 8.51953125 C-1.96197319 10.91924072 -3.01062293 12.28423353 -5 14 C-4.53411505 8.29290936 -3.06242216 4.84060277 0 0 Z " fill="#19225D" transform="translate(17,29)"/>
<path d="M0 0 C1.65 0.33 3.3 0.66 5 1 C4.01 1.495 4.01 1.495 3 2 C2.34 1.67 1.68 1.34 1 1 C1 1.66 1 2.32 1 3 C2.32 3.33 3.64 3.66 5 4 C4.67 5.32 4.34 6.64 4 8 C2.35 7.67 0.7 7.34 -1 7 C-0.67 6.34 -0.34 5.68 0 5 C0.66 5 1.32 5 2 5 C1.01 4.34 0.02 3.68 -1 3 C-0.67 2.01 -0.34 1.02 0 0 Z " fill="#363636" transform="translate(54,91)"/>
<path d="M0 0 C0.66 0.33 1.32 0.66 2 1 C2 1.99 2 2.98 2 4 C4.64 4 7.28 4 10 4 C9.67 4.99 9.34 5.98 9 7 C7.51793505 6.745504 6.03931385 6.47088238 4.5625 6.1875 C3.73878906 6.03667969 2.91507813 5.88585938 2.06640625 5.73046875 C1.38449219 5.48941406 0.70257813 5.24835937 0 5 C-0.33 4.01 -0.66 3.02 -1 2 C-0.67 1.34 -0.34 0.68 0 0 Z " fill="#1A1B17" transform="translate(42,50)"/>
<path d="M0 0 C0 3 0 3 -1 6 C-3.92879371 5.37240135 -6.36095629 4.41377341 -9 3 C-6.9858023 1.99290115 -5.18096274 1.52871824 -3 1 C-2.01 0.67 -1.02 0.34 0 0 Z " fill="#DCDCD4" transform="translate(53,60)"/>
<path d="M0 0 C0.66 0 1.32 0 2 0 C2.66 1.98 3.32 3.96 4 6 C-0.455 6.495 -0.455 6.495 -5 7 C-5 6.34 -5 5.68 -5 5 C-3.02 4.34 -1.04 3.68 1 3 C0.67 2.01 0.34 1.02 0 0 Z " fill="#F4BA03" transform="translate(92,35)"/>
<path d="M0 0 C1.98 0.495 1.98 0.495 4 1 C3.67 2.32 3.34 3.64 3 5 C1.68 5 0.36 5 -1 5 C-0.67 3.35 -0.34 1.7 0 0 Z " fill="#BA1917" transform="translate(78,22)"/>
<path d="M0 0 C0.66 0 1.32 0 2 0 C2.66 1.98 3.32 3.96 4 6 C5.65 5.67 7.3 5.34 9 5 C9 5.66 9 6.32 9 7 C7.02 7.33 5.04 7.66 3 8 C0 2.25 0 2.25 0 0 Z " fill="#F6CE24" transform="translate(37,16)"/>
<path d="M0 0 C0.99 0.33 1.98 0.66 3 1 C3 1.99 3 2.98 3 4 C0.75 5.1875 0.75 5.1875 -2 6 C-4.3125 4.625 -4.3125 4.625 -6 3 C-5.195625 2.87625 -4.39125 2.7525 -3.5625 2.625 C-2.716875 2.41875 -1.87125 2.2125 -1 2 C-0.67 1.34 -0.34 0.68 0 0 Z " fill="#292F52" transform="translate(36,60)"/>
<path d="M0 0 C1.125 3.75 1.125 3.75 0 6 C-2.86724686 5.42655063 -3.8614515 5.1385485 -6 3 C-2.25 0 -2.25 0 0 0 Z " fill="#091961" transform="translate(28,22)"/>
<path d="M0 0 C1.4540625 0.0309375 1.4540625 0.0309375 2.9375 0.0625 C1.9475 0.7225 0.9575 1.3825 -0.0625 2.0625 C0.5975 2.3925 1.2575 2.7225 1.9375 3.0625 C1.9375 3.7225 1.9375 4.3825 1.9375 5.0625 C0.2875 5.0625 -1.3625 5.0625 -3.0625 5.0625 C-3.625 3.125 -3.625 3.125 -4.0625 1.0625 C-3.0625 0.0625 -3.0625 0.0625 0 0 Z " fill="#252959" transform="translate(34.0625,20.9375)"/>
<path d="M0 0 C1.98 0.99 1.98 0.99 4 2 C4 2.99 4 3.98 4 5 C3.34 5 2.68 5 2 5 C2 5.66 2 6.32 2 7 C1.34 7 0.68 7 0 7 C0 4.69 0 2.38 0 0 Z " fill="#161512" transform="translate(36,53)"/>
<path d="M0 0 C0.66 0 1.32 0 2 0 C2.66 1.98 3.32 3.96 4 6 C2.02 6.99 2.02 6.99 0 8 C0 5.36 0 2.72 0 0 Z " fill="#B60C12" transform="translate(72,24)"/>
<path d="M0 0 C0.33 2.31 0.66 4.62 1 7 C-1.16874252 6.49396008 -2.99967627 6.00016187 -5 5 C-5 3 -5 3 -3.625 1.375 C-2 0 -2 0 0 0 Z " fill="#FFF3C8" transform="translate(53,15)"/>
<path d="M0 0 C0.66 0.66 1.32 1.32 2 2 C1.360625 2.12375 0.72125 2.2475 0.0625 2.375 C-0.618125 2.58125 -1.29875 2.7875 -2 3 C-2.33 3.66 -2.66 4.32 -3 5 C-5.97 4.505 -5.97 4.505 -9 4 C-7.09401557 1.56457545 -5.99403725 0.99841804 -2.9375 0.1875 C-1.968125 0.125625 -0.99875 0.06375 0 0 Z " fill="#C43213" transform="translate(82,28)"/>
<path d="M0 0 C0.99 0.33 1.98 0.66 3 1 C2.0479279 2.00596297 1.08812654 3.00461563 0.125 4 C-0.40867187 4.556875 -0.94234375 5.11375 -1.4921875 5.6875 C-3 7 -3 7 -5 7 C-4.67 6.01 -4.34 5.02 -4 4 C-3.34 4 -2.68 4 -2 4 C-1.34 2.68 -0.68 1.36 0 0 Z " fill="#7A5E41" transform="translate(49,37)"/>
<path d="M0 0 C0 1.65 0 3.3 0 5 C-1.98 5 -3.96 5 -6 5 C-6 4.34 -6 3.68 -6 3 C-1.5 0 -1.5 0 0 0 Z " fill="#011163" transform="translate(38,26)"/>
<path d="M0 0 C0.66 0 1.32 0 2 0 C2 1.65 2 3.3 2 5 C0.68 5 -0.64 5 -2 5 C-1.125 1.125 -1.125 1.125 0 0 Z " fill="#F6DDC9" transform="translate(70,17)"/>
<path d="M0 0 C1.5625 1.1875 1.5625 1.1875 3 3 C2.6875 5.6875 2.6875 5.6875 2 8 C1.01 7.34 0.02 6.68 -1 6 C-1.25 3.4375 -1.25 3.4375 -1 1 C-0.67 0.67 -0.34 0.34 0 0 Z " fill="#CDBDA0" transform="translate(70,56)"/>
<path d="M0 0 C2.0625 0.4375 2.0625 0.4375 4 1 C3.34 2.65 2.68 4.3 2 6 C0.68 5.34 -0.64 4.68 -2 4 C-0.68 4 0.64 4 2 4 C2 3.34 2 2.68 2 2 C1.01 1.67 0.02 1.34 -1 1 C-0.67 0.67 -0.34 0.34 0 0 Z " fill="#D1B111" transform="translate(34,22)"/>
<path d="M0 0 C0 0.99 0 1.98 0 3 C-2.375 3.625 -2.375 3.625 -5 4 C-5.66 3.34 -6.32 2.68 -7 2 C-4.35261084 0.5393715 -3.10551666 0 0 0 Z " fill="#252F60" transform="translate(39,13)"/>
</svg>
