<?xml version="1.0" encoding="UTF-8"?>
<svg version="1.1" xmlns="http://www.w3.org/2000/svg" width="733" height="500">
<path d="M0 0 C241.89 0 483.78 0 733 0 C733 165 733 330 733 500 C491.11 500 249.22 500 0 500 C0 335 0 170 0 0 Z " fill="#FD0202" transform="translate(0,0)"/>
<path d="M0 0 C1.88474806 0.00215191 3.76950173 0.00119705 5.65424728 -0.0025568 C10.63432583 -0.00411654 15.61319127 0.0360091 20.59298706 0.08571625 C25.2913533 0.12602544 29.98944662 0.12748175 34.68798828 0.13244629 C48.36604181 0.16896057 62.04387674 0.26668944 75.72167969 0.35717773 C106.32917969 0.50155273 136.93667969 0.64592773 168.47167969 0.79467773 C168.47167969 108.04467773 168.47167969 215.29467773 168.47167969 325.79467773 C62.87167969 325.79467773 -42.72832031 325.79467773 -151.52832031 325.79467773 C-144.77321827 316.78787501 -144.77321827 316.78787501 -142.26660156 313.75170898 C-141.71061279 313.0770459 -141.15462402 312.40238281 -140.58178711 311.70727539 C-140.00726807 311.01424316 -139.43274902 310.32121094 -138.84082031 309.60717773 C-138.23214111 308.87031738 -137.62346191 308.13345703 -136.99633789 307.37426758 C-132.82033837 302.32810883 -128.60472528 297.31688831 -124.36157227 292.32714844 C-120.79837218 288.13201188 -117.31528146 283.87580143 -113.84082031 279.60717773 C-110.80464666 275.9145341 -107.70982061 272.27345985 -104.61425781 268.63061523 C-100.96551246 264.32958021 -97.39187304 259.97121676 -93.83300781 255.59545898 C-91.30798686 252.52691657 -88.733353 249.50438513 -86.15332031 246.48217773 C-81.25820248 240.7376511 -76.57194618 234.84512112 -71.93847656 228.88842773 C-70.4777905 227.01344659 -68.9909455 225.15793928 -67.45800781 223.34155273 C-58.4299232 211.42594308 -51.3466456 193.65256194 -52.11035156 178.56420898 C-53.91944368 166.57686027 -60.03422746 156.92831556 -69.64160156 149.70483398 C-82.2405241 141.36806386 -96.26623312 137.00563472 -110.84082031 133.54467773 C-135.35750226 127.6887671 -170.99156003 118.50193232 -186.09082031 96.48217773 C-188.07381161 91.39537396 -188.61451466 87.17247914 -187.52832031 81.79467773 C-179.75397466 65.66620472 -156.56932892 56.56789933 -141.27832031 49.23217773 C-140.58778564 48.89758545 -139.89725098 48.56299316 -139.18579102 48.21826172 C-135.30912578 46.4074353 -131.78228029 45.27688127 -127.52832031 44.79467773 C-127.52832031 44.13467773 -127.52832031 43.47467773 -127.52832031 42.79467773 C-105.98578695 33.35716857 -84.31644703 24.39141384 -62.27832031 16.16967773 C-61.28654785 15.79917297 -60.29477539 15.42866821 -59.27294922 15.04693604 C-56.3751719 13.96663802 -53.47573674 12.89096814 -50.57519531 11.81811523 C-49.75533142 11.51444031 -48.93546753 11.21076538 -48.09075928 10.89788818 C-46.38563407 10.27145751 -44.67658225 9.65562953 -42.96410751 9.04957867 C-40.36833056 8.1014865 -37.81248384 7.10917649 -35.24982452 6.07874393 C-23.20374732 1.37552561 -12.85681976 -0.1962881 0 0 Z " fill="#FEFB59" transform="translate(531.5283203125,19.205322265625)"/>
<path d="M0 0 C222.75 0 445.5 0 675 0 C675 38.28 675 76.56 675 116 C452.25 116 229.5 116 0 116 C0 77.72 0 39.44 0 0 Z " fill="#FCF858" transform="translate(25,360)"/>
<path d="M0 0 C102.63 0 205.26 0 311 0 C308.00478549 1.99680967 305.74021955 2.80181732 302.3125 3.8125 C301.15145752 4.16094971 299.99041504 4.50939941 298.79418945 4.8684082 C296.91606567 5.42854614 296.91606567 5.42854614 295 6 C277.70692581 11.23194198 260.70767764 17.28360822 244.04760742 24.28979492 C242 25 242 25 239 25 C239 25.66 239 26.32 239 27 C235.81926884 28.37349755 232.64210947 29.74276647 229.42578125 31.03125 C202.22530805 42.01534286 175.40838397 56.98913932 153 76 C152.17113281 76.68320313 151.34226563 77.36640625 150.48828125 78.0703125 C140.02942843 87.00758642 129.13737412 99.77023017 127.69140625 114.046875 C126.8393779 138.52332586 144.13411838 159.95340161 160 177 C161.05944602 178.16198393 162.11798278 179.3247973 163.17578125 180.48828125 C168.30243847 186.10156166 173.37974637 191.53151444 179.21875 196.41796875 C184.72312056 201.30671892 189.52162875 206.3524192 190.5 213.8125 C190.33172052 217.78535912 189.05442709 220.22461657 186.2421875 223.12109375 C182.28295018 226.43885185 177.96080633 229.18554944 173.625 231.9765625 C166.99844265 236.25965317 160.57672591 240.8437614 154.12133789 245.37866211 C148.83456832 249.07808105 143.50681158 252.6378731 138 256 C137.07058594 256.5878125 136.14117187 257.175625 135.18359375 257.78125 C127.36802483 262.67292898 119.3794684 267.21805413 111.34082031 271.73071289 C105.00832899 275.28855982 98.70971572 278.89872379 92.43139648 282.55126953 C79.47322228 290.086067 66.35536934 297.27084399 53.13085938 304.32568359 C48.07561357 307.02912057 43.03586111 309.76066074 38 312.5 C37.1347168 312.96817139 36.26943359 313.43634277 35.37792969 313.91870117 C25.62041083 318.67632316 25.62041083 318.67632316 17 325 C11.39 325 5.78 325 0 325 C0 217.75 0 110.5 0 0 Z " fill="#FEFB59" transform="translate(25,20)"/>
<path d="M0 0 C241.89 0 483.78 0 733 0 C733 165 733 330 733 500 C491.11 500 249.22 500 0 500 C0 335 0 170 0 0 Z M10 7 C10 166.72 10 326.44 10 491 C243.64 491 477.28 491 718 491 C718 331.28 718 171.56 718 7 C484.36 7 250.72 7 10 7 Z " fill="#FEFEFE" transform="translate(0,0)"/>
<path d="M0 0 C3.83433624 -0.42104717 5.50644053 -0.35954186 8.67578125 1.94921875 C26.25936349 20.21009453 38.62353869 43.94174488 39.046875 69.87109375 C39.03140625 70.57363281 39.0159375 71.27617187 39 72 C39.52207031 71.79503906 40.04414062 71.59007812 40.58203125 71.37890625 C50.98754915 67.57023157 60.53355862 66.92816251 71 71 C80.64645001 76.22286365 88.18772443 83.87809985 92.10546875 94.203125 C95.06124398 106.74903558 94.79137395 119.81494952 88.109375 131.02734375 C81.61571094 140.17859996 74.11288906 146.61635183 65 153 C65.33 154.2375 65.66 155.475 66 156.75 C67.9606038 165.86609213 68.10986086 173.67838831 63.4296875 181.94140625 C61.60801133 184.56442085 59.68391915 186.27953901 57 188 C56.319375 188.556875 55.63875 189.11375 54.9375 189.6875 C50.28668908 192.83804933 44.4047401 192.48400658 39 192 C36.16675616 191.21653064 33.69779527 190.19902012 31 189 C30.70609375 189.51046875 30.4121875 190.0209375 30.109375 190.546875 C24.3390282 199.89881636 15.64901435 209.59655196 6 215 C2.53239986 215.38321188 0.62437955 215.36052884 -2.421875 213.6015625 C-20.03707942 198.64637217 -20.03707942 198.64637217 -24 190 C-24 189.34 -24 188.68 -24 188 C-24.7425 188.474375 -25.485 188.94875 -26.25 189.4375 C-31.52018374 192.43192258 -37.0402272 192.76138067 -43 192 C-50.14198402 189.4517401 -55.44585461 184.73097384 -59.03125 178.08984375 C-62.62847351 169.71297603 -61.27280268 162.24044962 -58 154 C-58.88042969 153.26394531 -59.76085937 152.52789062 -60.66796875 151.76953125 C-61.84124844 150.78397631 -63.01441977 149.79829234 -64.1875 148.8125 C-64.76564453 148.32974609 -65.34378906 147.84699219 -65.93945312 147.34960938 C-75.23438112 139.52506547 -85.66930328 129.52030394 -87.27490234 116.82666016 C-88.2496597 103.57596699 -86.37577061 91.72199551 -78 81 C-73.7 77 -73.7 77 -71 77 C-71 76.34 -71 75.68 -71 75 C-69.3970947 74.18501438 -67.79262722 73.37310073 -66.1875 72.5625 C-65.29417969 72.11003906 -64.40085937 71.65757812 -63.48046875 71.19140625 C-58.84378524 68.96433779 -54.79888477 68.81681529 -49.75 68.8125 C-49.01136719 68.80025391 -48.27273438 68.78800781 -47.51171875 68.77539062 C-42.6290013 68.76247338 -38.63258643 69.44967676 -34 71 C-33.88519287 70.37246826 -33.77038574 69.74493652 -33.65209961 69.09838867 C-30.26129436 50.91194471 -26.447485 31.13242741 -15 16 C-14.34 16 -13.68 16 -13 16 C-12.773125 15.2575 -12.54625 14.515 -12.3125 13.75 C-10.74509959 10.46592295 -8.88172206 9.16129155 -6 7 C-5.34 6.01 -4.68 5.02 -4 4 C-3.34 4 -2.68 4 -2 4 C-2 3.34 -2 2.68 -2 2 C-1.34 2 -0.68 2 0 2 C0 1.34 0 0.68 0 0 Z " fill="#FB0000" transform="translate(586,73)"/>
<path d="M0 0 C1.42508996 0.02517827 2.85022405 0.04797423 4.27539062 0.06835938 C7.70537262 0.12245522 11.13363329 0.20816692 14.5625 0.3125 C11.25809206 2.51543863 8.01562254 3.55661177 4.265625 4.7109375 C2.74773485 5.18930528 1.23000065 5.6681681 -0.28759766 6.14746094 C-1.08707825 6.39846558 -1.88655884 6.64947021 -2.71026611 6.90808105 C-17.70881122 11.62711476 -32.43762071 16.78868587 -47.02636719 22.65380859 C-48.22680664 23.13414551 -49.42724609 23.61448242 -50.6640625 24.109375 C-51.71158691 24.53573242 -52.75911133 24.96208984 -53.83837891 25.40136719 C-56.4375 26.3125 -56.4375 26.3125 -59.4375 26.3125 C-59.4375 26.9725 -59.4375 27.6325 -59.4375 28.3125 C-63.80156222 30.07585697 -68.16294302 31.83791403 -72.57421875 33.48046875 C-78.85052005 35.81988624 -84.83250323 38.40246881 -90.78515625 41.46875 C-94.58804553 43.41344662 -98.45129463 45.22550341 -102.31347656 47.04882812 C-142.61553188 64.38759063 -142.61553188 64.38759063 -171.59765625 95.69140625 C-173.79150213 102.53824619 -173.43261643 110.12756508 -170.375 116.625 C-165.84938995 125.11242357 -158.66237821 131.02753066 -151 136.5625 C-149.21869243 137.8736197 -147.43744317 139.18481863 -145.65625 140.49609375 C-144.77582031 141.1391748 -143.89539063 141.78225586 -142.98828125 142.44482422 C-139.30372293 145.14264879 -135.65035472 147.88116652 -132 150.625 C-131.02812744 151.35408569 -131.02812744 151.35408569 -130.03662109 152.09790039 C-120.00092928 159.63296638 -110.08390504 167.28050023 -100.4375 175.3125 C-99.90592285 175.75239258 -99.3743457 176.19228516 -98.82666016 176.64550781 C-76.51014845 195.13355553 -76.51014845 195.13355553 -74.9375 207.125 C-75.73831013 219.40408866 -82.35500234 230.77470362 -91.31640625 238.93359375 C-94.61759969 241.51587898 -97.98981296 243.93256 -101.4375 246.3125 C-102.75376729 247.24184439 -104.06883183 248.17289415 -105.3828125 249.10546875 C-107.49154712 250.59941557 -109.60217184 252.09028331 -111.71899414 253.57275391 C-117.16349122 257.38698468 -122.5320183 261.29504686 -127.875 265.25 C-136.27272642 271.46488076 -144.72472062 277.60007247 -153.20361328 283.70361328 C-156.19964805 285.86141318 -159.19270151 288.02332641 -162.18554688 290.18554688 C-164.43455308 291.81037096 -166.6840727 293.43448255 -168.93359375 295.05859375 C-171.94842519 297.23579023 -174.96124694 299.41572917 -177.97265625 301.59765625 C-186.26302505 307.60090372 -194.58053094 313.5612886 -202.95727539 319.44360352 C-203.61848389 319.90822998 -204.27969238 320.37285645 -204.9609375 320.8515625 C-205.825979 321.45798584 -205.825979 321.45798584 -206.70849609 322.07666016 C-208.50751489 323.31932634 -208.50751489 323.31932634 -210.30224609 324.94799805 C-213.05740548 326.70864129 -214.82717417 326.65734562 -218.078125 326.60546875 C-219.14804688 326.59580078 -220.21796875 326.58613281 -221.3203125 326.57617188 C-222.43148437 326.55103516 -223.54265625 326.52589844 -224.6875 326.5 C-225.81414062 326.48646484 -226.94078125 326.47292969 -228.1015625 326.45898438 C-230.88069264 326.42365645 -233.65885363 326.3743252 -236.4375 326.3125 C-232.29985976 321.88637887 -227.71417985 318.41870784 -222.8125 314.875 C-221.09892188 313.62374783 -219.38538124 312.37244435 -217.671875 311.12109375 C-216.79982422 310.48671387 -215.92777344 309.85233398 -215.02929688 309.19873047 C-200.68535014 298.75964489 -186.52358012 288.09634888 -172.4375 277.3125 C-158.39691241 266.56347873 -144.2633447 255.96181567 -129.99072266 245.52294922 C-125.19261115 242.01229778 -120.40377515 238.48986406 -115.6328125 234.94238281 C-114.20604648 233.8830979 -112.77650175 232.82754186 -111.34375 231.77636719 C-98.62874948 222.66238606 -98.62874948 222.66238606 -92.375 208.8125 C-92.13675854 202.85646358 -93.26571433 197.82169657 -97.22265625 193.25 C-102.07163116 188.74423747 -107.50551489 185.13901296 -113.046875 181.546875 C-116.83840298 179.07724606 -120.50690242 176.44336347 -124.1875 173.8125 C-131.1532109 168.85000008 -138.24148506 164.09240609 -145.375 159.375 C-152.83757458 154.43062405 -160.23780054 149.42268311 -167.5 144.1875 C-168.20697021 143.67968994 -168.91394043 143.17187988 -169.64233398 142.64868164 C-179.47825673 135.48803467 -189.98646877 126.93968766 -192.4375 114.3125 C-193.74813042 101.58300207 -190.34911073 93.02932532 -182.67578125 83.02734375 C-166.54141866 63.45774165 -142.99657529 51.11558826 -120.4375 40.3125 C-119.7146582 39.96413086 -118.99181641 39.61576172 -118.24707031 39.25683594 C-116.02157351 38.18630695 -113.79295342 37.12265991 -111.5625 36.0625 C-110.89734375 35.74522949 -110.2321875 35.42795898 -109.546875 35.10107422 C-105.10654993 33.01363879 -100.60507305 31.14396466 -96.04101562 29.34423828 C-93.44810977 28.31670451 -90.86999421 27.25807827 -88.29296875 26.19140625 C-75.42540539 20.9113787 -62.43780131 16.09320412 -49.3125 11.5 C-48.53498383 11.22777618 -47.75746765 10.95555237 -46.95639038 10.67507935 C-43.20133274 9.36283469 -39.44278969 8.06262497 -35.67700195 6.78149414 C-32.9489506 5.84976372 -30.25123869 4.86726471 -27.56323242 3.82592773 C-18.0577318 0.2939213 -9.97147356 -0.31297412 0 0 Z " fill="#FEF7F6" transform="translate(420.4375,19.6875)"/>
<path d="M0 0 C9.35107652 6.07638046 15.01930922 15.69229057 17.3828125 26.4921875 C19.55818114 42.26361012 18.83041773 59.57470602 9.69921875 73.19140625 C3.91566479 80.41750946 -2.89088258 84.67767285 -11.8046875 87.0546875 C-24.04571188 88.01476784 -35.80045464 87.55803048 -46.03125 80.0234375 C-53.78999098 73.2229474 -58.55457996 63.43448188 -59.9921875 53.3046875 C-60.25093839 49.09829025 -60.26881712 44.89326183 -60.3046875 40.6796875 C-60.33369141 39.56722656 -60.36269531 38.45476562 -60.39257812 37.30859375 C-60.4855301 25.02463328 -57.13486868 14.62963937 -48.9921875 5.3046875 C-36.05826058 -7.17211518 -15.60101371 -8.38172109 0 0 Z " fill="#020201" transform="translate(414.9921875,376.6953125)"/>
<path d="M0 0 C3.83433624 -0.42104717 5.50644053 -0.35954186 8.67578125 1.94921875 C26.25936349 20.21009453 38.62353869 43.94174488 39.046875 69.87109375 C39.03140625 70.57363281 39.0159375 71.27617187 39 72 C39.52207031 71.79503906 40.04414062 71.59007812 40.58203125 71.37890625 C50.98754915 67.57023157 60.53355862 66.92816251 71 71 C80.64645001 76.22286365 88.18772443 83.87809985 92.10546875 94.203125 C95.06124398 106.74903558 94.79137395 119.81494952 88.109375 131.02734375 C81.61571094 140.17859996 74.11288906 146.61635183 65 153 C65.33 154.2375 65.66 155.475 66 156.75 C67.9606038 165.86609213 68.10986086 173.67838831 63.4296875 181.94140625 C61.60801133 184.56442085 59.68391915 186.27953901 57 188 C56.319375 188.556875 55.63875 189.11375 54.9375 189.6875 C50.28668908 192.83804933 44.4047401 192.48400658 39 192 C36.16675616 191.21653064 33.69779527 190.19902012 31 189 C30.70609375 189.51046875 30.4121875 190.0209375 30.109375 190.546875 C24.3390282 199.89881636 15.64901435 209.59655196 6 215 C2.53239986 215.38321188 0.62437955 215.36052884 -2.421875 213.6015625 C-20.03707942 198.64637217 -20.03707942 198.64637217 -24 190 C-24 189.34 -24 188.68 -24 188 C-24.7425 188.474375 -25.485 188.94875 -26.25 189.4375 C-31.52018374 192.43192258 -37.0402272 192.76138067 -43 192 C-50.14198402 189.4517401 -55.44585461 184.73097384 -59.03125 178.08984375 C-62.62847351 169.71297603 -61.27280268 162.24044962 -58 154 C-58.88042969 153.26394531 -59.76085937 152.52789062 -60.66796875 151.76953125 C-61.84124844 150.78397631 -63.01441977 149.79829234 -64.1875 148.8125 C-64.76564453 148.32974609 -65.34378906 147.84699219 -65.93945312 147.34960938 C-75.23438112 139.52506547 -85.66930328 129.52030394 -87.27490234 116.82666016 C-88.2496597 103.57596699 -86.37577061 91.72199551 -78 81 C-73.7 77 -73.7 77 -71 77 C-71 76.34 -71 75.68 -71 75 C-69.3970947 74.18501438 -67.79262722 73.37310073 -66.1875 72.5625 C-65.29417969 72.11003906 -64.40085937 71.65757812 -63.48046875 71.19140625 C-58.84378524 68.96433779 -54.79888477 68.81681529 -49.75 68.8125 C-49.01136719 68.80025391 -48.27273438 68.78800781 -47.51171875 68.77539062 C-42.6290013 68.76247338 -38.63258643 69.44967676 -34 71 C-33.88519287 70.37246826 -33.77038574 69.74493652 -33.65209961 69.09838867 C-30.26129436 50.91194471 -26.447485 31.13242741 -15 16 C-14.34 16 -13.68 16 -13 16 C-12.773125 15.2575 -12.54625 14.515 -12.3125 13.75 C-10.74509959 10.46592295 -8.88172206 9.16129155 -6 7 C-5.34 6.01 -4.68 5.02 -4 4 C-3.34 4 -2.68 4 -2 4 C-2 3.34 -2 2.68 -2 2 C-1.34 2 -0.68 2 0 2 C0 1.34 0 0.68 0 0 Z M-4 13 C-18.74589651 30.50758503 -26.35085375 54.28255369 -26.0625 77.0625 C-26.05347656 78.00222656 -26.04445313 78.94195312 -26.03515625 79.91015625 C-26.02355469 80.59980469 -26.01195312 81.28945312 -26 82 C-27.44632813 81.47599609 -27.44632813 81.47599609 -28.921875 80.94140625 C-30.19788003 80.48166914 -31.47392374 80.02203937 -32.75 79.5625 C-33.38421875 79.33240234 -34.0184375 79.10230469 -34.671875 78.86523438 C-43.33097095 75.75337177 -51.7616591 74.5401345 -60.8125 77.0625 C-70.48536849 82.94208673 -76.07458239 90.44768356 -80 101 C-81.32976022 112.7522052 -79.80202827 122.13736746 -72.6875 131.6875 C-66.31427999 139.5303286 -66.31427999 139.5303286 -58 145 C-57.34644531 143.98679688 -57.34644531 143.98679688 -56.6796875 142.953125 C-50.23817319 133.3047962 -50.23817319 133.3047962 -45 131 C-39.06847418 130.07489964 -34.25630285 131.01112191 -29 134 C-26.25682041 136.81536852 -24.58090899 139.07886431 -24 143 C-25.32 143 -26.64 143 -28 143 C-28 144.32 -28 145.64 -28 147 C-26.68 147 -25.36 147 -24 147 C-24.81956172 150.87429175 -25.47599747 153.43108296 -28.1875 156.375 C-31.74071567 158.42796906 -33.87163554 159.1423574 -38 159 C-40.01184087 157.57441884 -41.64083268 156.04989728 -43.32421875 154.25 C-44.92898545 152.77062728 -44.92898545 152.77062728 -47.06640625 153.13671875 C-49.74035914 154.33054418 -50.91273783 156.15551329 -52.2265625 158.71484375 C-54.13181196 164.34398989 -54.25682429 170.27359747 -51.75390625 175.703125 C-49.44915588 179.26657943 -47.55561618 181.62958921 -44 184 C-34.35289708 185.92942058 -27.06900037 181.61758853 -19 177 C-18.979375 178.093125 -18.95875 179.18625 -18.9375 180.3125 C-17.68305703 189.92424544 -10.05055089 197.40123476 -3.625 204.1015625 C-0.2818484 206.5193775 1.88319763 207.02294762 6 207 C15.14025673 201.53732087 22.76732553 191.11636953 26 181 C26 179.68 26 178.36 26 177 C27.32451172 177.75796875 27.32451172 177.75796875 28.67578125 178.53125 C35.90638205 182.51091438 42.51447017 186.02238461 51 184 C55.19534508 181.8765364 58.26811418 178.32971455 60 174 C61.00908291 166.025442 59.45842493 158.6876374 55 152 C52.47562314 153.0818758 51.0225394 153.97435171 49.1875 156.0625 C46.1294615 158.77104838 44.05111538 159 40 159 C35.58498648 156.79249324 33.11327262 154.4613533 31 150 C31 149.34 31 148.68 31 148 C32.32 147.67 33.64 147.34 35 147 C34.505 144.525 34.505 144.525 34 142 C33.01 142 32.02 142 31 142 C33.31473613 137.18534884 35.21674686 134.05649035 40.08203125 131.66015625 C45.24464456 129.88320788 49.42659367 130.49504258 54.25 132.6875 C59.47819099 135.59318736 62.08567086 139.899924 65 145 C75.41002628 139.32180385 83.17099525 130.26196216 87 118.9375 C89.80078737 107.38425211 87.39431318 98.61992604 81.53125 88.453125 C77.09927775 81.97896946 71.45814131 78.33617901 64 76 C53.1868535 74.4112803 42.60042074 76.90121195 33 82 C33.02320313 81.29617187 33.04640625 80.59234375 33.0703125 79.8671875 C33.49305709 56.73701907 27.21028652 34.36679533 13 16 C11.9171875 14.5459375 11.9171875 14.5459375 10.8125 13.0625 C9.00004219 11.00004801 7.34121153 9.4349361 5 8 C0.82151832 8 -1.14419063 10.22119913 -4 13 Z " fill="#0E0703" transform="translate(586,73)"/>
<path d="M0 0 C11.570625 -0.0928125 11.570625 -0.0928125 23.375 -0.1875 C26.99734619 -0.22846802 26.99734619 -0.22846802 30.69287109 -0.27026367 C32.63638816 -0.27903677 34.57991081 -0.28667875 36.5234375 -0.29296875 C37.50868408 -0.30831665 38.49393066 -0.32366455 39.5090332 -0.33947754 C47.15560904 -0.34232578 55.05392214 0.48553131 61.375 5.1875 C67.58052513 11.83627692 68.58796606 17.69028485 68.47045898 26.70336914 C68.19185607 33.45447495 67.02063822 38.70736118 62.3515625 43.796875 C59.19373139 46.69270266 56.14753275 48.74317189 52 50 C53.03125 50.78375 54.0625 51.5675 55.125 52.375 C62.46150813 58.77243509 65.91354088 67.74829716 69.875 76.4375 C70.28089355 77.32646973 70.68678711 78.21543945 71.10498047 79.13134766 C71.48025879 79.97358887 71.85553711 80.81583008 72.2421875 81.68359375 C72.5810498 82.44212646 72.91991211 83.20065918 73.26904297 83.98217773 C74 86 74 86 74 89 C65.42 89 56.84 89 48 89 C46.845 86.69 45.69 84.38 44.5 82 C44.11312012 81.22769043 43.72624023 80.45538086 43.32763672 79.65966797 C41.45848785 75.92761561 39.59916021 72.19116761 37.7578125 68.4453125 C37.40009766 67.72085938 37.04238281 66.99640625 36.67382812 66.25 C35.98439299 64.85315562 35.29809805 63.45475615 34.61523438 62.0546875 C33.2753112 59.34732733 32.15161031 57.15161031 30 55 C28.02 54.67 26.04 54.34 24 54 C24 65.55 24 77.1 24 89 C16.08 89 8.16 89 0 89 C0 59.63 0 30.26 0 0 Z " fill="#040401" transform="translate(445,373)"/>
<path d="M0 0 C12.560625 -0.1546875 12.560625 -0.1546875 25.375 -0.3125 C27.99872559 -0.35802002 30.62245117 -0.40354004 33.32568359 -0.45043945 C35.43325527 -0.4650589 37.5408412 -0.47779611 39.6484375 -0.48828125 C40.72005127 -0.51386108 41.79166504 -0.53944092 42.89575195 -0.5657959 C50.19290309 -0.56997717 55.99190693 0.66910036 62 5 C68.25166384 12.57690159 68.74349237 20.56130383 68.21777344 30.03076172 C67.5919452 35.68987666 65.0714344 40.03737636 60.9921875 43.90234375 C58.04702028 46.21174609 55.56372697 47.81209101 52 49 C52.99 49.66 53.98 50.32 55 51 C60.47212226 55.68881444 63.04377625 62.40920533 65.99609375 68.82470703 C66.99819855 70.99609657 68.02642892 73.15323105 69.0625 75.30859375 C69.7092578 76.66362164 70.35512669 78.01907425 71 79.375 C71.45439453 80.32910767 71.45439453 80.32910767 71.91796875 81.30249023 C74 85.76529489 74 85.76529489 74 88 C65.09 88 56.18 88 47 88 C46.19175781 86.2159375 45.38351562 84.431875 44.55078125 82.59375 C43.75015568 80.83933571 42.94948809 79.08494031 42.14770508 77.33105469 C41.32963412 75.53756385 40.51729335 73.74146281 39.70507812 71.9453125 C38.17736927 68.60872137 36.60981483 65.29770022 35 62 C34.58282715 61.1440625 34.1656543 60.288125 33.73583984 59.40625 C33.34219238 58.684375 32.94854492 57.9625 32.54296875 57.21875 C32.21707764 56.60966797 31.89118652 56.00058594 31.55541992 55.37304688 C29.45879799 53.26897655 29.45879799 53.26897655 23 53 C23 64.55 23 76.1 23 88 C15.41 88 7.82 88 0 88 C0 58.96 0 29.92 0 0 Z " fill="#010100" transform="translate(603,374)"/>
<path d="M0 0 C20.46 0 40.92 0 62 0 C62 6.6 62 13.2 62 20 C49.13 20 36.26 20 23 20 C23 24.62 23 29.24 23 34 C34.88 34 46.76 34 59 34 C59 39.94 59 45.88 59 52 C47.12 52 35.24 52 23 52 C23 57.61 23 63.22 23 69 C36.2 69 49.4 69 63 69 C63 75.6 63 82.2 63 89 C42.21 89 21.42 89 0 89 C0 59.63 0 30.26 0 0 Z " fill="#030301" transform="translate(56,373)"/>
<path d="M0 0 C20.46 0 40.92 0 62 0 C62 6.27 62 12.54 62 19 C49.13 19 36.26 19 23 19 C23 23.62 23 28.24 23 33 C34.88 33 46.76 33 59 33 C59 38.94 59 44.88 59 51 C47.12 51 35.24 51 23 51 C23 56.61 23 62.22 23 68 C36.2 68 49.4 68 63 68 C63 74.6 63 81.2 63 88 C42.21 88 21.42 88 0 88 C0 58.96 0 29.92 0 0 Z " fill="#010100" transform="translate(527,374)"/>
<path d="M0 0 C8.58 0 17.16 0 26 0 C30.29 8.58 34.58 17.16 39 26 C40.8253125 22.349375 40.8253125 22.349375 42.6875 18.625 C45.79166667 12.41666667 48.89583333 6.20833333 52 0 C60.25 0 68.5 0 77 0 C75.46129402 4.61611793 73.94206941 8.24678281 71.6640625 12.46484375 C71.34343842 13.06124161 71.02281433 13.65763947 70.69247437 14.27210999 C69.67440314 16.16299696 68.64972721 18.0502135 67.625 19.9375 C66.94489675 21.19964585 66.26520569 22.46201391 65.5859375 23.72460938 C64.92451879 24.95054221 64.26306119 26.17645407 63.6015625 27.40234375 C62.97668945 28.56233887 62.35181641 29.72233398 61.70800781 30.91748047 C60.36333576 33.3442714 58.9534132 35.66894535 57.4609375 38.00390625 C55.61516318 41.78922417 55.64555043 43.01918048 57 47 C58.66164795 50.50512221 60.52954309 53.87384269 62.4375 57.25 C62.97084961 58.21131836 63.50419922 59.17263672 64.05371094 60.16308594 C65.69313884 63.11405617 67.34460806 66.05795974 69 69 C70.47444779 71.6237251 71.94831007 74.24774917 73.41821289 76.87402344 C74.29152247 78.43205255 75.16946162 79.98749766 76.05249023 81.54003906 C79 86.77870339 79 86.77870339 79 89 C70.42 89 61.84 89 53 89 C52.08476562 87.20691406 51.16953125 85.41382813 50.2265625 83.56640625 C49.33668386 81.8353142 48.44676422 80.10424288 47.55566406 78.3737793 C46.93669608 77.1691299 46.31982215 75.96340218 45.70507812 74.7565918 C44.8219033 73.02371733 43.93059785 71.29499423 43.0390625 69.56640625 C42.50490723 68.52427979 41.97075195 67.48215332 41.42041016 66.40844727 C40.22749902 63.88739953 40.22749902 63.88739953 38 63 C37.41714233 64.1281311 37.41714233 64.1281311 36.82250977 65.27905273 C35.38342724 68.0622267 33.94265987 70.84451974 32.50073242 73.6262207 C31.876354 74.83159762 31.25265346 76.03732592 30.62963867 77.2434082 C29.7353349 78.97438758 28.83840998 80.70401197 27.94140625 82.43359375 C27.40201416 83.47572021 26.86262207 84.51784668 26.30688477 85.59155273 C25 88 25 88 24 89 C22.07332493 89.08748207 20.14348139 89.10697334 18.21484375 89.09765625 C16.46010742 89.09282227 16.46010742 89.09282227 14.66992188 89.08789062 C12.82237305 89.07532227 12.82237305 89.07532227 10.9375 89.0625 C9.08415039 89.05573242 9.08415039 89.05573242 7.19335938 89.04882812 C4.12885883 89.03699608 1.06445279 89.02051173 -2 89 C3.22742372 78.14705132 9.04669854 67.68664908 15.01171875 57.22265625 C15.5226709 56.31918457 16.03362305 55.41571289 16.56005859 54.48486328 C17.44514282 52.95750023 18.35900281 51.44587829 19.31884766 49.96435547 C21.07896783 47.21053382 22.03594516 45.52742698 21.81030273 42.21655273 C20.8796474 38.52225205 19.43726906 35.6767339 17.578125 32.3515625 C17.2362616 31.73534027 16.89439819 31.11911804 16.54217529 30.48422241 C15.45302227 28.52641614 14.35152827 26.57586453 13.25 24.625 C12.5252733 23.32334418 11.80130803 22.0212641 11.078125 20.71875 C8.15709868 15.47853612 5.2203818 10.26577182 1.984375 5.2109375 C0 2 0 2 0 0 Z " fill="#030301" transform="translate(126,373)"/>
<path d="M0 0 C7.610625 -0.061875 15.22125 -0.12375 23.0625 -0.1875 C25.45250244 -0.21481201 27.84250488 -0.24212402 30.30493164 -0.27026367 C32.21500138 -0.27903162 34.12507676 -0.28667483 36.03515625 -0.29296875 C37.01415894 -0.30831665 37.99316162 -0.32366455 39.00183105 -0.33947754 C46.12968461 -0.34218809 50.60662879 0.86927854 56.6875 4.6875 C62.3742204 10.3742204 64.14813273 17.3376656 64.1875 25.1875 C64.1470676 34.35909765 62.91161005 41.69169087 57 49 C51.81538164 53.10448954 47.10734521 55.26935581 40.48046875 55.1953125 C39.55903076 55.19031738 38.63759277 55.18532227 37.68823242 55.18017578 C36.53299072 55.16196777 35.37774902 55.14375977 34.1875 55.125 C30.495625 55.08375 26.80375 55.0425 23 55 C23 65.89 23 76.78 23 88 C15.41 88 7.82 88 0 88 C0 58.96 0 29.92 0 0 Z " fill="#010100" transform="translate(213,374)"/>
<path d="M0 0 C7.92 0 15.84 0 24 0 C24 22.11 24 44.22 24 67 C35.88 67 47.76 67 60 67 C60 74.26 60 81.52 60 89 C40.2 89 20.4 89 0 89 C0 59.63 0 30.26 0 0 Z " fill="#050501" transform="translate(289,373)"/>
<path d="M0 0 C4.8605071 2.38439971 7.36323298 5.31241418 10 10 C12.86542648 19.24064634 12.3820295 33.14812824 9.05859375 42.1484375 C6.90500584 45.91522964 3.86203988 48.06898006 0 50 C-4.67470792 50.57031437 -8.12316498 50.43841751 -12.375 48.3125 C-17.39218817 43.89259614 -19.54951356 38.55814205 -20.20849609 31.89038086 C-20.3034758 29.63122076 -20.32871357 27.38607819 -20.3125 25.125 C-20.30831055 24.3306958 -20.30412109 23.5363916 -20.29980469 22.71801758 C-20.14411217 14.65099216 -18.91047993 7.91047993 -13 2 C-8.74705139 -0.53386202 -4.8374906 -0.67304217 0 0 Z " fill="#FBF958" transform="translate(398,393)"/>
<path d="M0 0 C2.701875 -0.103125 5.40375 -0.20625 8.1875 -0.3125 C9.02949951 -0.35802002 9.87149902 -0.40354004 10.73901367 -0.45043945 C14.95914154 -0.52819053 16.55181701 -0.3465871 20.015625 2.33203125 C22 5 22 5 22.5625 8 C21.87642343 11.65907504 20.57265686 13.35167676 18 16 C14.81453711 17.59273144 11.36800652 17.10141833 7.875 17.0625 C5.27625 17.041875 2.6775 17.02125 0 17 C0 11.39 0 5.78 0 0 Z " fill="#F4F356" transform="translate(626,392)"/>
<path d="M0 0 C2.7225 -0.0825 5.445 -0.165 8.25 -0.25 C9.10110352 -0.28641602 9.95220703 -0.32283203 10.82910156 -0.36035156 C14.54316701 -0.41489255 16.42385764 -0.41178547 19.51953125 1.80078125 C21.6804368 5.01078078 21.46524728 7.21155789 21 11 C19.75 13.875 19.75 13.875 18 16 C12.52731945 18.07806974 5.69037777 17.05268868 0 17 C0 11.39 0 5.78 0 0 Z " fill="#FBF958" transform="translate(469,392)"/>
<path d="M0 0 C11.99650452 -0.60588407 11.99650452 -0.60588407 16.3125 2 C18.47132744 5.83791546 18.96541165 8.69478588 18 13 C16.20636089 15.8100346 14.98119065 17.50940468 12 19 C9.95944995 19.07065617 7.91665743 19.08421976 5.875 19.0625 C2.966875 19.0315625 2.966875 19.0315625 0 19 C0 12.73 0 6.46 0 0 Z " fill="#F4F355" transform="translate(236,392)"/>
<path d="M0 0 C4.35820909 0.10319985 6.91073093 1.52440445 10.25 4.375 C10.58 5.365 10.91 6.355 11.25 7.375 C10.5075 7.024375 9.765 6.67375 9 6.3125 C6.1177274 5.32990707 5.03823655 5.3423198 2.25 6.375 C2.311875 7.303125 2.37375 8.23125 2.4375 9.1875 C2.25 12.375 2.25 12.375 1.0625 14.25 C-1.31036279 15.72281139 -3.00913944 15.59723194 -5.75 15.375 C-5.66621094 14.77171875 -5.58242188 14.1684375 -5.49609375 13.546875 C-5.39425781 12.74765625 -5.29242187 11.9484375 -5.1875 11.125 C-5.08308594 10.33609375 -4.97867188 9.5471875 -4.87109375 8.734375 C-4.62628837 6.37969445 -4.62628837 6.37969445 -5.34765625 4.203125 C-5.48042969 3.59984375 -5.61320313 2.9965625 -5.75 2.375 C-3.75 0.375 -3.75 0.375 0 0 Z " fill="#F9F857" transform="translate(630.75,209.625)"/>
<path d="M0 0 C2.38376485 3.645758 1.69282842 5.84302947 1 10 C1.82342532 12.31980946 1.82342532 12.31980946 3 14 C2 15 2 15 -1.0625 15.0625 C-2.031875 15.041875 -3.00125 15.02125 -4 15 C-4.66 11.7 -5.32 8.4 -6 5 C-7.98 5 -9.96 5 -12 5 C-12.33 5.99 -12.66 6.98 -13 8 C-13.66 8 -14.32 8 -15 8 C-14.09126425 4.94334338 -13.32469175 3.27694297 -10.875 1.1875 C-7.02507023 -0.40268838 -4.14686216 -0.2108574 0 0 Z " fill="#F5F355" transform="translate(551,210)"/>
<path d="M0 0 C1.98 0 3.96 0 6 0 C5.40670898 0.26731934 4.81341797 0.53463867 4.20214844 0.81005859 C1.97066755 2.01584993 0.5335201 3.2358095 -1.234375 5.0390625 C-1.80800781 5.61914062 -2.38164063 6.19921875 -2.97265625 6.796875 C-3.85244141 7.70179687 -3.85244141 7.70179687 -4.75 8.625 C-5.35199219 9.23601562 -5.95398438 9.84703125 -6.57421875 10.4765625 C-8.05405305 11.97988624 -9.52764676 13.48934856 -11 15 C-11.66 14.67 -12.32 14.34 -13 14 C-12.2575 13.278125 -11.515 12.55625 -10.75 11.8125 C-7.98732731 9.09288953 -7.98732731 9.09288953 -5.8125 6.1875 C-5.214375 5.465625 -4.61625 4.74375 -4 4 C-3.34 4 -2.68 4 -2 4 C-2 3.34 -2 2.68 -2 2 C-1.34 2 -0.68 2 0 2 C0 1.34 0 0.68 0 0 Z " fill="#302F10" transform="translate(586,73)"/>
<path d="M0 0 C0.99 0.33 1.98 0.66 3 1 C-1.26041226 4.76354036 -5.51848911 8.49881962 -10 12 C-7.87880087 6.98625661 -4.506805 3.00453667 0 0 Z " fill="#DA0000" transform="translate(588,81)"/>
</svg>
