<?xml version="1.0" encoding="UTF-8"?>
<svg version="1.1" xmlns="http://www.w3.org/2000/svg" width="733" height="500">
<path d="M0 0 C241.89 0 483.78 0 733 0 C733 165 733 330 733 500 C491.11 500 249.22 500 0 500 C0 335 0 170 0 0 Z " fill="#FD0303" transform="translate(0,0)"/>
<path d="M0 0 C1.88474806 0.00215191 3.76950173 0.00119705 5.65424728 -0.0025568 C10.63432583 -0.00411654 15.61319127 0.0360091 20.59298706 0.08571625 C25.2913533 0.12602544 29.98944662 0.12748175 34.68798828 0.13244629 C48.36604181 0.16896057 62.04387674 0.26668944 75.72167969 0.35717773 C106.32917969 0.50155273 136.93667969 0.64592773 168.47167969 0.79467773 C168.47167969 108.04467773 168.47167969 215.29467773 168.47167969 325.79467773 C62.87167969 325.79467773 -42.72832031 325.79467773 -151.52832031 325.79467773 C-144.77321827 316.78787501 -144.77321827 316.78787501 -142.26660156 313.75170898 C-141.71061279 313.0770459 -141.15462402 312.40238281 -140.58178711 311.70727539 C-140.00726807 311.01424316 -139.43274902 310.32121094 -138.84082031 309.60717773 C-138.23214111 308.87031738 -137.62346191 308.13345703 -136.99633789 307.37426758 C-132.82033837 302.32810883 -128.60472528 297.31688831 -124.36157227 292.32714844 C-120.79837218 288.13201188 -117.31528146 283.87580143 -113.84082031 279.60717773 C-110.80464666 275.9145341 -107.70982061 272.27345985 -104.61425781 268.63061523 C-100.96551246 264.32958021 -97.39187304 259.97121676 -93.83300781 255.59545898 C-91.30798686 252.52691657 -88.733353 249.50438513 -86.15332031 246.48217773 C-81.25820248 240.7376511 -76.57194618 234.84512112 -71.93847656 228.88842773 C-70.4777905 227.01344659 -68.9909455 225.15793928 -67.45800781 223.34155273 C-58.4299232 211.42594308 -51.3466456 193.65256194 -52.11035156 178.56420898 C-53.91944368 166.57686027 -60.03422746 156.92831556 -69.64160156 149.70483398 C-82.2405241 141.36806386 -96.26623312 137.00563472 -110.84082031 133.54467773 C-135.35750226 127.6887671 -170.99156003 118.50193232 -186.09082031 96.48217773 C-188.07381161 91.39537396 -188.61451466 87.17247914 -187.52832031 81.79467773 C-179.75397466 65.66620472 -156.56932892 56.56789933 -141.27832031 49.23217773 C-140.58778564 48.89758545 -139.89725098 48.56299316 -139.18579102 48.21826172 C-135.30912578 46.4074353 -131.78228029 45.27688127 -127.52832031 44.79467773 C-127.52832031 44.13467773 -127.52832031 43.47467773 -127.52832031 42.79467773 C-105.98578695 33.35716857 -84.31644703 24.39141384 -62.27832031 16.16967773 C-61.28654785 15.79917297 -60.29477539 15.42866821 -59.27294922 15.04693604 C-56.3751719 13.96663802 -53.47573674 12.89096814 -50.57519531 11.81811523 C-49.75533142 11.51444031 -48.93546753 11.21076538 -48.09075928 10.89788818 C-46.38563407 10.27145751 -44.67658225 9.65562953 -42.96410751 9.04957867 C-40.36833056 8.1014865 -37.81248384 7.10917649 -35.24982452 6.07874393 C-23.20374732 1.37552561 -12.85681976 -0.1962881 0 0 Z " fill="#FEFB59" transform="translate(531.5283203125,19.205322265625)"/>
<path d="M0 0 C135.3 0 270.6 0 410 0 C406.69559206 2.20293863 403.45312254 3.24411177 399.703125 4.3984375 C398.18523485 4.87680528 396.66750065 5.3556681 395.14990234 5.83496094 C394.35042175 6.08596558 393.55094116 6.33697021 392.72723389 6.59558105 C377.72868878 11.31461476 362.99987929 16.47618587 348.41113281 22.34130859 C347.21069336 22.82164551 346.01025391 23.30198242 344.7734375 23.796875 C343.72591309 24.22323242 342.67838867 24.64958984 341.59912109 25.08886719 C339 26 339 26 336 26 C336 26.66 336 27.32 336 28 C331.63593778 29.76335697 327.27455698 31.52541403 322.86328125 33.16796875 C316.58697995 35.50738624 310.60499677 38.08996881 304.65234375 41.15625 C300.84945447 43.10094662 296.98620537 44.91300341 293.12402344 46.73632812 C252.82196812 64.07509063 252.82196812 64.07509063 223.83984375 95.37890625 C221.64599787 102.22574619 222.00488357 109.81506508 225.0625 116.3125 C229.58811005 124.79992357 236.77512179 130.71503066 244.4375 136.25 C246.21880757 137.5611197 248.00005683 138.87231863 249.78125 140.18359375 C250.66167969 140.8266748 251.54210937 141.46975586 252.44921875 142.13232422 C256.13377707 144.83014879 259.78714528 147.56866652 263.4375 150.3125 C264.08541504 150.79855713 264.73333008 151.28461426 265.40087891 151.78540039 C275.43657072 159.32046638 285.35359496 166.96800023 295 175 C295.53157715 175.43989258 296.0631543 175.87978516 296.61083984 176.33300781 C318.92735155 194.82105553 318.92735155 194.82105553 320.5 206.8125 C319.69918987 219.09158866 313.08249766 230.46220362 304.12109375 238.62109375 C300.81990031 241.20337898 297.44768704 243.62006 294 246 C292.68373271 246.92934439 291.36866817 247.86039415 290.0546875 248.79296875 C287.94595288 250.28691557 285.83532816 251.77778331 283.71850586 253.26025391 C278.27400878 257.07448468 272.9054817 260.98254686 267.5625 264.9375 C259.16477358 271.15238076 250.71277938 277.28757247 242.23388672 283.39111328 C239.23785195 285.54891318 236.24479849 287.71082641 233.25195312 289.87304688 C231.00294692 291.49787096 228.7534273 293.12198255 226.50390625 294.74609375 C223.48907481 296.92329023 220.47625306 299.10322917 217.46484375 301.28515625 C184.29735108 325.30348795 184.29735108 325.30348795 176.65388489 325.24050903 C175.52570847 325.24307709 175.52570847 325.24307709 174.3747406 325.24569702 C171.83933116 325.24901497 169.30418424 325.23794823 166.76879883 325.22705078 C164.92616885 325.22643831 163.08353839 325.22670475 161.24090862 325.2277813 C156.29756704 325.22823361 151.3543219 325.21662527 146.41100311 325.20256042 C141.77574859 325.19118727 137.14051775 325.1906351 132.50524902 325.18920898 C118.94098653 325.17870604 105.37674205 325.15078385 91.8125 325.125 C61.514375 325.08375 31.21625 325.0425 0 325 C0 217.75 0 110.5 0 0 Z " fill="#FEFB59" transform="translate(25,20)"/>
<path d="M0 0 C222.75 0 445.5 0 675 0 C675 38.28 675 76.56 675 116 C452.25 116 229.5 116 0 116 C0 77.72 0 39.44 0 0 Z " fill="#FBF757" transform="translate(25,360)"/>
<path d="M0 0 C1.46413078 -0.00043808 1.46413078 -0.00043808 2.95783997 -0.00088501 C6.17730667 0.00050596 9.39654063 0.0160564 12.6159668 0.03173828 C14.85084405 0.03546923 17.08572294 0.03831582 19.32060242 0.04031372 C25.19785085 0.04794368 31.07500016 0.0675868 36.95220947 0.08972168 C42.95144307 0.11019377 48.9506927 0.11931836 54.94995117 0.12939453 C66.7175728 0.15083321 78.48512093 0.18496156 90.25268555 0.22705078 C86.9482776 2.42998941 83.70580809 3.47116255 79.95581055 4.62548828 C78.4379204 5.10385606 76.92018619 5.58271888 75.40258789 6.06201172 C74.6031073 6.31301636 73.80362671 6.564021 72.97991943 6.82263184 C57.98137432 11.54166554 43.25256484 16.70323665 28.66381836 22.56835938 C27.46337891 23.04869629 26.26293945 23.5290332 25.02612305 24.02392578 C23.97859863 24.4502832 22.93107422 24.87664063 21.85180664 25.31591797 C19.25268555 26.22705078 19.25268555 26.22705078 16.25268555 26.22705078 C16.25268555 26.88705078 16.25268555 27.54705078 16.25268555 28.22705078 C11.88862332 29.99040775 7.52724253 31.75246481 3.1159668 33.39501953 C-3.1603345 35.73443702 -9.14231769 38.3170196 -15.0949707 41.38330078 C-18.89785999 43.3279974 -22.76110909 45.1400542 -26.62329102 46.96337891 C-66.92534633 64.30214141 -66.92534633 64.30214141 -95.9074707 95.60595703 C-98.10131659 102.45279697 -97.74243089 110.04211586 -94.68481445 116.53955078 C-90.1592044 125.02697435 -82.97219267 130.94208144 -75.30981445 136.47705078 C-73.52850688 137.78817048 -71.74725762 139.09936941 -69.96606445 140.41064453 C-69.08563477 141.05372559 -68.20520508 141.69680664 -67.2980957 142.359375 C-63.61353739 145.05719957 -59.96016917 147.7957173 -56.30981445 150.53955078 C-55.33794189 151.26863647 -55.33794189 151.26863647 -54.34643555 152.01245117 C-44.31074373 159.54751716 -34.3937195 167.19505101 -24.74731445 175.22705078 C-24.2157373 175.66694336 -23.68416016 176.10683594 -23.13647461 176.56005859 C-0.81996291 195.04810631 -0.81996291 195.04810631 0.75268555 207.03955078 C-0.04812458 219.31863945 -6.66481679 230.6892544 -15.6262207 238.84814453 C-18.92741414 241.43042976 -22.29962741 243.84711078 -25.74731445 246.22705078 C-27.06358174 247.15639517 -28.37864629 248.08744493 -29.69262695 249.02001953 C-31.80136158 250.51396635 -33.91198629 252.00483409 -36.02880859 253.48730469 C-41.47330567 257.30153546 -46.84183275 261.20959764 -52.18481445 265.16455078 C-60.58254087 271.37943154 -69.03453507 277.51462325 -77.51342773 283.61816406 C-80.5094625 285.77596396 -83.50251596 287.9378772 -86.49536133 290.10009766 C-88.74436754 291.72492174 -90.99388715 293.34903333 -93.2434082 294.97314453 C-96.25823964 297.15034101 -99.2710614 299.33027995 -102.2824707 301.51220703 C-135.3776252 325.47815484 -135.3776252 325.47815484 -142.52397156 325.46755981 C-143.21665518 325.46926866 -143.9093388 325.47097751 -144.62301284 325.47273815 C-146.94930055 325.47603832 -149.27530126 325.46502085 -151.6015625 325.45410156 C-153.26700839 325.45353756 -154.93245479 325.45385379 -156.59790039 325.45498657 C-161.12448125 325.45556152 -165.65095659 325.44378424 -170.17751288 325.42983866 C-174.90608167 325.41735496 -179.63465275 325.41616267 -184.36323547 325.41378784 C-193.31985708 325.40756612 -202.27643 325.39114595 -211.23303014 325.37108886 C-221.42878765 325.34875138 -231.62454747 325.33774185 -241.82032335 325.32769799 C-262.79601425 325.30678032 -283.77166129 325.2715909 -304.74731445 325.22705078 C-302.24679993 322.58290122 -300.1704048 321.39589743 -296.74731445 320.10205078 C-295.88106445 319.76947266 -295.01481445 319.43689453 -294.12231445 319.09423828 C-292.34067155 318.4437042 -290.54667584 317.82683791 -288.74731445 317.22705078 C-288.74731445 316.56705078 -288.74731445 315.90705078 -288.74731445 315.22705078 C-281.56649166 311.17604565 -274.70532123 307.52003579 -266.74731445 305.22705078 C-266.74731445 304.56705078 -266.74731445 303.90705078 -266.74731445 303.22705078 C-264.39759832 301.92669307 -262.04307108 300.63675609 -259.68481445 299.35205078 C-258.69964844 298.80484375 -258.69964844 298.80484375 -257.69458008 298.24658203 C-253.44081485 295.94158609 -249.44664755 294.38813438 -244.74731445 293.22705078 C-244.74731445 292.56705078 -244.74731445 291.90705078 -244.74731445 291.22705078 C-239.4718591 287.27321263 -233.82363818 284.60880753 -227.4621582 282.96533203 C-226.89625977 282.72169922 -226.33036133 282.47806641 -225.74731445 282.22705078 C-225.41731445 281.23705078 -225.08731445 280.24705078 -224.74731445 279.22705078 C-222.76731445 278.89705078 -220.78731445 278.56705078 -218.74731445 278.22705078 C-218.41731445 277.23705078 -218.08731445 276.24705078 -217.74731445 275.22705078 C-215.92700195 274.19970703 -215.92700195 274.19970703 -213.62231445 273.28955078 C-210.54600647 272.01879517 -207.6698025 270.68100155 -204.80981445 268.97705078 C-201.74731445 267.22705078 -201.74731445 267.22705078 -199.74731445 267.22705078 C-199.74731445 266.56705078 -199.74731445 265.90705078 -199.74731445 265.22705078 C-198.35202316 264.60084162 -196.95605325 263.97614447 -195.55981445 263.35205078 C-194.74125977 262.98466797 -193.92270508 262.61728516 -193.0793457 262.23876953 C-191.32980517 261.47975613 -189.54498969 260.80122743 -187.74731445 260.16455078 C-186.75731445 259.70048828 -186.75731445 259.70048828 -185.74731445 259.22705078 C-185.41731445 258.23705078 -185.08731445 257.24705078 -184.74731445 256.22705078 C-182.49406042 255.31428447 -180.23021456 254.76923556 -177.8762207 254.16845703 C-175.15537853 252.96529563 -175.02283905 251.84548618 -173.74731445 249.22705078 C-171.48950195 247.47314453 -171.48950195 247.47314453 -168.62231445 245.66455078 C-167.55754883 244.97876953 -166.4927832 244.29298828 -165.39575195 243.58642578 C-164.8140625 243.21324219 -164.23237305 242.84005859 -163.63305664 242.45556641 C-160.12800029 240.1721066 -156.69103966 237.78905803 -153.24731445 235.41455078 C-152.22420166 234.7125354 -152.22420166 234.7125354 -151.18041992 233.99633789 C-150.53218262 233.55040283 -149.88394531 233.10446777 -149.21606445 232.64501953 C-148.60762695 232.22655762 -147.99918945 231.8080957 -147.37231445 231.37695312 C-146.03642119 230.43163202 -144.74419613 229.42489966 -143.46606445 228.40283203 C-141.74731445 227.22705078 -141.74731445 227.22705078 -138.74731445 227.22705078 C-138.74731445 226.56705078 -138.74731445 225.90705078 -138.74731445 225.22705078 C-137.2512207 224.00830078 -137.2512207 224.00830078 -135.30981445 222.72705078 C-132.52199599 220.94051448 -132.52199599 220.94051448 -130.74731445 218.22705078 C-130.1200811 212.16379508 -131.00282879 208.95297212 -134.3605957 203.89111328 C-135.83163006 201.96566547 -135.83163006 201.96566547 -138.74731445 200.22705078 C-138.74731445 199.56705078 -138.74731445 198.90705078 -138.74731445 198.22705078 C-139.34672852 197.96537109 -139.94614258 197.70369141 -140.5637207 197.43408203 C-142.89603028 196.14484472 -144.02102191 194.97553518 -145.68481445 192.91455078 C-149.10689805 188.86620352 -152.75318074 185.09929467 -156.49731445 181.35205078 C-157.06442139 180.78059326 -157.63152832 180.20913574 -158.21582031 179.62036133 C-160.62886342 177.21521689 -162.90401994 175.12258045 -165.74731445 173.22705078 C-166.74731445 171.56038411 -167.74731445 169.89371745 -168.74731445 168.22705078 C-169.73731445 167.56705078 -170.72731445 166.90705078 -171.74731445 166.22705078 C-172.20106445 165.29892578 -172.65481445 164.37080078 -173.12231445 163.41455078 C-174.57991546 160.14997776 -174.57991546 160.14997776 -177.12231445 157.85205078 C-182.34113921 152.63322602 -185.22997688 146.56478469 -187.7668457 139.69970703 C-188.67011403 137.25571747 -188.67011403 137.25571747 -189.8840332 135.22314453 C-194.457676 127.02268323 -194.0647489 116.21397183 -192.0871582 107.22705078 C-191.16183818 104.72748501 -190.08037169 102.53426523 -188.74731445 100.22705078 C-188.24973633 99.33888672 -187.7521582 98.45072266 -187.23950195 97.53564453 C-182.1964812 89.10324471 -176.32574047 81.20340584 -167.74731445 76.22705078 C-167.27293945 75.56705078 -166.79856445 74.90705078 -166.30981445 74.22705078 C-164.22763357 71.56185926 -161.75484139 70.69881928 -158.74731445 69.22705078 C-157.75731445 67.74205078 -157.75731445 67.74205078 -156.74731445 66.22705078 C-155.75731445 66.22705078 -154.76731445 66.22705078 -153.74731445 66.22705078 C-153.41731445 65.23705078 -153.08731445 64.24705078 -152.74731445 63.22705078 C-150.56762695 61.87548828 -150.56762695 61.87548828 -147.87231445 60.60205078 C-146.98801758 60.17666016 -146.1037207 59.75126953 -145.19262695 59.31298828 C-142.74731445 58.22705078 -142.74731445 58.22705078 -139.74731445 57.22705078 C-139.41731445 56.23705078 -139.08731445 55.24705078 -138.74731445 54.22705078 C-135.36863798 51.76153011 -134.04173243 51.22705078 -129.74731445 51.22705078 C-129.41731445 50.23705078 -129.08731445 49.24705078 -128.74731445 48.22705078 C-126.52124023 47.07983398 -126.52124023 47.07983398 -123.56762695 45.96533203 C-115.76589136 42.88277961 -108.29960269 39.20443384 -100.7746582 35.5065918 C-98.99366821 34.6328763 -97.21037216 33.76386637 -95.42700195 32.89501953 C-94.3827002 32.38221436 -93.33839844 31.86940918 -92.26245117 31.34106445 C-89.74731445 30.22705078 -89.74731445 30.22705078 -87.74731445 30.22705078 C-87.74731445 29.56705078 -87.74731445 28.90705078 -87.74731445 28.22705078 C-75.26212083 22.67124213 -75.26212083 22.67124213 -68.74731445 22.22705078 C-68.74731445 21.56705078 -68.74731445 20.90705078 -68.74731445 20.22705078 C-58.37373814 15.63479566 -58.37373814 15.63479566 -52.74731445 16.22705078 C-52.74731445 15.56705078 -52.74731445 14.90705078 -52.74731445 14.22705078 C-47.30231445 13.23705078 -47.30231445 13.23705078 -41.74731445 12.22705078 C-41.74731445 11.56705078 -41.74731445 10.90705078 -41.74731445 10.22705078 C-36.64397428 8.32180378 -32.28388739 6.80116056 -26.74731445 7.22705078 C-26.74731445 6.56705078 -26.74731445 5.90705078 -26.74731445 5.22705078 C-25.53495117 4.93701172 -25.53495117 4.93701172 -24.2980957 4.64111328 C-23.22946289 4.38072266 -22.16083008 4.12033203 -21.05981445 3.85205078 C-20.00407227 3.59681641 -18.94833008 3.34158203 -17.8605957 3.07861328 C-14.85424452 2.36449925 -14.85424452 2.36449925 -12.66194153 1.1880188 C-8.43482787 -0.20568301 -4.42258344 -0.0346755 0 0 Z " fill="#FEFC85" transform="translate(344.747314453125,19.77294921875)"/>
<path d="M0 0 C241.89 0 483.78 0 733 0 C733 165 733 330 733 500 C491.11 500 249.22 500 0 500 C0 335 0 170 0 0 Z M10 7 C10 166.72 10 326.44 10 491 C243.64 491 477.28 491 718 491 C718 331.28 718 171.56 718 7 C484.36 7 250.72 7 10 7 Z " fill="#FEFEFE" transform="translate(0,0)"/>
<path d="M0 0 C3.83433624 -0.42104717 5.50644053 -0.35954186 8.67578125 1.94921875 C26.25936349 20.21009453 38.62353869 43.94174488 39.046875 69.87109375 C39.03140625 70.57363281 39.0159375 71.27617187 39 72 C39.52207031 71.79503906 40.04414062 71.59007812 40.58203125 71.37890625 C50.98754915 67.57023157 60.53355862 66.92816251 71 71 C80.64645001 76.22286365 88.18772443 83.87809985 92.10546875 94.203125 C95.06124398 106.74903558 94.79137395 119.81494952 88.109375 131.02734375 C81.61571094 140.17859996 74.11288906 146.61635183 65 153 C65.33 154.2375 65.66 155.475 66 156.75 C67.9606038 165.86609213 68.10986086 173.67838831 63.4296875 181.94140625 C61.60801133 184.56442085 59.68391915 186.27953901 57 188 C56.319375 188.556875 55.63875 189.11375 54.9375 189.6875 C50.53136934 192.67229819 45.13488428 192.4890366 40 192 C36.91434131 191.19828807 33.96162614 190.17624868 31 189 C30.70609375 189.51046875 30.4121875 190.0209375 30.109375 190.546875 C24.3390282 199.89881636 15.64901435 209.59655196 6 215 C2.53239986 215.38321188 0.62437955 215.36052884 -2.421875 213.6015625 C-19.77991581 198.86470235 -19.77991581 198.86470235 -24 191 C-24 190.01 -24 189.02 -24 188 C-24.7425 188.474375 -25.485 188.94875 -26.25 189.4375 C-31.52018374 192.43192258 -37.0402272 192.76138067 -43 192 C-50.14198402 189.4517401 -55.44585461 184.73097384 -59.03125 178.08984375 C-62.62847351 169.71297603 -61.27280268 162.24044962 -58 154 C-59.08667969 153.11248047 -59.08667969 153.11248047 -60.1953125 152.20703125 C-62.19319916 150.57409189 -64.18786186 148.937202 -66.1796875 147.296875 C-67.70667074 146.05329308 -69.24243156 144.81895669 -70.8203125 143.640625 C-78.42505147 137.90590381 -85.08578251 127.35399959 -87 118 C-87.62219452 107.7082907 -87.79792973 98.39000769 -83 89 C-82.66097656 88.28714844 -82.32195312 87.57429688 -81.97265625 86.83984375 C-77.62976517 78.81863211 -69.49746057 72.67389062 -60.9765625 69.6171875 C-52.01985656 67.76002275 -42.66606308 68.16052979 -34 71 C-33.88519287 70.37246826 -33.77038574 69.74493652 -33.65209961 69.09838867 C-30.00835396 49.55530931 -25.52462738 31.46017433 -14 15 C-13.46890625 14.22527344 -12.9378125 13.45054688 -12.390625 12.65234375 C-11.93171875 12.10707031 -11.4728125 11.56179687 -11 11 C-10.34 11 -9.68 11 -9 11 C-8.79375 10.443125 -8.5875 9.88625 -8.375 9.3125 C-7.03153247 7.05303189 -5.94842298 6.0001344 -3.9375 4.375 C-0.99175287 2.32880603 -0.99175287 2.32880603 0 0 Z " fill="#FB0000" transform="translate(586,71)"/>
<path d="M0 0 C1.87751953 0.02030273 1.87751953 0.02030273 3.79296875 0.04101562 C6.86243116 0.07616214 9.93098509 0.12536774 13 0.1875 C10.09109496 3.09640504 6.47396971 3.87040724 2.64453125 5.12890625 C0.89923928 5.71464518 -0.84604018 6.30042137 -2.59130859 6.88623047 C-3.50644226 7.19091248 -4.42157593 7.49559448 -5.36444092 7.80950928 C-19.26046151 12.43891237 -33.08412045 17.12884564 -46.63745117 22.69750977 C-47.45576416 23.03194092 -48.27407715 23.36637207 -49.1171875 23.7109375 C-49.80409668 23.99888184 -50.49100586 24.28682617 -51.19873047 24.58349609 C-53 25.1875 -53 25.1875 -56 25.1875 C-56 25.8475 -56 26.5075 -56 27.1875 C-60.36406222 28.95085697 -64.72544302 30.71291403 -69.13671875 32.35546875 C-75.41302005 34.69488624 -81.39500323 37.27746881 -87.34765625 40.34375 C-91.15054553 42.28844662 -95.01379463 44.10050341 -98.87597656 45.92382812 C-139.17803188 63.26259063 -139.17803188 63.26259063 -168.16015625 94.56640625 C-170.35400213 101.41324619 -169.99511643 109.00256508 -166.9375 115.5 C-162.41188995 123.98742357 -155.22487821 129.90253066 -147.5625 135.4375 C-145.78119243 136.7486197 -143.99994317 138.05981863 -142.21875 139.37109375 C-141.33832031 140.0141748 -140.45789063 140.65725586 -139.55078125 141.31982422 C-135.86622293 144.01764879 -132.21285472 146.75616652 -128.5625 149.5 C-127.59062744 150.22908569 -127.59062744 150.22908569 -126.59912109 150.97290039 C-116.56342928 158.50796638 -106.64640504 166.15550023 -97 174.1875 C-96.46842285 174.62739258 -95.9368457 175.06728516 -95.38916016 175.52050781 C-73.07264845 194.00855553 -73.07264845 194.00855553 -71.5 206 C-72.30081013 218.27908866 -78.91750234 229.64970362 -87.87890625 237.80859375 C-91.18009969 240.39087898 -94.55231296 242.80756 -98 245.1875 C-99.31626729 246.11684439 -100.63133183 247.04789415 -101.9453125 247.98046875 C-104.05404712 249.47441557 -106.16467184 250.96528331 -108.28149414 252.44775391 C-113.72599122 256.26198468 -119.0945183 260.17004686 -124.4375 264.125 C-132.83522642 270.33988076 -141.28722062 276.47507247 -149.76611328 282.57861328 C-152.76214805 284.73641318 -155.75520151 286.89832641 -158.74804688 289.06054688 C-160.99705308 290.68537096 -163.2465727 292.30948255 -165.49609375 293.93359375 C-168.51092519 296.11079023 -171.52374694 298.29072917 -174.53515625 300.47265625 C-207.64000134 324.44562153 -207.64000134 324.44562153 -213.32421875 324.3828125 C-214.35224609 324.37636719 -215.38027344 324.36992187 -216.43945312 324.36328125 C-217.51130859 324.34652344 -218.58316406 324.32976562 -219.6875 324.3125 C-220.77095703 324.30347656 -221.85441406 324.29445313 -222.97070312 324.28515625 C-225.6473571 324.2615734 -228.32356797 324.22866126 -231 324.1875 C-227.5072685 320.55944126 -223.90528476 317.42044074 -219.875 314.375 C-218.84117187 313.58480469 -217.80734375 312.79460937 -216.7421875 311.98046875 C-214 310.1875 -214 310.1875 -211 310.1875 C-210.67 309.1975 -210.34 308.2075 -210 307.1875 C-209.01 307.1875 -208.02 307.1875 -207 307.1875 C-206.67 306.1975 -206.34 305.2075 -206 304.1875 C-205.01 304.1875 -204.02 304.1875 -203 304.1875 C-203 303.5275 -203 302.8675 -203 302.1875 C-202.01 301.8575 -201.02 301.5275 -200 301.1875 C-199.67 300.5275 -199.34 299.8675 -199 299.1875 C-198.01 298.8575 -197.02 298.5275 -196 298.1875 C-195.67 297.5275 -195.34 296.8675 -195 296.1875 C-194.01 295.8575 -193.02 295.5275 -192 295.1875 C-191.34 294.1975 -190.68 293.2075 -190 292.1875 C-189.01 292.1875 -188.02 292.1875 -187 292.1875 C-186.67 291.1975 -186.34 290.2075 -186 289.1875 C-185.01 289.1875 -184.02 289.1875 -183 289.1875 C-183 288.5275 -183 287.8675 -183 287.1875 C-181.58911133 285.92919922 -181.58911133 285.92919922 -179.58203125 284.4921875 C-178.83203857 283.94868652 -178.0820459 283.40518555 -177.30932617 282.84521484 C-176.48537354 282.25691895 -175.6614209 281.66862305 -174.8125 281.0625 C-173.07430197 279.80376476 -171.33737059 278.54327896 -169.6015625 277.28125 C-168.68793945 276.61738281 -167.77431641 275.95351563 -166.83300781 275.26953125 C-161.16753771 271.10586966 -155.60397149 266.80717737 -150.0324707 262.51904297 C-137.86422353 253.1875 -137.86422353 253.1875 -135 253.1875 C-135 252.5275 -135 251.8675 -135 251.1875 C-133.11658031 249.57356331 -131.24272703 248.09173978 -129.25 246.625 C-128.71117187 246.21314453 -128.17234375 245.80128906 -127.6171875 245.37695312 C-124.74533168 243.23707031 -122.43819637 242.03098275 -119 241.1875 C-118.67 240.1975 -118.34 239.2075 -118 238.1875 C-117.01 238.1875 -116.02 238.1875 -115 238.1875 C-114.67 237.1975 -114.34 236.2075 -114 235.1875 C-113.01 235.1875 -112.02 235.1875 -111 235.1875 C-110.67 234.1975 -110.34 233.2075 -110 232.1875 C-109.01 232.1875 -108.02 232.1875 -107 232.1875 C-106.67 231.1975 -106.34 230.2075 -106 229.1875 C-105.01 229.1875 -104.02 229.1875 -103 229.1875 C-103 228.5275 -103 227.8675 -103 227.1875 C-101.5390625 225.6796875 -101.5390625 225.6796875 -99.625 224.0625 C-98.99851562 223.52367187 -98.37203125 222.98484375 -97.7265625 222.4296875 C-96 221.1875 -96 221.1875 -94 221.1875 C-93.62875 220.1975 -93.62875 220.1975 -93.25 219.1875 C-92.24010198 216.76374476 -91.13262352 214.60476415 -89.875 212.3125 C-87.9237468 208.3731775 -87.29797776 205.63364086 -88 201.1875 C-91.93567536 191.01278166 -100.44562394 185.28524912 -109.3125 179.5625 C-110.89527023 178.52456352 -112.4772756 177.48545992 -114.05859375 176.4453125 C-114.86925293 175.91325195 -115.67991211 175.38119141 -116.51513672 174.83300781 C-120.66817133 172.0828159 -124.77071392 169.25971033 -128.875 166.4375 C-134.08223894 162.86159631 -139.29825796 159.30402033 -144.5625 155.8125 C-149.77002356 152.35528297 -154.90674323 148.81078407 -160 145.1875 C-160.91910156 144.5378125 -161.83820313 143.888125 -162.78515625 143.21875 C-173.11974318 135.82674834 -184.05749881 127.91772581 -188 115.1875 C-189.36677453 102.45284113 -187.16587332 93.93630998 -180 83.1875 C-179.34 83.1875 -178.68 83.1875 -178 83.1875 C-177.77957031 82.64351563 -177.55914062 82.09953125 -177.33203125 81.5390625 C-175.5677264 78.42436597 -173.20621222 76.0644877 -170.6875 73.5625 C-170.21376953 73.07265625 -169.74003906 72.5828125 -169.25195312 72.078125 C-166.37644636 69.19868457 -163.89621448 67.39397807 -160 66.1875 C-160 65.5275 -160 64.8675 -160 64.1875 C-158.62084961 63.04931641 -158.62084961 63.04931641 -156.65234375 61.7890625 C-155.54572388 61.07955444 -155.54572388 61.07955444 -154.41674805 60.35571289 C-153.59859619 59.84645264 -152.78044434 59.33719238 -151.9375 58.8125 C-151.08260986 58.27939209 -150.22771973 57.74628418 -149.34692383 57.19702148 C-126.83324992 43.37198059 -102.615845 32.68375126 -77.94506836 23.33935547 C-75.37113185 22.33265461 -72.86549324 21.25211773 -70.35546875 20.09765625 C-65.46773756 17.87636595 -60.42220352 16.25497711 -55.3125 14.625 C-49.61573828 12.806713 -44.35390948 10.86808697 -39 8.1875 C-36.23791957 7.24572998 -33.43762583 6.4632242 -30.625 5.6875 C-29.17882278 5.28433908 -27.73350158 4.87809465 -26.2890625 4.46875 C-25.56750977 4.26612549 -24.84595703 4.06350098 -24.10253906 3.85473633 C-22.09043547 3.2161995 -20.25810534 2.40917185 -18.3359375 1.54296875 C-12.46589329 -0.71786002 -6.18917644 -0.12744344 0 0 Z " fill="#FEFBFA" transform="translate(417,20.8125)"/>
<path d="M0 0 C3.83433624 -0.42104717 5.50644053 -0.35954186 8.67578125 1.94921875 C26.25936349 20.21009453 38.62353869 43.94174488 39.046875 69.87109375 C39.03140625 70.57363281 39.0159375 71.27617187 39 72 C39.52207031 71.79503906 40.04414062 71.59007812 40.58203125 71.37890625 C50.98754915 67.57023157 60.53355862 66.92816251 71 71 C80.64645001 76.22286365 88.18772443 83.87809985 92.10546875 94.203125 C95.06124398 106.74903558 94.79137395 119.81494952 88.109375 131.02734375 C81.61571094 140.17859996 74.11288906 146.61635183 65 153 C65.33 154.2375 65.66 155.475 66 156.75 C67.9606038 165.86609213 68.10986086 173.67838831 63.4296875 181.94140625 C61.60801133 184.56442085 59.68391915 186.27953901 57 188 C56.319375 188.556875 55.63875 189.11375 54.9375 189.6875 C50.53136934 192.67229819 45.13488428 192.4890366 40 192 C36.91434131 191.19828807 33.96162614 190.17624868 31 189 C30.70609375 189.51046875 30.4121875 190.0209375 30.109375 190.546875 C24.3390282 199.89881636 15.64901435 209.59655196 6 215 C2.53239986 215.38321188 0.62437955 215.36052884 -2.421875 213.6015625 C-19.77991581 198.86470235 -19.77991581 198.86470235 -24 191 C-24 190.01 -24 189.02 -24 188 C-24.7425 188.474375 -25.485 188.94875 -26.25 189.4375 C-31.52018374 192.43192258 -37.0402272 192.76138067 -43 192 C-50.14198402 189.4517401 -55.44585461 184.73097384 -59.03125 178.08984375 C-62.62847351 169.71297603 -61.27280268 162.24044962 -58 154 C-59.08667969 153.11248047 -59.08667969 153.11248047 -60.1953125 152.20703125 C-62.19319916 150.57409189 -64.18786186 148.937202 -66.1796875 147.296875 C-67.70667074 146.05329308 -69.24243156 144.81895669 -70.8203125 143.640625 C-78.42505147 137.90590381 -85.08578251 127.35399959 -87 118 C-87.62219452 107.7082907 -87.79792973 98.39000769 -83 89 C-82.66097656 88.28714844 -82.32195312 87.57429688 -81.97265625 86.83984375 C-77.62976517 78.81863211 -69.49746057 72.67389062 -60.9765625 69.6171875 C-52.01985656 67.76002275 -42.66606308 68.16052979 -34 71 C-33.88519287 70.37246826 -33.77038574 69.74493652 -33.65209961 69.09838867 C-30.00835396 49.55530931 -25.52462738 31.46017433 -14 15 C-13.46890625 14.22527344 -12.9378125 13.45054688 -12.390625 12.65234375 C-11.93171875 12.10707031 -11.4728125 11.56179687 -11 11 C-10.34 11 -9.68 11 -9 11 C-8.79375 10.443125 -8.5875 9.88625 -8.375 9.3125 C-7.03153247 7.05303189 -5.94842298 6.0001344 -3.9375 4.375 C-0.99175287 2.32880603 -0.99175287 2.32880603 0 0 Z M-3 12 C-19.41837264 30.95965118 -27.54970261 56.9751727 -26 82 C-27.44632813 81.47599609 -27.44632813 81.47599609 -28.921875 80.94140625 C-30.19788003 80.48166914 -31.47392374 80.02203937 -32.75 79.5625 C-33.38421875 79.33240234 -34.0184375 79.10230469 -34.671875 78.86523438 C-43.33097095 75.75337177 -51.7616591 74.5401345 -60.8125 77.0625 C-69.65710861 82.43863465 -76.09310558 89.63874729 -79.4921875 99.54296875 C-81.69052867 110.17955794 -80.41762521 119.95532547 -74.6796875 129.10546875 C-70.3446132 135.22905731 -64.97540407 141.93082221 -58 145 C-57.36384766 143.98679688 -57.36384766 143.98679688 -56.71484375 142.953125 C-53.03353733 137.35430293 -50.33139744 133.44369726 -44 131 C-38.3974349 130.05699399 -33.97868968 131.22342306 -29 134 C-26.25682041 136.81536852 -24.58090899 139.07886431 -24 143 C-25.32 143 -26.64 143 -28 143 C-28 144.32 -28 145.64 -28 147 C-26.68 147 -25.36 147 -24 147 C-24.81956172 150.87429175 -25.47599747 153.43108296 -28.1875 156.375 C-31.74071567 158.42796906 -33.87163554 159.1423574 -38 159 C-40.01184087 157.57441884 -41.64083268 156.04989728 -43.32421875 154.25 C-44.92898545 152.77062728 -44.92898545 152.77062728 -47.06640625 153.13671875 C-49.74035914 154.33054418 -50.91273783 156.15551329 -52.2265625 158.71484375 C-54.13181196 164.34398989 -54.25682429 170.27359747 -51.75390625 175.703125 C-49.44915588 179.26657943 -47.55561618 181.62958921 -44 184 C-34.35289708 185.92942058 -27.06900037 181.61758853 -19 177 C-18.979375 178.093125 -18.95875 179.18625 -18.9375 180.3125 C-17.68305703 189.92424544 -10.05055089 197.40123476 -3.625 204.1015625 C-0.2818484 206.5193775 1.88319763 207.02294762 6 207 C15.14025673 201.53732087 22.76732553 191.11636953 26 181 C26 179.68 26 178.36 26 177 C27.34191406 177.75796875 27.34191406 177.75796875 28.7109375 178.53125 C38.75135785 184.0130377 38.75135785 184.0130377 50 184 C54.73265467 182.21210824 57.91955418 178.56328239 60 174 C61.37816073 166.2075959 59.34120968 158.51181452 55 152 C52.47562314 153.0818758 51.0225394 153.97435171 49.1875 156.0625 C46.1294615 158.77104838 44.05111538 159 40 159 C34.27040127 156.41606332 32.29032689 152.55067458 30 147 C31.65 147 33.3 147 35 147 C34.505 144.525 34.505 144.525 34 142 C33.01 142 32.02 142 31 142 C35 134.42857143 35 134.42857143 39 132 C44.24157848 130.6407708 49.37780696 130.28241192 54.375 132.5625 C59.32830389 135.49591153 62.74937505 139.68034102 65 145 C75.41002628 139.32180385 83.17099525 130.26196216 87 118.9375 C89.7644511 107.53413923 87.50492844 98.66472332 81.61328125 88.640625 C77.23473761 82.2587477 71.28727378 78.45771089 64 76 C53.03752944 74.65447713 42.79873891 77.10063054 33 82 C33.02320313 81.29617187 33.04640625 80.59234375 33.0703125 79.8671875 C33.51742409 55.40379605 26.19852809 29.06568077 9 11 C4.03301527 6.71550172 1.69006249 7.75559956 -3 12 Z " fill="#0E0703" transform="translate(586,71)"/>
<path d="M0 0 C8.3734489 5.72140801 12.70065604 14.96724802 14.6875 24.6875 C17.84805173 42.17140317 17.66454574 63.19718897 8.1796875 78.75 C4.84105615 83.08497683 0.92008238 86.94330587 -4.3125 88.6875 C-20.82679301 89.97337376 -20.82679301 89.97337376 -26.7109375 85.359375 C-37.41215574 74.18834717 -39.50911721 61.01413172 -39.55273438 46.1315918 C-39.56235564 44.15466181 -39.59351444 42.17787454 -39.625 40.20117188 C-39.67887594 26.77932947 -37.99961128 14.01520389 -28.578125 3.80859375 C-20.74658534 -3.38186855 -9.53170024 -5.04961829 0 0 Z " fill="#030301" transform="translate(308.3125,374.3125)"/>
<path d="M0 0 C8.64093938 4.38671199 13.18921446 12.28708494 16.35546875 21.1640625 C18.34612764 28.53039526 18.70822328 35.75279056 18.66796875 43.3515625 C18.66059692 44.99813843 18.66059692 44.99813843 18.65307617 46.67797852 C18.43714068 61.71041054 16.34724127 75.85138003 5.19921875 86.7890625 C-1.36831121 91.68688145 -9.87961794 91.02088052 -17.64453125 90.1640625 C-23.5504251 87.97848002 -27.5546322 83.96206425 -30.5859375 78.5078125 C-38.65925501 60.6333088 -40.07362273 36.78021013 -33.90234375 18.09375 C-30.5019083 10.1734811 -26.10057654 4.61543282 -18.64453125 0.1640625 C-12.77009934 -1.79408147 -5.91496996 -1.86972462 0 0 Z " fill="#030201" transform="translate(367.64453125,372.8359375)"/>
<path d="M0 0 C8.84844642 6.06018999 12.69792388 15.47944406 14.6875 25.6875 C14.87054688 26.55761719 15.05359375 27.42773438 15.2421875 28.32421875 C17.59579056 46.10011557 16.9831671 66.94037906 5.6875 81.6875 C-0.57604658 87.82204905 -5.42997672 89.09146358 -14.11669922 89.13623047 C-19.48718447 89.00175633 -23.21208508 88.11321741 -27.484375 84.65625 C-37.68174865 73.67446299 -39.51054507 60.52693464 -39.55273438 46.1315918 C-39.56235564 44.15466181 -39.59351444 42.17787454 -39.625 40.20117188 C-39.67887594 26.77932947 -37.99961128 14.01520389 -28.578125 3.80859375 C-20.74658534 -3.38186855 -9.53170024 -5.04961829 0 0 Z " fill="#030201" transform="translate(71.3125,374.3125)"/>
<path d="M0 0 C7.26 0 14.52 0 22 0 C24.44736831 10.75119567 26.18793393 21.46005181 27.6875 32.375 C27.91424849 33.9974609 28.14145946 35.61985722 28.36914062 37.2421875 C28.91807485 41.16073728 29.46081342 45.08009758 30 49 C32.73803304 32.67742322 35.45310697 16.35373422 38 0 C45.26 0 52.52 0 60 0 C60 29.04 60 58.08 60 88 C55.71 88 51.42 88 47 88 C46.67 67.87 46.34 47.74 46 27 C45.01 33.93 44.02 40.86 43 48 C42.46994285 51.60122368 41.93803697 55.20164284 41.39453125 58.80078125 C41.26559982 59.65890915 41.1366684 60.51703705 41.00382996 61.40116882 C40.60743356 64.03838717 40.20999779 66.67544746 39.8125 69.3125 C39.53703887 71.1438696 39.26164803 72.97524978 38.98632812 74.80664062 C38.32502278 79.20454847 37.66278815 83.60231539 37 88 C32.71 88 28.42 88 24 88 C20.75756676 73.02961674 18.45505956 57.99928118 16.41723633 42.82055664 C16.02955055 40.19976451 15.51957274 37.59786371 15 35 C14.67 52.49 14.34 69.98 14 88 C9.38 88 4.76 88 0 88 C0 58.96 0 29.92 0 0 Z " fill="#040401" transform="translate(507,374)"/>
<path d="M0 0 C33.90909091 0 33.90909091 0 39.7578125 5.71875 C50.99906089 20.36449076 50.36606994 40.86626767 48.78173828 58.41796875 C47.28978875 69.43060151 43.48875187 78.59393085 34.8671875 85.72265625 C25.20810297 92.33044002 8.88557711 88 0 88 C0 58.96 0 29.92 0 0 Z " fill="#010100" transform="translate(213,374)"/>
<path d="M0 0 C33 0 33 0 41 3 C47.71751698 9.71751698 48.41778607 15.5842148 48.4375 24.6875 C48.43009236 39.82625158 48.43009236 39.82625158 43 46 C41.03484369 47.73044209 39.3533037 48.79598415 37 50 C37.721875 50.7425 38.44375 51.485 39.1875 52.25 C47.01314068 61.72894505 50.61997637 77.09988187 53 89 C46.73 89 40.46 89 34 89 C33.22914063 86.71320313 32.45828125 84.42640625 31.6640625 82.0703125 C30.91417549 79.85905351 30.16226611 77.64849206 29.41015625 75.43798828 C28.88817814 73.90029529 28.36830848 72.36188491 27.85058594 70.82275391 C27.10643644 68.61168902 26.35476453 66.40330746 25.6015625 64.1953125 C25.3712735 63.50567413 25.1409845 62.81603577 24.90371704 62.10549927 C23.90108298 59.18743177 23.21156156 57.21156156 21 55 C19.68 54.67 18.36 54.34 17 54 C17 65.55 17 77.1 17 89 C11.39 89 5.78 89 0 89 C0 59.63 0 30.26 0 0 Z " fill="#060502" transform="translate(395,373)"/>
<path d="M0 0 C5.28 0 10.56 0 16 0 C17.66932573 3.91555079 19.33546466 7.83241287 21 11.75 C21.45761719 12.8225 21.91523437 13.895 22.38671875 15 C26.74899601 25.2782423 30.84981725 35.62454313 35 46 C35.33 31.15 35.66 16.3 36 1 C40.95 1 45.9 1 51 1 C51 30.04 51 59.08 51 89 C46.05 89 41.1 89 36 89 C32.35174467 82.03906 29.42267954 74.85327145 26.5 67.5625 C25.55347233 65.2090763 24.60558259 62.85619989 23.65625 60.50390625 C23.24181641 59.47080322 22.82738281 58.4377002 22.40039062 57.37329102 C20.6749671 53.21705377 18.82768602 49.11229354 17 45 C16.67 59.52 16.34 74.04 16 89 C10.72 89 5.44 89 0 89 C0 59.63 0 30.26 0 0 Z " fill="#040301" transform="translate(636,373)"/>
<path d="M0 0 C6.27 0 12.54 0 19 0 C20.68804084 4.22010209 21.79073335 8.15257252 22.69921875 12.5625 C23.02123085 14.0830098 23.34325275 15.60351753 23.6652832 17.12402344 C23.83194489 17.91933472 23.99860657 18.714646 24.1703186 19.53405762 C26.85292924 32.32485658 29.67372733 45.06313528 32.8125 57.75 C35.2936477 67.79809619 37.37597038 77.77816654 39 88 C33.06 88 27.12 88 21 88 C20.34 83.71 19.68 79.42 19 75 C12.73 74.67 6.46 74.34 0 74 C-0.144375 75.5675 -0.28875 77.135 -0.4375 78.75 C-0.73661631 81.99754847 -1.20262142 84.8104857 -2 88 C-7.61 88 -13.22 88 -19 88 C-18.41371119 81.84186674 -17.44596288 75.98887041 -15.99609375 69.98046875 C-15.79696884 69.13525665 -15.59784393 68.29004456 -15.39268494 67.41921997 C-14.96613665 65.61038644 -14.53731186 63.80208845 -14.10638428 61.99429321 C-12.96742197 57.2149438 -11.84563428 52.43156334 -10.72265625 47.6484375 C-10.49473389 46.67930923 -10.26681152 45.71018097 -10.03198242 44.71168518 C-7.73680079 34.92879936 -5.54233289 25.12439224 -3.375 15.3125 C-3.20128876 14.52684662 -3.02757751 13.74119324 -2.84860229 12.93173218 C-1.89604446 8.62181049 -0.94742706 4.31105776 0 0 Z " fill="#030301" transform="translate(592,374)"/>
<path d="M0 0 C5.28 0 10.56 0 16 0 C16.0093457 1.70986084 16.01869141 3.41972168 16.02832031 5.18139648 C16.06399039 10.86130066 16.11787799 16.54084139 16.18390274 22.22047329 C16.22323843 25.66059073 16.2554941 29.10045754 16.27099609 32.54077148 C16.28918241 36.50537253 16.3391947 40.46927942 16.390625 44.43359375 C16.39185364 45.65582138 16.39308228 46.87804901 16.39434814 48.13731384 C16.51601665 55.29801495 17.42006607 60.7433071 21 67 C22.258125 67.0825 23.51625 67.165 24.8125 67.25 C25.52019531 67.29640625 26.22789063 67.3428125 26.95703125 67.390625 C29.15206798 67.18566221 29.15206798 67.18566221 30.55508423 65.25460815 C35.05965585 58.22579436 34.33020419 48.47123913 34.4140625 40.4296875 C34.43342865 39.26744659 34.4527948 38.10520569 34.4727478 36.90774536 C34.53207295 33.230236 34.57873969 29.55269454 34.625 25.875 C34.66322312 23.36717457 34.70227731 20.85936165 34.7421875 18.3515625 C34.83773549 12.23447783 34.92193881 6.1173318 35 0 C40.28 0 45.56 0 51 0 C51.09093878 7.98967114 51.16407918 15.97892928 51.20724869 23.96898174 C51.22798433 27.68044696 51.25603909 31.39153498 51.30175781 35.1027832 C51.3457245 38.69493544 51.36924205 42.28672854 51.37950897 45.87912941 C51.39032566 47.89347318 51.4214672 49.90767563 51.45318604 51.92179871 C51.45593098 63.37249082 49.43043182 74.88593559 42 84 C36.97026715 88.67046622 32.90958138 89.20138992 26.25 89.25 C25.5590625 89.270625 24.868125 89.29125 24.15625 89.3125 C18.35501395 89.35611832 13.80158436 88.22357327 9.14453125 84.52734375 C1.99468569 75.99365712 -0.13600689 66.50736848 -0.11352539 55.51391602 C-0.11344986 54.27315811 -0.11337433 53.03240021 -0.11329651 51.75404358 C-0.10819154 50.42066405 -0.10297557 49.08728494 -0.09765625 47.75390625 C-0.09578847 46.37385611 -0.09436627 44.99380531 -0.09336853 43.61375427 C-0.08957168 40.00198498 -0.07976594 36.39025665 -0.06866455 32.77850342 C-0.05838918 29.08476312 -0.05385785 25.39101613 -0.04882812 21.69726562 C-0.03814082 14.46482302 -0.02056733 7.23242249 0 0 Z " fill="#010100" transform="translate(96,374)"/>
<path d="M0 0 C6.00215536 3.55183725 9.62761463 8.31221996 11.93359375 14.84375 C12.83721326 18.61887152 12.6421101 22.18185947 12.4609375 26.046875 C7.1809375 26.376875 1.9009375 26.706875 -3.5390625 27.046875 C-3.99479167 25.02864583 -4.45052083 23.01041667 -4.90625 20.9921875 C-5.44380678 18.83967536 -5.44380678 18.83967536 -7.5390625 17.046875 C-11.12250226 16.88010218 -11.12250226 16.88010218 -14.5390625 17.046875 C-16.0173851 20.00352019 -15.59939033 22.78917237 -15.5390625 26.046875 C-14.4665625 26.583125 -13.3940625 27.119375 -12.2890625 27.671875 C-11.56589844 28.03667969 -10.84273438 28.40148437 -10.09765625 28.77734375 C-8.24569576 29.69625544 -6.38207035 30.59178098 -4.51171875 31.47265625 C3.93074424 35.51126339 9.44972569 39.3545195 13.5078125 47.984375 C16.73873036 58.36568484 14.88383758 70.31376464 10.4609375 80.046875 C7.35060506 85.08805989 3.98428021 87.80382738 -1.5390625 90.046875 C-4.34230807 90.50295582 -7.07744985 90.57196666 -9.9140625 90.546875 C-10.66848633 90.54042969 -11.42291016 90.53398437 -12.20019531 90.52734375 C-18.06832476 90.33402869 -22.37936293 89.46588052 -26.5390625 85.046875 C-32.84064478 77.80924867 -34.5390625 68.38586414 -34.5390625 59.046875 C-26.6190625 58.551875 -26.6190625 58.551875 -18.5390625 58.046875 C-17.59505208 61.10677083 -16.65104167 64.16666667 -15.70703125 67.2265625 C-14.73245745 70.31986225 -14.73245745 70.31986225 -11.5390625 72.046875 C-7.96149564 72.04770035 -7.96149564 72.04770035 -4.5390625 71.046875 C-2.4160023 68.6468939 -2.50728371 66.75027293 -2.1640625 63.546875 C-2.6201634 59.28993328 -3.28537175 58.70757932 -6.5390625 56.046875 C-9.08117256 54.65790195 -11.71315499 53.48987033 -14.3515625 52.296875 C-22.42116492 48.43285184 -28.01664179 44.40008016 -31.4765625 35.859375 C-34.13960228 26.20585581 -33.2771407 16.83206167 -28.5390625 8.046875 C-22.67988958 -1.57890908 -10.24267132 -3.84494124 0 0 Z " fill="#040301" transform="translate(484.5390625,372.953125)"/>
<path d="M0 0 C16.17 0 32.34 0 49 0 C49 6.93 49 13.86 49 21 C43.72 21 38.44 21 33 21 C33 43.11 33 65.22 33 88 C27.39 88 21.78 88 16 88 C16 65.89 16 43.78 16 21 C10.72 21 5.44 21 0 21 C0 14.07 0 7.14 0 0 Z " fill="#040301" transform="translate(155,374)"/>
<path d="M0 0 C4.58529012 3.41230893 6.60680298 7.56814066 8 13 C8.41227264 16.82238141 8.42004476 20.5961828 8.375 24.4375 C8.38660156 25.42298828 8.39820312 26.40847656 8.41015625 27.42382812 C8.37945416 35.14540443 7.41809278 41.79766092 2.6875 48.0625 C0 50 0 50 -2.9375 50.75 C-6.81056476 49.80149434 -8.18842968 48.19597449 -10.703125 45.21484375 C-14.38428055 38.92805099 -14.38708537 32.34954845 -14.375 25.25 C-14.37338867 24.27442139 -14.37177734 23.29884277 -14.37011719 22.29370117 C-14.25398778 15.47906819 -13.8507875 8.85937728 -10 3 C-6.62874577 0.00557259 -4.53543375 -0.74047898 0 0 Z " fill="#F9F757" transform="translate(62,393)"/>
<path d="M0 0 C4.0335949 0.84033227 5.45116191 2.43895239 8 5.625 C11.23481159 12.09462318 11.21030149 18.79874144 11.25 25.875 C11.270625 26.77863281 11.29125 27.68226563 11.3125 28.61328125 C11.35584897 36.145165 10.29633558 42.58390693 5.6875 48.6875 C3 50.625 3 50.625 0 51.25 C-4.19326842 50.37640241 -5.44968018 49.07137813 -8 45.625 C-13.17760192 35.78755635 -12.5855946 20.22525949 -9.8125 9.6875 C-7.90484625 4.65093753 -5.49281045 1.14433551 0 0 Z " fill="#F9F857" transform="translate(296,392.375)"/>
<path d="M0 0 C4.53977391 2.63940344 6.66671146 6.01637935 8 11 C8.45779832 15.46399475 8.46424972 19.89077476 8.4375 24.375 C8.4674707 26.14617187 8.4674707 26.14617187 8.49804688 27.953125 C8.49353903 36.04921793 7.57170327 42.81248582 2.1875 49.125 C-1.24278547 50.49711419 -3.49127029 50.0024942 -7 49 C-13.70293338 42.47822698 -14.03442344 34.20384014 -14.25 25.375 C-14.17605618 17.67662627 -14.02471119 7.81668446 -8.6875 1.6875 C-5.3868399 -0.38500751 -3.82847028 -0.71783818 0 0 Z " fill="#F9F757" transform="translate(361,393)"/>
<path d="M0 0 C9 1 9 1 11.9375 3.1875 C16.80729214 9.82812565 16.36613976 16.9135954 16.375 24.8125 C16.39949219 25.95009766 16.42398438 27.08769531 16.44921875 28.25976562 C16.47263465 35.02305872 16.14472189 41.3727119 12 47 C8.05197413 49.98071837 5.4940051 49 0 49 C0 32.83 0 16.66 0 0 Z " fill="#FAF958" transform="translate(229,393)"/>
<path d="M0 0 C10.13528336 -0.48263254 10.13528336 -0.48263254 13.6875 1.5 C15.5436217 5.0354699 15.70894254 8.15036576 15 12 C13.6875 15 13.6875 15 11 17 C7.23166653 17.41749882 3.81315669 17.22697361 0 17 C0 11.39 0 5.78 0 0 Z " fill="#F9F857" transform="translate(412,392)"/>
<path d="M0 0 C2.9581582 2.9581582 2.95458663 6.5126974 3.5625 10.5 C3.69180908 11.31065918 3.82111816 12.12131836 3.9543457 12.95654297 C4.84007939 18.62455851 5.53874021 24.28037855 6 30 C2.37 30 -1.26 30 -5 30 C-4.25826663 23.44151546 -3.14229492 16.9880122 -1.9375 10.5 C-1.75123047 9.48679687 -1.56496094 8.47359375 -1.37304688 7.4296875 C-0.91738299 4.95274538 -0.4596565 2.47620374 0 0 Z " fill="#F0EE54" transform="translate(601,398)"/>
<path d="M0 0 C4.35820909 0.10319985 6.91073093 1.52440445 10.25 4.375 C10.58 5.365 10.91 6.355 11.25 7.375 C10.5075 7.024375 9.765 6.67375 9 6.3125 C6.1177274 5.32990707 5.03823655 5.3423198 2.25 6.375 C2.311875 7.303125 2.37375 8.23125 2.4375 9.1875 C2.25 12.375 2.25 12.375 1.0625 14.25 C-1.31036279 15.72281139 -3.00913944 15.59723194 -5.75 15.375 C-5.66621094 14.77171875 -5.58242188 14.1684375 -5.49609375 13.546875 C-5.39425781 12.74765625 -5.29242187 11.9484375 -5.1875 11.125 C-5.08308594 10.33609375 -4.97867188 9.5471875 -4.87109375 8.734375 C-4.62628837 6.37969445 -4.62628837 6.37969445 -5.34765625 4.203125 C-5.48042969 3.59984375 -5.61320313 2.9965625 -5.75 2.375 C-3.75 0.375 -3.75 0.375 0 0 Z " fill="#F9F857" transform="translate(630.75,207.625)"/>
<path d="M0 0 C2.38376485 3.645758 1.69282842 5.84302947 1 10 C1.82342532 12.31980946 1.82342532 12.31980946 3 14 C2 15 2 15 -1.0625 15.0625 C-2.031875 15.041875 -3.00125 15.02125 -4 15 C-4.66 11.7 -5.32 8.4 -6 5 C-7.98 5 -9.96 5 -12 5 C-12.33 5.99 -12.66 6.98 -13 8 C-13.66 8 -14.32 8 -15 8 C-14.09126425 4.94334338 -13.32469175 3.27694297 -10.875 1.1875 C-7.02507023 -0.40268838 -4.14686216 -0.2108574 0 0 Z " fill="#F5F355" transform="translate(551,208)"/>
<path d="M0 0 C1.98 0 3.96 0 6 0 C5.4112207 0.26280762 4.82244141 0.52561523 4.21582031 0.79638672 C1.89660759 2.05616181 0.39050597 3.38004021 -1.453125 5.2578125 C-2.38125 6.19560547 -2.38125 6.19560547 -3.328125 7.15234375 C-4.27945313 8.12880859 -4.27945313 8.12880859 -5.25 9.125 C-6.22453125 10.11306641 -6.22453125 10.11306641 -7.21875 11.12109375 C-8.81711727 12.74296643 -10.41061897 14.3693281 -12 16 C-12.66 15.67 -13.32 15.34 -14 15 C-12.625 13 -12.625 13 -11 11 C-10.34 11 -9.68 11 -9 11 C-8.79375 10.443125 -8.5875 9.88625 -8.375 9.3125 C-7.03153247 7.05303189 -5.94842298 6.0001344 -3.9375 4.375 C-0.99175287 2.32880603 -0.99175287 2.32880603 0 0 Z " fill="#343412" transform="translate(586,71)"/>
<path d="M0 0 C0.66 0.33 1.32 0.66 2 1 C0.68 1.99 -0.64 2.98 -2 4 C-1.34 2.68 -0.68 1.36 0 0 Z M-5 5 C-4.34 5.33 -3.68 5.66 -3 6 C-6.63 9.63 -10.26 13.26 -14 17 C-14.66 16.67 -15.32 16.34 -16 16 C-14.73347137 14.53792657 -13.46161082 13.08047074 -12.1875 11.625 C-11.47980469 10.81289062 -10.77210938 10.00078125 -10.04296875 9.1640625 C-8 7 -8 7 -5 5 Z " fill="#FDE777" transform="translate(180,92)"/>
<path d="M0 0 C0.99 0.33 1.98 0.66 3 1 C2.45730469 1.47050781 1.91460938 1.94101563 1.35546875 2.42578125 C0.28232422 3.35970703 0.28232422 3.35970703 -0.8125 4.3125 C-1.52019531 4.92738281 -2.22789062 5.54226562 -2.95703125 6.17578125 C-4.70136739 7.73334335 -6.36778041 9.32658875 -8 11 C-8.66 10.67 -9.32 10.34 -10 10 C-8.90033225 8.70450101 -7.79508199 7.41373929 -6.6875 6.125 C-6.07261719 5.40570313 -5.45773437 4.68640625 -4.82421875 3.9453125 C-3 2 -3 2 0 0 Z " fill="#DD0000" transform="translate(588,79)"/>
</svg>
