<?xml version="1.0" encoding="UTF-8"?>
<svg version="1.1" xmlns="http://www.w3.org/2000/svg" width="733" height="500">
<path d="M0 0 C241.89 0 483.78 0 733 0 C733 165 733 330 733 500 C491.11 500 249.22 500 0 500 C0 335 0 170 0 0 Z " fill="#FD0303" transform="translate(0,0)"/>
<path d="M0 0 C1.88474806 0.00215191 3.76950173 0.00119705 5.65424728 -0.0025568 C10.63432583 -0.00411654 15.61319127 0.0360091 20.59298706 0.08571625 C25.2913533 0.12602544 29.98944662 0.12748175 34.68798828 0.13244629 C48.36604181 0.16896057 62.04387674 0.26668944 75.72167969 0.35717773 C106.32917969 0.50155273 136.93667969 0.64592773 168.47167969 0.79467773 C168.47167969 108.04467773 168.47167969 215.29467773 168.47167969 325.79467773 C62.87167969 325.79467773 -42.72832031 325.79467773 -151.52832031 325.79467773 C-144.77321827 316.78787501 -144.77321827 316.78787501 -142.26660156 313.75170898 C-141.71061279 313.0770459 -141.15462402 312.40238281 -140.58178711 311.70727539 C-140.00726807 311.01424316 -139.43274902 310.32121094 -138.84082031 309.60717773 C-138.23214111 308.87031738 -137.62346191 308.13345703 -136.99633789 307.37426758 C-132.82033837 302.32810883 -128.60472528 297.31688831 -124.36157227 292.32714844 C-120.79837218 288.13201188 -117.31528146 283.87580143 -113.84082031 279.60717773 C-110.80464666 275.9145341 -107.70982061 272.27345985 -104.61425781 268.63061523 C-100.96551246 264.32958021 -97.39187304 259.97121676 -93.83300781 255.59545898 C-91.30798686 252.52691657 -88.733353 249.50438513 -86.15332031 246.48217773 C-81.25820248 240.7376511 -76.57194618 234.84512112 -71.93847656 228.88842773 C-70.4777905 227.01344659 -68.9909455 225.15793928 -67.45800781 223.34155273 C-58.4299232 211.42594308 -51.3466456 193.65256194 -52.11035156 178.56420898 C-53.91944368 166.57686027 -60.03422746 156.92831556 -69.64160156 149.70483398 C-82.2405241 141.36806386 -96.26623312 137.00563472 -110.84082031 133.54467773 C-135.35750226 127.6887671 -170.99156003 118.50193232 -186.09082031 96.48217773 C-188.07381161 91.39537396 -188.61451466 87.17247914 -187.52832031 81.79467773 C-179.75397466 65.66620472 -156.56932892 56.56789933 -141.27832031 49.23217773 C-140.58778564 48.89758545 -139.89725098 48.56299316 -139.18579102 48.21826172 C-135.30912578 46.4074353 -131.78228029 45.27688127 -127.52832031 44.79467773 C-127.52832031 44.13467773 -127.52832031 43.47467773 -127.52832031 42.79467773 C-105.98578695 33.35716857 -84.31644703 24.39141384 -62.27832031 16.16967773 C-61.28654785 15.79917297 -60.29477539 15.42866821 -59.27294922 15.04693604 C-56.3751719 13.96663802 -53.47573674 12.89096814 -50.57519531 11.81811523 C-49.75533142 11.51444031 -48.93546753 11.21076538 -48.09075928 10.89788818 C-46.38563407 10.27145751 -44.67658225 9.65562953 -42.96410751 9.04957867 C-40.36833056 8.1014865 -37.81248384 7.10917649 -35.24982452 6.07874393 C-23.20374732 1.37552561 -12.85681976 -0.1962881 0 0 Z " fill="#FEFB59" transform="translate(531.5283203125,19.205322265625)"/>
<path d="M0 0 C135.3 0 270.6 0 410 0 C406.69559206 2.20293863 403.45312254 3.24411177 399.703125 4.3984375 C398.18523485 4.87680528 396.66750065 5.3556681 395.14990234 5.83496094 C394.35042175 6.08596558 393.55094116 6.33697021 392.72723389 6.59558105 C377.72868878 11.31461476 362.99987929 16.47618587 348.41113281 22.34130859 C347.21069336 22.82164551 346.01025391 23.30198242 344.7734375 23.796875 C343.72591309 24.22323242 342.67838867 24.64958984 341.59912109 25.08886719 C339 26 339 26 336 26 C336 26.66 336 27.32 336 28 C331.63593778 29.76335697 327.27455698 31.52541403 322.86328125 33.16796875 C316.58697995 35.50738624 310.60499677 38.08996881 304.65234375 41.15625 C300.84945447 43.10094662 296.98620537 44.91300341 293.12402344 46.73632812 C252.82196812 64.07509063 252.82196812 64.07509063 223.83984375 95.37890625 C221.64599787 102.22574619 222.00488357 109.81506508 225.0625 116.3125 C229.58811005 124.79992357 236.77512179 130.71503066 244.4375 136.25 C246.21880757 137.5611197 248.00005683 138.87231863 249.78125 140.18359375 C250.66167969 140.8266748 251.54210937 141.46975586 252.44921875 142.13232422 C256.13377707 144.83014879 259.78714528 147.56866652 263.4375 150.3125 C264.08541504 150.79855713 264.73333008 151.28461426 265.40087891 151.78540039 C275.43657072 159.32046638 285.35359496 166.96800023 295 175 C295.53157715 175.43989258 296.0631543 175.87978516 296.61083984 176.33300781 C319.10784253 194.97058275 319.10784253 194.97058275 320.4375 206.9375 C319.6863924 218.81438896 313.19156624 229.60783519 305 238 C302.55978748 239.9886354 299.98547501 241.74345542 297.375 243.5 C295.84897394 244.55152084 294.32428355 245.60498216 292.80078125 246.66015625 C292.0113916 247.20559082 291.22200195 247.75102539 290.40869141 248.31298828 C286.40680413 251.11585074 282.48593927 254.02632664 278.5625 256.9375 C270.16556486 263.15343521 261.71276393 269.28758359 253.23388672 275.39111328 C249.48640216 278.09012128 245.74344155 280.79538884 242 283.5 C240.50002146 284.58336304 239.00002146 285.66669638 237.5 286.75 C236.38625 287.554375 236.38625 287.554375 235.25 288.375 C233 290 230.75 291.625 228.5 293.25 C227.38564575 294.0548584 227.38564575 294.0548584 226.2487793 294.87597656 C224.75296853 295.95622118 223.25703807 297.03630007 221.76098633 298.11621094 C217.94587842 300.87043544 214.13307354 303.62775803 210.32421875 306.390625 C209.54755859 306.95330078 208.77089844 307.51597656 207.97070312 308.09570312 C206.52198216 309.1453752 205.07397863 310.19603876 203.62695312 311.24804688 C202.26417029 312.23480019 200.89220378 313.20899893 199.51118755 314.17006779 C196.92644386 316.00522483 196.92644386 316.00522483 194.35524464 318.25173855 C184.96157854 325.74759395 177.37207089 326.25375729 165.63354492 326.02172852 C163.78969907 326.018966 161.94584373 326.02018231 160.10200214 326.02501583 C155.19990815 326.02703333 150.29982388 325.97518555 145.39820099 325.91152191 C140.78514341 325.85995518 136.17255451 325.85783743 131.5592041 325.85144043 C118.10170708 325.80436697 104.64457755 325.67871518 91.1875 325.5625 C61.095625 325.376875 31.00375 325.19125 0 325 C0 217.75 0 110.5 0 0 Z " fill="#FEFB59" transform="translate(25,20)"/>
<path d="M0 0 C222.75 0 445.5 0 675 0 C675 38.28 675 76.56 675 116 C452.25 116 229.5 116 0 116 C0 77.72 0 39.44 0 0 Z " fill="#FAF757" transform="translate(25,360)"/>
<path d="M0 0 C0.99574036 -0.00029205 1.99148071 -0.00058411 3.01739502 -0.00088501 C6.29635444 0.00050415 9.57508436 0.01604605 12.85400391 0.03173828 C15.13229244 0.03546988 17.41058258 0.03831616 19.68887329 0.04031372 C25.67625381 0.04793861 31.66353683 0.06757737 37.65087891 0.08972168 C43.76414674 0.1102047 49.87743038 0.1193207 55.99072266 0.12939453 C67.97904667 0.15082427 79.96729842 0.18494648 91.95556641 0.22705078 C88.65115846 2.42998941 85.40868895 3.47116255 81.65869141 4.62548828 C80.14080126 5.10385606 78.62306705 5.58271888 77.10546875 6.06201172 C76.30598816 6.31301636 75.50650757 6.564021 74.68280029 6.82263184 C59.68425518 11.54166554 44.9554457 16.70323665 30.36669922 22.56835938 C29.16625977 23.04869629 27.96582031 23.5290332 26.72900391 24.02392578 C25.68147949 24.4502832 24.63395508 24.87664063 23.5546875 25.31591797 C20.95556641 26.22705078 20.95556641 26.22705078 17.95556641 26.22705078 C17.95556641 26.88705078 17.95556641 27.54705078 17.95556641 28.22705078 C13.59150418 29.99040775 9.23012339 31.75246481 4.81884766 33.39501953 C-1.45745364 35.73443702 -7.43943683 38.3170196 -13.39208984 41.38330078 C-17.19497913 43.3279974 -21.05822823 45.1400542 -24.92041016 46.96337891 C-65.22246548 64.30214141 -65.22246548 64.30214141 -94.20458984 95.60595703 C-96.39843573 102.45279697 -96.03955003 110.04211586 -92.98193359 116.53955078 C-88.45632354 125.02697435 -81.26931181 130.94208144 -73.60693359 136.47705078 C-71.82562602 137.78817048 -70.04437676 139.09936941 -68.26318359 140.41064453 C-67.38275391 141.05372559 -66.50232422 141.69680664 -65.59521484 142.359375 C-61.91065653 145.05719957 -58.25728831 147.7957173 -54.60693359 150.53955078 C-53.63506104 151.26863647 -53.63506104 151.26863647 -52.64355469 152.01245117 C-42.60786287 159.54751716 -32.69083864 167.19505101 -23.04443359 175.22705078 C-22.51285645 175.66694336 -21.9812793 176.10683594 -21.43359375 176.56005859 C1.06340893 195.19763353 1.06340893 195.19763353 2.39306641 207.16455078 C1.6419588 219.04143975 -4.85286735 229.83488597 -13.04443359 238.22705078 C-15.48464612 240.21568618 -18.05895858 241.9705062 -20.66943359 243.72705078 C-22.19545966 244.77857163 -23.72015004 245.83203294 -25.24365234 246.88720703 C-26.03304199 247.4326416 -26.82243164 247.97807617 -27.63574219 248.54003906 C-31.63762946 251.34290153 -35.55849432 254.25337742 -39.48193359 257.16455078 C-47.87886874 263.38048599 -56.33166967 269.51463438 -64.81054688 275.61816406 C-68.55803143 278.31717206 -72.30099205 281.02243962 -76.04443359 283.72705078 C-77.54441214 284.81041382 -79.04441213 285.89374716 -80.54443359 286.97705078 C-81.65818359 287.78142578 -81.65818359 287.78142578 -82.79443359 288.60205078 C-85.04443359 290.22705078 -87.29443359 291.85205078 -89.54443359 293.47705078 C-90.65878784 294.28190918 -90.65878784 294.28190918 -91.7956543 295.10302734 C-93.29146506 296.18327196 -94.78739553 297.26335086 -96.28344727 298.34326172 C-100.09855517 301.09748623 -103.91136006 303.85480881 -107.72021484 306.61767578 C-108.496875 307.18035156 -109.27353516 307.74302734 -110.07373047 308.32275391 C-111.52245144 309.37242598 -112.97045496 310.42308954 -114.41748047 311.47509766 C-115.77915835 312.46105091 -117.1494277 313.43525268 -118.5282259 314.39711857 C-120.31161861 315.69410521 -122.04346522 317.06333741 -123.73437023 318.47878933 C-132.6594118 325.51805475 -139.9940433 326.48810076 -151.12573242 326.2487793 C-152.80250409 326.24623479 -154.47928575 326.24767702 -156.15605164 326.25276184 C-160.66843378 326.25532421 -165.17862395 326.20274518 -169.6905005 326.13959622 C-174.42023478 326.08299485 -179.15002994 326.07802118 -183.88005066 326.06736755 C-192.81908793 326.03949307 -201.75712409 325.96577391 -210.69572228 325.87522215 C-220.87948483 325.77431542 -231.06329743 325.72506388 -241.24743617 325.67996323 C-262.1803255 325.58611398 -283.11231625 325.42800602 -304.04443359 325.22705078 C-300.87930397 322.65196607 -297.9088475 320.47221224 -294.26318359 318.63330078 C-293.34939941 318.16649902 -292.43561523 317.69969727 -291.49414062 317.21875 C-290.5207373 316.72648926 -289.54733398 316.23422852 -288.54443359 315.72705078 C-275.06488446 308.80234663 -261.94236689 301.32551049 -248.91088867 293.59570312 C-248.2537085 293.20592285 -247.59652832 292.81614258 -246.91943359 292.41455078 C-246.25387451 292.01961426 -245.58831543 291.62467773 -244.90258789 291.21777344 C-238.33170761 287.34557974 -231.65796336 283.66410076 -224.98193359 279.97705078 C-214.00276471 273.91263068 -203.13747496 267.67516198 -192.32568359 261.31689453 C-188.56379418 259.10618249 -184.77985089 256.94437351 -180.96801758 254.82128906 C-175.35879045 251.6897138 -170.15655365 248.28172498 -165.02099609 244.42626953 C-161.42259932 241.76761155 -157.74104338 239.24644582 -154.04443359 236.72705078 C-148.2908616 232.80477876 -142.64489777 228.78238556 -137.08349609 224.59033203 C-135.04443359 223.22705078 -135.04443359 223.22705078 -133.04443359 223.22705078 C-130.91200815 218.96219989 -130.35302443 214.91867767 -131.04443359 210.22705078 C-133.27471368 203.70231296 -137.34367286 199.57036753 -142.41943359 195.10205078 C-143.86232328 193.78596697 -145.30370079 192.4682236 -146.74365234 191.14892578 C-147.46601074 190.49214844 -148.18836914 189.83537109 -148.93261719 189.15869141 C-167.89167558 171.81718042 -189.17741093 148.61296114 -192.44287109 121.97705078 C-192.2908334 104.13796122 -183.29879 91.45362853 -171.04443359 79.22705078 C-170.55201172 78.7267334 -170.05958984 78.22641602 -169.55224609 77.7109375 C-160.95333991 69.04798506 -151.47172877 62.51075843 -141.04443359 56.22705078 C-140.32674805 55.79118652 -139.6090625 55.35532227 -138.86962891 54.90625 C-133.96901748 51.9399739 -129.0263918 49.05441852 -124.04443359 46.22705078 C-123.44518066 45.88609375 -122.84592773 45.54513672 -122.22851562 45.19384766 C-89.97815942 27.01292396 -54.61543065 14.68928018 -19.5065918 3.34936523 C-17.46742058 2.68833498 -15.44067367 1.98076291 -13.45582581 1.1710968 C-8.91141818 -0.08649238 -4.69260129 -0.03619637 0 0 Z " fill="#6D80BA" transform="translate(343.04443359375,19.77294921875)"/>
<path d="M0 0 C241.89 0 483.78 0 733 0 C733 165 733 330 733 500 C491.11 500 249.22 500 0 500 C0 335 0 170 0 0 Z M10 7 C10 166.72 10 326.44 10 491 C243.64 491 477.28 491 718 491 C718 331.28 718 171.56 718 7 C484.36 7 250.72 7 10 7 Z " fill="#FEFEFE" transform="translate(0,0)"/>
<path d="M0 0 C3.83433624 -0.42104717 5.50644053 -0.35954186 8.67578125 1.94921875 C26.25936349 20.21009453 38.62353869 43.94174488 39.046875 69.87109375 C39.03140625 70.57363281 39.0159375 71.27617187 39 72 C39.52207031 71.79503906 40.04414062 71.59007812 40.58203125 71.37890625 C50.98754915 67.57023157 60.53355862 66.92816251 71 71 C80.64645001 76.22286365 88.18772443 83.87809985 92.10546875 94.203125 C95.06124398 106.74903558 94.79137395 119.81494952 88.109375 131.02734375 C81.61571094 140.17859996 74.11288906 146.61635183 65 153 C65.33 154.2375 65.66 155.475 66 156.75 C67.9606038 165.86609213 68.10986086 173.67838831 63.4296875 181.94140625 C61.60801133 184.56442085 59.68391915 186.27953901 57 188 C56.319375 188.556875 55.63875 189.11375 54.9375 189.6875 C50.53136934 192.67229819 45.13488428 192.4890366 40 192 C36.91434131 191.19828807 33.96162614 190.17624868 31 189 C30.70609375 189.51046875 30.4121875 190.0209375 30.109375 190.546875 C24.3390282 199.89881636 15.64901435 209.59655196 6 215 C2.53239986 215.38321188 0.62437955 215.36052884 -2.421875 213.6015625 C-19.77991581 198.86470235 -19.77991581 198.86470235 -24 191 C-24 190.01 -24 189.02 -24 188 C-24.7425 188.474375 -25.485 188.94875 -26.25 189.4375 C-31.52018374 192.43192258 -37.0402272 192.76138067 -43 192 C-50.14198402 189.4517401 -55.44585461 184.73097384 -59.03125 178.08984375 C-62.62847351 169.71297603 -61.27280268 162.24044962 -58 154 C-59.08667969 153.11248047 -59.08667969 153.11248047 -60.1953125 152.20703125 C-62.19319916 150.57409189 -64.18786186 148.937202 -66.1796875 147.296875 C-67.70667074 146.05329308 -69.24243156 144.81895669 -70.8203125 143.640625 C-78.42505147 137.90590381 -85.08578251 127.35399959 -87 118 C-87.62219452 107.7082907 -87.79792973 98.39000769 -83 89 C-82.66097656 88.28714844 -82.32195312 87.57429688 -81.97265625 86.83984375 C-77.62976517 78.81863211 -69.49746057 72.67389062 -60.9765625 69.6171875 C-52.01985656 67.76002275 -42.66606308 68.16052979 -34 71 C-33.88519287 70.37246826 -33.77038574 69.74493652 -33.65209961 69.09838867 C-30.00835396 49.55530931 -25.52462738 31.46017433 -14 15 C-13.46890625 14.22527344 -12.9378125 13.45054688 -12.390625 12.65234375 C-11.93171875 12.10707031 -11.4728125 11.56179687 -11 11 C-10.34 11 -9.68 11 -9 11 C-8.79375 10.443125 -8.5875 9.88625 -8.375 9.3125 C-7.03153247 7.05303189 -5.94842298 6.0001344 -3.9375 4.375 C-0.99175287 2.32880603 -0.99175287 2.32880603 0 0 Z " fill="#FB0000" transform="translate(586,71)"/>
<path d="M0 0 C1.20205078 0.00644531 2.40410156 0.01289063 3.64257812 0.01953125 C5.51139648 0.04466797 5.51139648 0.04466797 7.41796875 0.0703125 C9.31579102 0.08384766 9.31579102 0.08384766 11.25195312 0.09765625 C14.36998439 0.12118856 17.48762972 0.15406705 20.60546875 0.1953125 C17.30106081 2.39825113 14.05859129 3.43942427 10.30859375 4.59375 C8.7907036 5.07211778 7.2729694 5.5509806 5.75537109 6.03027344 C4.9558905 6.28127808 4.15640991 6.53228271 3.33270264 6.79089355 C-11.66584247 11.50992726 -26.39465196 16.67149837 -40.98339844 22.53662109 C-42.18383789 23.01695801 -43.38427734 23.49729492 -44.62109375 23.9921875 C-45.66861816 24.41854492 -46.71614258 24.84490234 -47.79541016 25.28417969 C-50.39453125 26.1953125 -50.39453125 26.1953125 -53.39453125 26.1953125 C-53.39453125 26.8553125 -53.39453125 27.5153125 -53.39453125 28.1953125 C-57.75859347 29.95866947 -62.11997427 31.72072653 -66.53125 33.36328125 C-72.8075513 35.70269874 -78.78953448 38.28528131 -84.7421875 41.3515625 C-88.54507678 43.29625912 -92.40832588 45.10831591 -96.27050781 46.93164062 C-136.57256313 64.27040313 -136.57256313 64.27040313 -165.5546875 95.57421875 C-167.74853338 102.42105869 -167.38964768 110.01037758 -164.33203125 116.5078125 C-159.8064212 124.99523607 -152.61940946 130.91034316 -144.95703125 136.4453125 C-143.17572368 137.7564322 -141.39447442 139.06763113 -139.61328125 140.37890625 C-138.73285156 141.0219873 -137.85242188 141.66506836 -136.9453125 142.32763672 C-133.26075418 145.02546129 -129.60738597 147.76397902 -125.95703125 150.5078125 C-124.98515869 151.23689819 -124.98515869 151.23689819 -123.99365234 151.98071289 C-113.95796053 159.51577888 -104.04093629 167.16331273 -94.39453125 175.1953125 C-93.8629541 175.63520508 -93.33137695 176.07509766 -92.78369141 176.52832031 C-70.28668872 195.16589525 -70.28668872 195.16589525 -68.95703125 207.1328125 C-69.70813885 219.00970146 -76.20296501 229.80314769 -84.39453125 238.1953125 C-86.83474377 240.1839479 -89.40905624 241.93876792 -92.01953125 243.6953125 C-93.54555731 244.74683334 -95.0702477 245.80029466 -96.59375 246.85546875 C-97.77783447 247.67362061 -97.77783447 247.67362061 -98.98583984 248.50830078 C-102.98772712 251.31116324 -106.90859198 254.22163914 -110.83203125 257.1328125 C-119.22896639 263.34874771 -127.68176732 269.48289609 -136.16064453 275.58642578 C-139.90812909 278.28543378 -143.6510897 280.99070134 -147.39453125 283.6953125 C-148.89450979 284.77867554 -150.39450979 285.86200888 -151.89453125 286.9453125 C-152.63703125 287.4815625 -153.37953125 288.0178125 -154.14453125 288.5703125 C-156.39453125 290.1953125 -158.64453125 291.8203125 -160.89453125 293.4453125 C-161.63743408 293.98188477 -162.38033691 294.51845703 -163.14575195 295.07128906 C-164.64156272 296.15153368 -166.13749318 297.23161257 -167.63354492 298.31152344 C-172.22606231 301.62697984 -176.81491082 304.94738771 -181.39746094 308.27661133 C-182.92813449 309.38254724 -184.4639148 310.48145175 -186.00488281 311.57299805 C-189.33900706 313.93824703 -192.57947295 316.29936652 -195.640625 319.01171875 C-205.40112907 327.12220262 -215.21705509 326.15449165 -227.39453125 325.1953125 C-223.70256476 321.1400408 -219.34404893 318.1613005 -214.89453125 315.0078125 C-213.26249278 313.83927882 -211.63098269 312.67000683 -210 311.5 C-209.20770996 310.93249023 -208.41541992 310.36498047 -207.59912109 309.78027344 C-200.34279703 304.56343448 -193.28150984 299.12488942 -186.33203125 293.5078125 C-178.35982438 287.07336034 -170.12232093 281.02321468 -161.84716797 274.98632812 C-157.79234989 272.02533416 -153.74946021 269.04818722 -149.70703125 266.0703125 C-148.91659424 265.48854248 -148.12615723 264.90677246 -147.31176758 264.30737305 C-141.64326419 260.13024195 -136.0114914 255.90627492 -130.38867188 251.66796875 C-125.37545306 247.90179438 -120.29924171 244.2287003 -115.20703125 240.5703125 C-112.9662438 238.9510364 -110.72679255 237.32994056 -108.48828125 235.70751953 C-107.14535159 234.73759109 -105.79925925 233.77201793 -104.44921875 232.81201172 C-96.32628671 227.02442264 -88.66094273 220.99454694 -85.39453125 211.1953125 C-84.67194984 205.61588642 -84.63113314 200.5881377 -87.51953125 195.6328125 C-90.44533754 191.91125724 -93.81524919 189.24785668 -97.67578125 186.5703125 C-98.59346786 185.92466591 -98.59346786 185.92466591 -99.5296936 185.26597595 C-105.89899821 180.80247179 -112.33677609 176.4382898 -118.78729248 172.09332275 C-121.5051778 170.26217921 -124.21972941 168.42612018 -126.93447876 166.59033203 C-128.90919577 165.25500321 -130.88426165 163.9201917 -132.859375 162.58544922 C-152.54534901 149.27829145 -152.54534901 149.27829145 -159.390625 143.796875 C-160.78140583 142.68533476 -162.19197329 141.59828208 -163.6171875 140.53125 C-174.25414145 132.53985064 -183.2004276 124.31795851 -185.33203125 110.5703125 C-185.96678794 99.38272576 -180.8004726 89.83888899 -173.55200195 81.60644531 C-171.22947279 79.07160516 -168.82826023 76.62302166 -166.39453125 74.1953125 C-165.62367188 73.41285156 -164.8528125 72.63039063 -164.05859375 71.82421875 C-128.3153127 37.6058217 -71.85304377 22.60461218 -26.00585938 7.14526367 C-24.61113403 6.67476593 -24.61113403 6.67476593 -23.18823242 6.19476318 C-21.43565507 5.60432417 -19.6825898 5.0153307 -17.92895508 4.42803955 C-17.14093506 4.16295593 -16.35291504 3.89787231 -15.54101562 3.62475586 C-14.44426765 3.25613434 -14.44426765 3.25613434 -13.32536316 2.88006592 C-11.76601756 2.32705702 -10.23882149 1.68390749 -8.72583008 1.0144043 C-5.72574789 -0.03966165 -3.17531225 -0.03009775 0 0 Z " fill="#FEFBFA" transform="translate(414.39453125,19.8046875)"/>
<path d="M0 0 C3.83433624 -0.42104717 5.50644053 -0.35954186 8.67578125 1.94921875 C26.25936349 20.21009453 38.62353869 43.94174488 39.046875 69.87109375 C39.03140625 70.57363281 39.0159375 71.27617187 39 72 C39.52207031 71.79503906 40.04414062 71.59007812 40.58203125 71.37890625 C50.98754915 67.57023157 60.53355862 66.92816251 71 71 C80.64645001 76.22286365 88.18772443 83.87809985 92.10546875 94.203125 C95.06124398 106.74903558 94.79137395 119.81494952 88.109375 131.02734375 C81.61571094 140.17859996 74.11288906 146.61635183 65 153 C65.33 154.2375 65.66 155.475 66 156.75 C67.9606038 165.86609213 68.10986086 173.67838831 63.4296875 181.94140625 C61.60801133 184.56442085 59.68391915 186.27953901 57 188 C56.319375 188.556875 55.63875 189.11375 54.9375 189.6875 C50.53136934 192.67229819 45.13488428 192.4890366 40 192 C36.91434131 191.19828807 33.96162614 190.17624868 31 189 C30.70609375 189.51046875 30.4121875 190.0209375 30.109375 190.546875 C24.3390282 199.89881636 15.64901435 209.59655196 6 215 C2.53239986 215.38321188 0.62437955 215.36052884 -2.421875 213.6015625 C-19.77991581 198.86470235 -19.77991581 198.86470235 -24 191 C-24 190.01 -24 189.02 -24 188 C-24.7425 188.474375 -25.485 188.94875 -26.25 189.4375 C-31.52018374 192.43192258 -37.0402272 192.76138067 -43 192 C-50.14198402 189.4517401 -55.44585461 184.73097384 -59.03125 178.08984375 C-62.62847351 169.71297603 -61.27280268 162.24044962 -58 154 C-59.08667969 153.11248047 -59.08667969 153.11248047 -60.1953125 152.20703125 C-62.19319916 150.57409189 -64.18786186 148.937202 -66.1796875 147.296875 C-67.70667074 146.05329308 -69.24243156 144.81895669 -70.8203125 143.640625 C-78.42505147 137.90590381 -85.08578251 127.35399959 -87 118 C-87.62219452 107.7082907 -87.79792973 98.39000769 -83 89 C-82.66097656 88.28714844 -82.32195312 87.57429688 -81.97265625 86.83984375 C-77.62976517 78.81863211 -69.49746057 72.67389062 -60.9765625 69.6171875 C-52.01985656 67.76002275 -42.66606308 68.16052979 -34 71 C-33.88519287 70.37246826 -33.77038574 69.74493652 -33.65209961 69.09838867 C-30.00835396 49.55530931 -25.52462738 31.46017433 -14 15 C-13.46890625 14.22527344 -12.9378125 13.45054688 -12.390625 12.65234375 C-11.93171875 12.10707031 -11.4728125 11.56179687 -11 11 C-10.34 11 -9.68 11 -9 11 C-8.79375 10.443125 -8.5875 9.88625 -8.375 9.3125 C-7.03153247 7.05303189 -5.94842298 6.0001344 -3.9375 4.375 C-0.99175287 2.32880603 -0.99175287 2.32880603 0 0 Z M-3 12 C-19.41837264 30.95965118 -27.54970261 56.9751727 -26 82 C-27.44632813 81.47599609 -27.44632813 81.47599609 -28.921875 80.94140625 C-30.19788003 80.48166914 -31.47392374 80.02203937 -32.75 79.5625 C-33.38421875 79.33240234 -34.0184375 79.10230469 -34.671875 78.86523438 C-43.33097095 75.75337177 -51.7616591 74.5401345 -60.8125 77.0625 C-69.65710861 82.43863465 -76.09310558 89.63874729 -79.4921875 99.54296875 C-81.69052867 110.17955794 -80.41762521 119.95532547 -74.6796875 129.10546875 C-70.3446132 135.22905731 -64.97540407 141.93082221 -58 145 C-57.36384766 143.98679688 -57.36384766 143.98679688 -56.71484375 142.953125 C-53.03353733 137.35430293 -50.33139744 133.44369726 -44 131 C-38.3974349 130.05699399 -33.97868968 131.22342306 -29 134 C-26.25682041 136.81536852 -24.58090899 139.07886431 -24 143 C-25.32 143 -26.64 143 -28 143 C-28 144.32 -28 145.64 -28 147 C-26.68 147 -25.36 147 -24 147 C-24.81956172 150.87429175 -25.47599747 153.43108296 -28.1875 156.375 C-31.74071567 158.42796906 -33.87163554 159.1423574 -38 159 C-40.01184087 157.57441884 -41.64083268 156.04989728 -43.32421875 154.25 C-44.92898545 152.77062728 -44.92898545 152.77062728 -47.06640625 153.13671875 C-49.74035914 154.33054418 -50.91273783 156.15551329 -52.2265625 158.71484375 C-54.13181196 164.34398989 -54.25682429 170.27359747 -51.75390625 175.703125 C-49.44915588 179.26657943 -47.55561618 181.62958921 -44 184 C-34.35289708 185.92942058 -27.06900037 181.61758853 -19 177 C-18.979375 178.093125 -18.95875 179.18625 -18.9375 180.3125 C-17.68305703 189.92424544 -10.05055089 197.40123476 -3.625 204.1015625 C-0.2818484 206.5193775 1.88319763 207.02294762 6 207 C15.14025673 201.53732087 22.76732553 191.11636953 26 181 C26 179.68 26 178.36 26 177 C27.34191406 177.75796875 27.34191406 177.75796875 28.7109375 178.53125 C38.75135785 184.0130377 38.75135785 184.0130377 50 184 C54.73265467 182.21210824 57.91955418 178.56328239 60 174 C61.37816073 166.2075959 59.34120968 158.51181452 55 152 C52.47562314 153.0818758 51.0225394 153.97435171 49.1875 156.0625 C46.1294615 158.77104838 44.05111538 159 40 159 C34.27040127 156.41606332 32.29032689 152.55067458 30 147 C31.65 147 33.3 147 35 147 C34.505 144.525 34.505 144.525 34 142 C33.01 142 32.02 142 31 142 C35 134.42857143 35 134.42857143 39 132 C44.24157848 130.6407708 49.37780696 130.28241192 54.375 132.5625 C59.32830389 135.49591153 62.74937505 139.68034102 65 145 C75.41002628 139.32180385 83.17099525 130.26196216 87 118.9375 C89.7644511 107.53413923 87.50492844 98.66472332 81.61328125 88.640625 C77.23473761 82.2587477 71.28727378 78.45771089 64 76 C53.03752944 74.65447713 42.79873891 77.10063054 33 82 C33.02320313 81.29617187 33.04640625 80.59234375 33.0703125 79.8671875 C33.51742409 55.40379605 26.19852809 29.06568077 9 11 C4.03301527 6.71550172 1.69006249 7.75559956 -3 12 Z " fill="#0E0703" transform="translate(586,71)"/>
<path d="M0 0 C42.23768737 0 42.23768737 0 49.171875 5.82421875 C59.00427269 17.43326256 60.35046346 29.55406548 60.3125 44.375 C60.32861328 45.62539063 60.34472656 46.87578125 60.36132812 48.1640625 C60.36753928 60.03979267 58.42278306 70.45403349 51 80 C37.32477958 93.42506395 18.49801181 88 0 88 C0 58.96 0 29.92 0 0 Z " fill="#010100" transform="translate(480,374)"/>
<path d="M0 0 C7.30125 -0.061875 14.6025 -0.12375 22.125 -0.1875 C24.41969238 -0.21481201 26.71438477 -0.24212402 29.07861328 -0.27026367 C30.90917434 -0.27903027 32.73974127 -0.2866738 34.5703125 -0.29296875 C35.98171509 -0.3159906 35.98171509 -0.3159906 37.42163086 -0.33947754 C42.72069606 -0.34158201 46.43106806 0.00443692 51 3 C57.3362436 9.3362436 59.17015716 15.52273136 59.5 24.375 C59.31963359 32.25622771 57.68629548 38.1396734 52.1796875 43.90625 C49.89723856 45.93084906 47.73119942 47.63440029 45 49 C45.42410156 49.391875 45.84820313 49.78375 46.28515625 50.1875 C52.72860509 56.75840168 55.66980745 64.589309 59 73 C59.26119629 73.64888184 59.52239258 74.29776367 59.79150391 74.96630859 C64 85.4374799 64 85.4374799 64 88 C56.41 88 48.82 88 41 88 C36.49861166 78.99722332 36.49861166 78.99722332 34.67578125 74.29296875 C34.28712891 73.29458984 33.89847656 72.29621094 33.49804688 71.26757812 C32.91120117 69.74293945 32.91120117 69.74293945 32.3125 68.1875 C31.90966797 67.15173828 31.50683594 66.11597656 31.09179688 65.04882812 C28.1860119 57.55803571 28.1860119 57.55803571 27 54 C24.69 53.34 22.38 52.68 20 52 C20 63.88 20 75.76 20 88 C13.4 88 6.8 88 0 88 C0 58.96 0 29.92 0 0 Z " fill="#020200" transform="translate(618,374)"/>
<path d="M0 0 C6.27 0 12.54 0 19 0 C19 29.37 19 58.74 19 89 C12.73 89 6.46 89 0 89 C-8.27177063 73.4590976 -16.15710908 57.76267293 -24 42 C-24.33 57.51 -24.66 73.02 -25 89 C-30.94 89 -36.88 89 -43 89 C-43 59.96 -43 30.92 -43 1 C-36.73 1 -30.46 1 -24 1 C-16.08503825 15.88485344 -8.5075046 30.90512373 -1 46 C-0.67 30.82 -0.34 15.64 0 0 Z " fill="#020100" transform="translate(447,373)"/>
<path d="M0 0 C6.6 0 13.2 0 20 0 C20 10.56 20 21.12 20 32 C27.59 32 35.18 32 43 32 C43 21.77 43 11.54 43 1 C49.6 1 56.2 1 63 1 C63 30.04 63 59.08 63 89 C56.4 89 49.8 89 43 89 C43 77.12 43 65.24 43 53 C35.41 53 27.82 53 20 53 C20 64.88 20 76.76 20 89 C13.4 89 6.8 89 0 89 C0 59.63 0 30.26 0 0 Z " fill="#020200" transform="translate(230,373)"/>
<path d="M0 0 C7.59 0 15.18 0 23 0 C28.36661009 18.05132484 33.63808097 36.1294192 38.07495117 54.43457031 C40.04519646 62.43884389 42.38448586 70.33037424 44.765625 78.22094727 C45.05566406 79.19088623 45.34570312 80.1608252 45.64453125 81.16015625 C45.90596924 82.02261963 46.16740723 82.88508301 46.43676758 83.77368164 C47 86 47 86 47 89 C39.74 89 32.48 89 25 89 C23 79 23 79 23 75 C15.08 75 7.16 75 -1 75 C-1.33 78.3 -1.66 81.6 -2 85 C-2.33 86.32 -2.66 87.64 -3 89 C-9.93 89 -16.86 89 -24 89 C-23.28112545 83.96787814 -22.43940439 79.48460969 -21.14453125 74.6171875 C-20.96240585 73.92912018 -20.78028046 73.24105286 -20.59263611 72.53213501 C-20.00349528 70.31193662 -19.40827905 68.09342542 -18.8125 65.875 C-18.40190168 64.33531753 -17.99142066 62.79560378 -17.58105469 61.25585938 C-14.93490926 51.35468544 -12.19941509 41.48245023 -9.33984375 31.640625 C-7.74482685 26.15015289 -6.23006591 20.63769683 -4.73535156 15.11914062 C-3.33042613 9.99471803 -1.68742758 5.06228274 0 0 Z " fill="#050502" transform="translate(117,373)"/>
<path d="M0 0 C17.82 0 35.64 0 54 0 C54 5.94 54 11.88 54 18 C42.78 18 31.56 18 20 18 C20 22.95 20 27.9 20 33 C30.56 33 41.12 33 52 33 C52 38.94 52 44.88 52 51 C41.44 51 30.88 51 20 51 C20 56.61 20 62.22 20 68 C31.55 68 43.1 68 55 68 C55 74.6 55 81.2 55 88 C36.85 88 18.7 88 0 88 C0 58.96 0 29.92 0 0 Z " fill="#010100" transform="translate(551,374)"/>
<path d="M0 0 C41 0 41 0 47 3 C53.01085405 9.15064135 55.37133081 14.8600358 55.41015625 23.28515625 C55.39855469 24.13980469 55.38695312 24.99445313 55.375 25.875 C55.38660156 26.72191406 55.39820313 27.56882812 55.41015625 28.44140625 C55.37690511 35.67907038 54.21552311 43.26786436 49.25 48.875 C48.80140625 49.40867187 48.3528125 49.94234375 47.890625 50.4921875 C41.97912612 55.20673 36.31445944 55.40088549 29.0625 55.1875 C24.5765625 55.0946875 24.5765625 55.0946875 20 55 C20 65.89 20 76.78 20 88 C13.4 88 6.8 88 0 88 C0 58.96 0 29.92 0 0 Z " fill="#010100" transform="translate(41,374)"/>
<path d="M0 0 C16.5 0 33 0 50 0 C50 5.94 50 11.88 50 18 C40.1 18 30.2 18 20 18 C20 23.28 20 28.56 20 34 C28.58 34 37.16 34 46 34 C46 39.94 46 45.88 46 52 C37.42 52 28.84 52 20 52 C20 63.88 20 75.76 20 88 C13.4 88 6.8 88 0 88 C0 58.96 0 29.92 0 0 Z " fill="#010100" transform="translate(307,374)"/>
<path d="M0 0 C20.13 0 40.26 0 61 0 C61 6.93 61 13.86 61 21 C54.4 21 47.8 21 41 21 C41 43.11 41 65.22 41 88 C34.07 88 27.14 88 20 88 C20 65.89 20 43.78 20 21 C13.4 21 6.8 21 0 21 C0 14.07 0 7.14 0 0 Z " fill="#040401" transform="translate(160,374)"/>
<path d="M0 0 C6.6 0 13.2 0 20 0 C20 29.37 20 58.74 20 89 C13.4 89 6.8 89 0 89 C0 59.63 0 30.26 0 0 Z " fill="#040401" transform="translate(369,373)"/>
<path d="M0 0 C9.44827586 0 9.44827586 0 14 3 C19.79187888 9.26149069 19.24636249 15.06680544 19.29516602 23.23193359 C19.31232027 25.22907549 19.35621525 27.22592929 19.40039062 29.22265625 C19.48169618 41.56859237 19.48169618 41.56859237 15 47 C11 49 11 49 0 49 C0 32.83 0 16.66 0 0 Z " fill="#F7F556" transform="translate(500,393)"/>
<path d="M0 0 C13.32210526 -0.49341131 13.32210526 -0.49341131 16.42578125 1.765625 C18.83119092 5.17975485 18.69412451 7.97573054 18 12 C16.25746655 15.23613354 15.52814056 15.82395315 12 17 C7.99616868 17.13399703 4.0072645 17.04308887 0 17 C0 11.39 0 5.78 0 0 Z " fill="#FCFA58" transform="translate(638,392)"/>
<path d="M0 0 C10.02272727 0.47727273 10.02272727 0.47727273 13.6875 2.4375 C15.80504482 6.57175417 15.81254491 10.46878108 15 15 C13.125 18.125 13.125 18.125 10 20 C6.7 20 3.4 20 0 20 C0 13.4 0 6.8 0 0 Z " fill="#F4F255" transform="translate(61,391)"/>
<path d="M0 0 C0.33 0 0.66 0 1 0 C2.00342042 4.4575707 3.00215865 8.91617738 4 13.375 C4.28617188 14.64601563 4.57234375 15.91703125 4.8671875 17.2265625 C5.13789063 18.43828125 5.40859375 19.65 5.6875 20.8984375 C6.06455078 22.57945557 6.06455078 22.57945557 6.44921875 24.29443359 C7 27 7 27 7 29 C2.38 29 -2.24 29 -7 29 C-6.28873854 25.68077984 -5.57708384 22.36164337 -4.86328125 19.04296875 C-4.28787483 16.36012818 -3.7235612 13.67529241 -3.16796875 10.98828125 C-2.90628906 9.73402344 -2.64460938 8.47976563 -2.375 7.1875 C-2.13523437 6.02605469 -1.89546875 4.86460937 -1.6484375 3.66796875 C-1 1 -1 1 0 0 Z " fill="#F7F656" transform="translate(128,399)"/>
<path d="M0 0 C4.35820909 0.10319985 6.91073093 1.52440445 10.25 4.375 C10.58 5.365 10.91 6.355 11.25 7.375 C10.5075 7.024375 9.765 6.67375 9 6.3125 C6.1177274 5.32990707 5.03823655 5.3423198 2.25 6.375 C2.311875 7.303125 2.37375 8.23125 2.4375 9.1875 C2.25 12.375 2.25 12.375 1.0625 14.25 C-1.31036279 15.72281139 -3.00913944 15.59723194 -5.75 15.375 C-5.66621094 14.77171875 -5.58242188 14.1684375 -5.49609375 13.546875 C-5.39425781 12.74765625 -5.29242187 11.9484375 -5.1875 11.125 C-5.08308594 10.33609375 -4.97867188 9.5471875 -4.87109375 8.734375 C-4.62628837 6.37969445 -4.62628837 6.37969445 -5.34765625 4.203125 C-5.48042969 3.59984375 -5.61320313 2.9965625 -5.75 2.375 C-3.75 0.375 -3.75 0.375 0 0 Z " fill="#F9F857" transform="translate(630.75,207.625)"/>
<path d="M0 0 C2.38376485 3.645758 1.69282842 5.84302947 1 10 C1.82342532 12.31980946 1.82342532 12.31980946 3 14 C2 15 2 15 -1.0625 15.0625 C-2.031875 15.041875 -3.00125 15.02125 -4 15 C-4.66 11.7 -5.32 8.4 -6 5 C-7.98 5 -9.96 5 -12 5 C-12.33 5.99 -12.66 6.98 -13 8 C-13.66 8 -14.32 8 -15 8 C-14.09126425 4.94334338 -13.32469175 3.27694297 -10.875 1.1875 C-7.02507023 -0.40268838 -4.14686216 -0.2108574 0 0 Z " fill="#F5F355" transform="translate(551,208)"/>
<path d="M0 0 C1.98 0 3.96 0 6 0 C5.4112207 0.26280762 4.82244141 0.52561523 4.21582031 0.79638672 C1.89660759 2.05616181 0.39050597 3.38004021 -1.453125 5.2578125 C-2.38125 6.19560547 -2.38125 6.19560547 -3.328125 7.15234375 C-4.27945313 8.12880859 -4.27945313 8.12880859 -5.25 9.125 C-6.22453125 10.11306641 -6.22453125 10.11306641 -7.21875 11.12109375 C-8.81711727 12.74296643 -10.41061897 14.3693281 -12 16 C-12.66 15.67 -13.32 15.34 -14 15 C-12.625 13 -12.625 13 -11 11 C-10.34 11 -9.68 11 -9 11 C-8.79375 10.443125 -8.5875 9.88625 -8.375 9.3125 C-7.03153247 7.05303189 -5.94842298 6.0001344 -3.9375 4.375 C-0.99175287 2.32880603 -0.99175287 2.32880603 0 0 Z " fill="#343412" transform="translate(586,71)"/>
<path d="M0 0 C0.99 0.33 1.98 0.66 3 1 C2.45730469 1.47050781 1.91460938 1.94101563 1.35546875 2.42578125 C0.28232422 3.35970703 0.28232422 3.35970703 -0.8125 4.3125 C-1.52019531 4.92738281 -2.22789062 5.54226562 -2.95703125 6.17578125 C-4.70136739 7.73334335 -6.36778041 9.32658875 -8 11 C-8.66 10.67 -9.32 10.34 -10 10 C-8.90033225 8.70450101 -7.79508199 7.41373929 -6.6875 6.125 C-6.07261719 5.40570313 -5.45773437 4.68640625 -4.82421875 3.9453125 C-3 2 -3 2 0 0 Z " fill="#DD0000" transform="translate(588,79)"/>
</svg>
