<?xml version="1.0" encoding="UTF-8"?>
<svg version="1.1" xmlns="http://www.w3.org/2000/svg" width="706" height="749">
<path d="M0 0 C232.98 0 465.96 0 706 0 C706 247.17 706 494.34 706 749 C473.02 749 240.04 749 0 749 C0 501.83 0 254.66 0 0 Z " fill="#612599" transform="translate(0,0)"/>
<path d="M0 0 C232.98 0 465.96 0 706 0 C706 247.17 706 494.34 706 749 C473.02 749 240.04 749 0 749 C0 501.83 0 254.66 0 0 Z M5 350 C5 478.7 5 607.4 5 740 C233.69 740 462.38 740 698 740 C698 611.3 698 482.6 698 350 C469.31 350 240.62 350 5 350 Z " fill="#219562" transform="translate(0,0)"/>
<path d="M0 0 C228.69 0 457.38 0 693 0 C693 57.42 693 114.84 693 174 C464.31 174 235.62 174 0 174 C0 116.58 0 59.16 0 0 Z " fill="#9B2526" transform="translate(5,350)"/>
<path d="M0 0 C80.56245929 -0.02013078 80.56245929 -0.02013078 105.48069763 -0.02565002 C106.81374495 -0.02594602 106.81374495 -0.02594602 108.17372251 -0.02624801 C138.07484499 -0.03286962 167.97596754 -0.03812176 197.87709045 -0.04234314 C198.85249078 -0.0424812 199.8278911 -0.04261925 200.83284901 -0.04276149 C222.02825455 -0.04575404 243.22366011 -0.04852427 264.41906571 -0.05106533 C274.81249889 -0.05231272 285.20593206 -0.05360927 295.59936523 -0.05493164 C297.15081581 -0.05512778 297.15081581 -0.05512778 298.73360882 -0.05532788 C332.28987207 -0.05959321 365.84613365 -0.06710748 399.40239588 -0.07629722 C433.87075263 -0.08571966 468.33910846 -0.09188308 502.80746648 -0.09391499 C507.67003566 -0.09420317 512.53260485 -0.0945288 517.39517403 -0.09487724 C518.35224674 -0.09494467 519.30931945 -0.09501209 520.29539436 -0.09508156 C535.73414752 -0.09626568 551.17289781 -0.10091021 566.6116498 -0.10683203 C582.11309851 -0.11270466 597.61454437 -0.11497166 613.11599415 -0.11350138 C622.33841737 -0.11273777 631.56083019 -0.11479539 640.78325155 -0.12079754 C646.93193552 -0.12452772 653.08061263 -0.12467767 659.22929707 -0.12183181 C662.74033132 -0.12031178 666.25134579 -0.1204284 669.76237797 -0.12488318 C673.53151376 -0.12884223 677.3005969 -0.12676648 681.06973171 -0.12304783 C682.17731174 -0.12567484 683.28489178 -0.12830186 684.42603484 -0.13100848 C685.91729283 -0.12763754 685.91729283 -0.12763754 687.43867725 -0.1241985 C688.30203001 -0.12435448 689.16538276 -0.12451046 690.05489772 -0.12467116 C692 0 692 0 693 1 C693 57.43 693 113.86 693 172 C464.31 172 235.62 172 0 172 C0 115.24 0 58.48 0 0 Z " fill="#265D90" transform="translate(5,178)"/>
<path d="M0 0 C6.66608199 -0.00128971 13.33215956 -0.00504745 19.99823993 -0.00973773 C28.95664931 -0.01580934 37.91504348 -0.01588007 46.87345356 -0.01148868 C50.16979359 -0.01001516 53.46612186 -0.01071493 56.76246113 -0.01332736 C60.54491601 -0.01617603 64.32733744 -0.01431723 68.10978872 -0.00853896 C69.48383966 -0.0072342 70.8578934 -0.0076363 72.23194319 -0.00984168 C74.08732459 -0.01254569 75.94271226 -0.00855954 77.7980904 -0.00415301 C78.83218697 -0.00377599 79.86628355 -0.00339896 80.93171638 -0.00301051 C83.23929828 0.12283063 83.23929828 0.12283063 84.23929828 1.12283063 C84.33629888 3.32508517 84.36116538 5.53051727 84.3595528 7.73490644 C84.36083444 8.78361925 84.36083444 8.78361925 84.36214197 9.85351819 C84.36379879 12.21357814 84.35827212 14.57356816 84.35282367 16.93362164 C84.35254182 18.61847677 84.3526995 20.30333202 84.35326618 21.98818707 C84.35355422 26.57683516 84.3476564 31.16545733 84.34069222 35.75409937 C84.33445982 40.54407695 84.33385498 45.33405506 84.33266681 50.12403607 C84.32955316 59.20112095 84.32133932 68.27819384 84.31131732 77.35527343 C84.30015723 87.68641644 84.294646 98.01756002 84.28962189 108.34870756 C84.27915673 129.60675528 84.26155664 150.8647922 84.23929828 172.12283063 C59.19763829 172.15462352 34.15597579 172.17419095 9.11429828 172.18533063 C8.16671839 172.18576493 7.21913849 172.18619924 6.24284405 172.1866467 C-41.81360319 172.2080615 -89.86890896 172.1534156 -137.92476422 171.90017438 C-138.86061085 171.89527029 -139.79645747 171.89036621 -140.76066309 171.88531351 C-181.0942458 171.67279722 -221.42745528 171.38731093 -261.76070172 171.12283063 C-261.76070172 115.02283063 -261.76070172 58.92283063 -261.76070172 1.12283063 C-165.86052319 0.49449203 -165.86052319 0.49449203 -137.85445172 0.34939313 C-136.87169451 0.3442748 -135.8889373 0.33915648 -134.87639958 0.33388305 C-89.91772707 0.10096805 -44.95924575 0.00811506 0 0 Z " fill="#136AB0" transform="translate(613.7607017159462,177.87716937065125)"/>
<path d="M0 0 C0.93094254 -0.00047986 1.86188509 -0.00095972 2.82103801 -0.00145411 C42.90022052 -0.02094391 82.97944976 0.03333765 123.05859375 0.06640625 C123.05859375 55.83640625 123.05859375 111.60640625 123.05859375 169.06640625 C9.20859375 169.06640625 -104.64140625 169.06640625 -221.94140625 169.06640625 C-221.94140625 113.62640625 -221.94140625 58.18640625 -221.94140625 1.06640625 C-125.80590269 0.42710116 -125.80590269 0.42710116 -99.7265625 0.2890625 C-98.75328042 0.28388147 -97.77999835 0.27870043 -96.77722287 0.2733624 C-64.51816261 0.10273957 -32.25950053 0.01566229 0 0 Z " fill="#AE1D1E" transform="translate(228.94140625,351.93359375)"/>
<path d="M0 0 C232.98 0 465.96 0 706 0 C706 247.17 706 494.34 706 749 C473.02 749 240.04 749 0 749 C0 501.83 0 254.66 0 0 Z M6 6 C5.41216422 107.10775454 4.8477632 208.19582711 4.89871979 309.30203247 C4.90518323 323.09735077 4.90469496 336.89266825 4.90539551 350.68798828 C4.91053211 390.37532663 4.92449116 430.06266345 4.9375 469.75 C4.958125 558.9325 4.97875 648.115 5 740 C233.69 740 462.38 740 698 740 C698 497.78 698 255.56 698 6 C641.24 6 584.48 6 526 6 C526 62.43 526 118.86 526 177 C468.91 177 411.82 177 353 177 C353 120.57 353 64.14 353 6 C238.49 6 123.98 6 6 6 Z " fill="#89A93E" transform="translate(0,0)"/>
<path d="M0 0 C57.42 0 114.84 0 174 0 C174 56.76 174 113.52 174 172 C116.58 172 59.16 172 0 172 C0 115.24 0 58.48 0 0 Z " fill="#017EC2" transform="translate(5,178)"/>
<path d="M0 0 C57.09 0 114.18 0 173 0 C173 56.43 173 112.86 173 171 C115.91 171 58.82 171 0 171 C0 114.57 0 58.14 0 0 Z " fill="#5EA443" transform="translate(6,6)"/>
<path d="M0 0 C56.76 0 113.52 0 172 0 C172 56.43 172 112.86 172 171 C115.24 171 58.48 171 0 171 C0 114.57 0 58.14 0 0 Z " fill="#2A9549" transform="translate(526,6)"/>
<path d="M0 0 C56.1 0 112.2 0 170 0 C170 56.1 170 112.2 170 170 C113.9 170 57.8 170 0 170 C0 113.9 0 57.8 0 0 Z " fill="#0195D8" transform="translate(527,179)"/>
<path d="M0 0 C56.76 0 113.52 0 172 0 C172 55.44 172 110.88 172 168 C115.24 168 58.48 168 0 168 C0 112.56 0 57.12 0 0 Z " fill="#C5371C" transform="translate(7,353)"/>
<path d="M0 0 C56.1 0 112.2 0 170 0 C170 55.44 170 110.88 170 168 C113.9 168 57.8 168 0 168 C0 112.56 0 57.12 0 0 Z " fill="#C10F1B" transform="translate(527,353)"/>
<path d="M0 0 C0.79664063 0.28875 1.59328125 0.5775 2.4140625 0.875 C4.6888477 1.80145797 6.8248302 2.85839598 9 4 C10.06734375 4.54269531 11.1346875 5.08539062 12.234375 5.64453125 C32.39340215 16.26100521 45.21155998 33.08537681 52.25 54.625 C53.75657004 59.80079708 54.79658165 64.61788941 55 70 C55.0515625 71.09699219 55.103125 72.19398438 55.15625 73.32421875 C55.65323291 93.14141211 50.85879838 111.56944194 38 127 C37.28714844 127.86367188 36.57429687 128.72734375 35.83984375 129.6171875 C27.88134268 138.85297887 19.43877884 145.17576311 8.44506836 150.29931641 C5.09916193 151.86728961 2.49196549 153.26765199 0 156 C-0.99 156.33 -1.98 156.66 -3 157 C-2.67 158.32 -2.34 159.64 -2 161 C-1.05125 161.144375 -0.1025 161.28875 0.875 161.4375 C4 162 4 162 6 163 C5.67 164.32 5.34 165.64 5 167 C4.154375 166.855625 3.30875 166.71125 2.4375 166.5625 C-1.03593149 165.9941203 -4.51445662 165.48797607 -8 165 C-8 165.66 -8 166.32 -8 167 C-12.29963836 170.49345617 -15.69602028 170.4277403 -21 170 C-22.485 169.01 -22.485 169.01 -24 168 C-25.98491642 168.26676204 -25.98491642 168.26676204 -28 169 C-31.90468399 170.255077 -35.94464092 170.61518421 -40 170 C-42.75 168.0625 -42.75 168.0625 -45 166 C-48.74509976 164.30866462 -51.26500283 165.6771885 -55 167 C-56.32 167 -57.64 167 -59 167 C-58.8125 164.625 -58.8125 164.625 -58 162 C-55.11090151 160.40339294 -53.30941204 160 -50 160 C-50 158.02 -50 156.04 -50 154 C-51.01191406 153.90074219 -52.02382813 153.80148437 -53.06640625 153.69921875 C-70.2493634 150.64485 -85.18959704 136.35006469 -94.875 122.5 C-107.54885081 103.35343253 -110.69295455 81.29208782 -106.62109375 58.8828125 C-102.45661091 39.55332611 -90.42525838 21.34477164 -73.8125 10.375 C-50.8754574 -3.37446504 -25.90706368 -9.5902755 0 0 Z " fill="#632999" transform="translate(377,551)"/>
<path d="M0 0 C232.98 0 465.96 0 706 0 C706 247.17 706 494.34 706 749 C473.02 749 240.04 749 0 749 C0 501.83 0 254.66 0 0 Z M5 5 C5 247.55 5 490.1 5 740 C233.69 740 462.38 740 698 740 C698 497.45 698 254.9 698 5 C469.31 5 240.62 5 5 5 Z " fill="#FCFCFC" transform="translate(0,0)"/>
<path d="M0 0 C9.16036966 7.64236554 15.17740498 17.60443156 17.67578125 29.3359375 C17.89385502 32.58322081 17.86090959 35.83201921 17.86328125 39.0859375 C17.87552734 39.95476562 17.88777344 40.82359375 17.90039062 41.71875 C17.92928544 54.54804824 12.99145467 67.56417471 4.109375 77 C-7.45244311 87.95838292 -21.54200623 92.67931079 -37.21484375 92.484375 C-51.09862941 91.82158121 -63.27327432 87.04089417 -73.32421875 77.3359375 C-80.32421875 69.581898 -80.32421875 69.581898 -80.32421875 65.3359375 C-80.98421875 65.3359375 -81.64421875 65.3359375 -82.32421875 65.3359375 C-82.97582887 63.46293725 -83.6202407 61.587432 -84.26171875 59.7109375 C-84.62136719 58.66679687 -84.98101562 57.62265625 -85.3515625 56.546875 C-89.42766495 43.09082596 -87.92464801 28.92971116 -82.19921875 16.2109375 C-75.73096726 4.18192055 -64.31676509 -5.37928658 -51.32421875 -9.6640625 C-33.60166466 -13.56770878 -14.81909205 -10.60997179 0 0 Z " fill="#F7FBFD" transform="translate(474.32421875,223.6640625)"/>
<path d="M0 0 C8.6625 -0.061875 17.325 -0.12375 26.25 -0.1875 C30.31489746 -0.22846802 30.31489746 -0.22846802 34.46191406 -0.27026367 C36.64647986 -0.27903798 38.83105063 -0.28667967 41.015625 -0.29296875 C42.12019043 -0.30831665 43.22475586 -0.32366455 44.36279297 -0.33947754 C57.55263501 -0.34384504 67.10029633 2.17949135 76.55859375 11.54296875 C81.75044834 17.28944283 83.5536304 23.28171794 83.4375 30.875 C83.42920166 31.57753906 83.42090332 32.28007812 83.41235352 33.00390625 C83.12439234 41.87434021 79.95464442 47.77684188 74.00390625 54.203125 C70.0236405 57.77217421 65.45007477 61 60 61 C63.02198943 66.53909442 66.46249324 71.5994732 70.1875 76.6875 C71.04154419 77.8640918 71.04154419 77.8640918 71.9128418 79.06445312 C74.52755278 82.65715208 77.16237518 86.23218613 79.8515625 89.76953125 C80.27155518 90.32229736 80.69154785 90.87506348 81.12426758 91.44458008 C82.23988293 92.90494281 83.36380072 94.35895245 84.48828125 95.8125 C86 98 86 98 86 100 C68.54554854 102.36987748 68.54554854 102.36987748 63.03857422 98.68896484 C59.66454752 95.23036093 57.31904874 91.14793005 55.04638672 86.91064453 C53.6238125 84.31310234 51.92850358 81.95497589 50.1875 79.5625 C49.65382813 78.79035156 49.12015625 78.01820313 48.5703125 77.22265625 C46.48978965 74.27783659 44.29226073 71.42982568 42.06640625 68.59375 C41 67 41 67 41 65 C33.74 65 26.48 65 19 65 C19 76.55 19 88.1 19 100 C12.73 100 6.46 100 0 100 C0 67 0 34 0 0 Z " fill="#FCF7F6" transform="translate(400,387)"/>
<path d="M0 0 C13.2103125 -0.1546875 13.2103125 -0.1546875 26.6875 -0.3125 C29.44053467 -0.35802002 32.19356934 -0.40354004 35.0300293 -0.45043945 C37.25308012 -0.46506531 39.47614452 -0.47780098 41.69921875 -0.48828125 C42.82026001 -0.51386108 43.94130127 -0.53944092 45.09631348 -0.5657959 C56.6439803 -0.57205344 66.80769253 2.74131991 75.19140625 10.87890625 C82.24971121 19.15678874 82.81875055 28.46995814 82 39 C79.86580198 47.69917671 75.50481176 53.62149655 67.875 58.3125 C65.22274734 59.84822685 62.91415563 61.02861479 60 62 C61.56635763 66.8473671 64.35392605 70.34936035 67.4375 74.3125 C71.85516071 80.09157391 76.1317464 85.94093593 80.25 91.9375 C80.72751709 92.62948486 81.20503418 93.32146973 81.69702148 94.03442383 C85 98.86994524 85 98.86994524 85 100 C66.85733579 101.93561457 66.85733579 101.93561457 61.09375 98.03125 C59.23262626 95.48294211 57.67310972 92.91068743 56.20361328 90.12060547 C53.65433081 85.62911105 50.49691927 81.51200471 47.5 77.3125 C45.7481566 74.79728728 44.00154492 72.27852124 42.25585938 69.7590332 C41.11775975 68.06288669 41.11775975 68.06288669 40 67 C38.36743242 66.84285346 36.72864662 66.74914586 35.08984375 66.68359375 C34.199021 66.64548584 33.30819824 66.60737793 32.39038086 66.56811523 C31.25093018 66.52501221 30.11147949 66.48190918 28.9375 66.4375 C25.328125 66.293125 21.71875 66.14875 18 66 C18 77.22 18 88.44 18 100 C12.06 100 6.12 100 0 100 C0 67 0 34 0 0 Z " fill="#F8FBFD" transform="translate(227,214)"/>
<path d="M0 0 C20 0 20 0 24.2265625 3.62890625 C25.5168457 5.99414062 25.5168457 5.99414062 26.625 8.5625 C27.54570613 10.31510239 28.46891784 12.06639061 29.39453125 13.81640625 C29.82588379 14.69312988 30.25723633 15.56985352 30.70166016 16.47314453 C32.61236232 20.19179203 34.92943305 23.5725359 37.3125 27 C38.12093362 28.1975725 38.92699959 29.39674737 39.73046875 30.59765625 C40.10993652 31.16371582 40.4894043 31.72977539 40.88037109 32.31298828 C43.65702907 36.49674462 46.33008682 40.74758862 49 45 C52.10431069 41.23805629 54.87974824 37.31757192 57.5625 33.25 C57.98942139 32.60603271 58.41634277 31.96206543 58.85620117 31.29858398 C65.70068477 20.94811695 72.42330598 10.52271043 79 0 C85.6 0 92.2 0 99 0 C99 33 99 66 99 100 C93.06 100 87.12 100 81 100 C80.67 77.23 80.34 54.46 80 31 C74.67299328 38.58031809 74.67299328 38.58031809 69.5 46.25 C68.00136149 48.5009195 66.5012357 50.75081389 65 53 C64.40993164 53.88558594 63.81986328 54.77117187 63.21191406 55.68359375 C61.19021495 58.71067299 59.15838494 61.73076065 57.125 64.75 C56.45791016 65.75192383 55.79082031 66.75384766 55.10351562 67.78613281 C54.15895508 69.1836377 54.15895508 69.1836377 53.1953125 70.609375 C52.62828613 71.45467773 52.06125977 72.29998047 51.47705078 73.17089844 C50.74591064 74.07630371 50.74591064 74.07630371 50 75 C49.34 75 48.68 75 48 75 C46.46289062 73.03491211 46.46289062 73.03491211 44.65625 70.27734375 C43.99133545 69.27034424 43.3264209 68.26334473 42.64135742 67.22583008 C41.93470947 66.14068115 41.22806152 65.05553223 40.5 63.9375 C39.04821012 61.73174909 37.59638723 59.52601991 36.14453125 57.3203125 C35.43635254 56.23911133 34.72817383 55.15791016 33.99853516 54.04394531 C31.03291827 49.52704922 28.02088138 45.0417037 25.0078125 40.55639648 C22.90780204 37.41437815 20.94751589 34.24585982 19 31 C18.67 53.77 18.34 76.54 18 100 C12.06 100 6.12 100 0 100 C0 67 0 34 0 0 Z " fill="#FEF9FA" transform="translate(564,387)"/>
<path d="M0 0 C6.27 0 12.54 0 19 0 C21 2 21 2 21 5 C21.66 5 22.32 5 23 5 C24.58876033 7.32508963 26.05704846 9.64856462 27.5 12.0625 C28.3990375 13.53638062 29.30013213 15.00900812 30.203125 16.48046875 C30.66525391 17.23376465 31.12738281 17.98706055 31.60351562 18.76318359 C33.7409311 22.18678509 35.99014604 25.53145316 38.25 28.875 C42.02431967 34.47565066 45.61542318 40.15266201 49 46 C51.63043291 42.57959682 54.04576178 39.02653438 56.4375 35.4375 C56.86708008 34.79417725 57.29666016 34.15085449 57.73925781 33.48803711 C61.84739465 27.29866941 65.80360025 21.01569579 69.71264648 14.69897461 C70.65736389 13.18474556 71.62477168 11.68441718 72.61523438 10.19970703 C74.05357935 8.0360142 74.05357935 8.0360142 75.02539062 5.65576172 C76.171875 3.43359375 76.171875 3.43359375 80 0 C86.27 0 92.54 0 99 0 C99 33 99 66 99 100 C93.06 100 87.12 100 81 100 C80.67 77.23 80.34 54.46 80 31 C72.08 42.88 72.08 42.88 64 55 C57.6875 64.1875 57.6875 64.1875 55.13671875 67.85546875 C53.32332531 70.5241739 51.62220583 73.2123259 50 76 C46.21735204 72.46246233 43.3917659 68.80077393 40.6875 64.375 C37.88919689 59.90322488 35.01825192 55.55436424 31.875 51.3125 C27.97036047 46.04123663 24.47499288 40.5599886 21 35 C20.34 34.01 19.68 33.02 19 32 C18.67 54.44 18.34 76.88 18 100 C12.06 100 6.12 100 0 100 C0 67 0 34 0 0 Z " fill="#F8FDFE" transform="translate(564,214)"/>
<path d="M0 0 C10.46413703 4.61930373 16.08896205 15.25309304 21 25 C24.79709776 36.39129327 20.4087731 46.66920104 15.625 56.95703125 C12.01647592 64.97955354 10.7968864 72.29371875 10 81 C11.32 81 12.64 81 14 81 C13.938125 79.88625 13.87625 78.7725 13.8125 77.625 C13.86054492 68.52849609 17.51062419 60.15469206 23 53 C28.30502759 47.87498333 33.50505727 45.33822026 40.875 44.625 C47.35776318 44.84726617 52.28868562 47.96526338 57 52.25 C61.0900237 57.25205197 61.05534696 63.03638425 60.609375 69.203125 C59.75836231 74.50558866 58.26818381 77.71012201 54 81 C50.57402446 82.99705107 47.03863475 85 43 85 C43.06960938 84.26394531 43.13921875 83.52789063 43.2109375 82.76953125 C43.64878571 77.24865753 43.64878571 77.24865753 41.91015625 72.15625 C39.21392004 69.69602386 36.94656198 68.99262924 33.375 68.5 C29.88191078 69.0174947 28.57964774 69.70697979 26 72 C25.34 72 24.68 72 24 72 C23.01 74.97 22.02 77.94 21 81 C21.804375 80.979375 22.60875 80.95875 23.4375 80.9375 C26 81 26 81 27 82 C27 83.65 27 85.3 27 87 C10.17 87 -6.66 87 -24 87 C-24 85.02 -24 83.04 -24 81 C-22.02 81 -20.04 81 -18 81 C-20.13243299 75.16386761 -22.23998557 71.88000721 -28 69 C-31.9086795 68.74508612 -34.70942498 68.76710981 -38 71 C-40.28062828 74.42094242 -40.21925007 75.68187222 -40.125 79.6875 C-40.09792969 81.17830078 -40.09792969 81.17830078 -40.0703125 82.69921875 C-40.04710937 83.45847656 -40.02390625 84.21773437 -40 85 C-46.48080503 83.86301666 -50.62090507 82.00467992 -55 77 C-58.44718637 71.32882242 -59.09176411 65.47780039 -58 59 C-55.46685662 52.78228443 -51.36619307 48.72429378 -45.36328125 45.80859375 C-40.07802256 44.00024904 -35.71817954 44.48756049 -30.4375 46.0625 C-22.67572573 50.43731822 -16.6766239 56.10984695 -13.734375 64.69140625 C-13.40953125 65.96886719 -13.0846875 67.24632812 -12.75 68.5625 C-12.57726562 69.20896484 -12.40453125 69.85542969 -12.2265625 70.52148438 C-11.31325316 74.08411565 -10.80242925 77.32377276 -11 81 C-9.68 81 -8.36 81 -7 81 C-8.80816519 69.23800701 -8.80816519 69.23800701 -12.953125 58.15625 C-16.72575173 50.3857651 -19.14112501 42.75074808 -19.1875 34.125 C-19.20167969 32.93132813 -19.21585937 31.73765625 -19.23046875 30.5078125 C-19.00004992 27.00075978 -18.26279461 24.26429911 -17 21 C-16.34 21 -15.68 21 -15 21 C-14.92265625 20.27683594 -14.8453125 19.55367187 -14.765625 18.80859375 C-13.80783592 15.29507155 -12.25366062 13.68636949 -9.75 11.0625 C-8.94175781 10.20011719 -8.13351562 9.33773437 -7.30078125 8.44921875 C-6.54152344 7.64097656 -5.78226562 6.83273437 -5 6 C-3.29812173 4.02550965 -1.64787629 2.01997739 0 0 Z " fill="#FAF6FC" transform="translate(349,563)"/>
<path d="M0 0 C1.48831242 0.00667405 2.97660807 0.01863442 4.46484375 0.03515625 C5.22345703 0.03966797 5.98207031 0.04417969 6.76367188 0.04882812 C8.64326246 0.06064945 10.52281274 0.07858547 12.40234375 0.09765625 C15.92505873 7.02475454 19.25777449 14.01930246 22.46484375 21.09765625 C22.88572266 22.01804687 23.30660156 22.9384375 23.74023438 23.88671875 C25.7007988 28.20300013 27.59811886 32.52492388 29.33203125 36.9375 C31.83003459 43.27325979 34.6591695 49.45603622 37.46484375 55.66015625 C38.61850404 58.22336701 39.77011939 60.78749543 40.921875 63.3515625 C41.21138031 63.99566071 41.50088562 64.63975891 41.79916382 65.30337524 C44.76234494 71.89610966 47.71834489 78.49186359 50.65234375 85.09765625 C51.11777588 86.1347876 51.58320801 87.17191895 52.06274414 88.24047852 C52.48934326 89.20397217 52.91594238 90.16746582 53.35546875 91.16015625 C53.72833008 91.99675781 54.10119141 92.83335937 54.48535156 93.6953125 C55.40234375 96.09765625 55.40234375 96.09765625 56.40234375 101.09765625 C50.13234375 101.09765625 43.86234375 101.09765625 37.40234375 101.09765625 C35.92170643 97.66078294 34.44277369 94.22319357 32.96484375 90.78515625 C32.54396484 89.80869141 32.12308594 88.83222656 31.68945312 87.82617188 C31.08520508 86.41948242 31.08520508 86.41948242 30.46875 84.984375 C30.09693604 84.12030029 29.72512207 83.25622559 29.34204102 82.3659668 C28.62582073 80.63710146 27.99411624 78.87297373 27.40234375 77.09765625 C11.89234375 77.09765625 -3.61765625 77.09765625 -19.59765625 77.09765625 C-20.25765625 78.74765625 -20.91765625 80.39765625 -21.59765625 82.09765625 C-22.24219426 83.64746083 -22.89067899 85.19562953 -23.54296875 86.7421875 C-23.89746094 87.58330078 -24.25195312 88.42441406 -24.6171875 89.29101562 C-24.98199219 90.15533203 -25.34679687 91.01964844 -25.72265625 91.91015625 C-26.09519531 92.79380859 -26.46773437 93.67746094 -26.8515625 94.58789062 C-27.76652073 96.75798387 -28.68203351 98.92784329 -29.59765625 101.09765625 C-35.53765625 101.09765625 -41.47765625 101.09765625 -47.59765625 101.09765625 C-46.76414657 96.09659818 -45.91051746 93.17166206 -43.796875 88.73828125 C-43.51922806 88.14899841 -43.24158112 87.55971558 -42.95552063 86.95257568 C-42.07237651 85.08086741 -41.1794207 83.21407348 -40.28515625 81.34765625 C-36.83599984 74.10167301 -33.41313517 66.87838441 -30.50317383 59.39453125 C-28.98237483 55.53697477 -27.28879371 51.75789752 -25.59765625 47.97265625 C-25.26765625 47.22628906 -24.93765625 46.47992188 -24.59765625 45.7109375 C-22.97504484 42.06640015 -21.29898024 38.46922569 -19.48828125 34.9140625 C-17.87650195 31.72820634 -16.55752726 28.52341708 -15.34765625 25.16015625 C-13.25614599 19.59804616 -10.88150473 14.22219526 -8.34765625 8.84765625 C-7.99413086 8.09621338 -7.64060547 7.34477051 -7.27636719 6.57055664 C-4.20062001 0.11402334 -4.20062001 0.11402334 0 0 Z " fill="#FDF8F8" transform="translate(261.59765625,385.90234375)"/>
<path d="M0 0 C2.79192205 -0.05380578 5.5828141 -0.09357669 8.375 -0.125 C9.1690625 -0.14175781 9.963125 -0.15851562 10.78125 -0.17578125 C12.85492015 -0.19335473 14.92883241 -0.10335168 17 0 C19.51134614 2.51134614 20.16028667 4.79034113 21.375 8.125 C23.06244602 12.63643657 24.87206461 16.91688754 27.1015625 21.1796875 C28.3280083 23.66457333 29.24543595 26.2293143 30.18188477 28.83447266 C30.99056265 30.97501961 31.88005468 33.05300574 32.81640625 35.140625 C33.34548584 36.32192993 33.34548584 36.32192993 33.88525391 37.52709961 C36.10265733 42.44608324 38.32448207 47.36308359 40.55664062 52.27539062 C42.57884469 56.75087519 44.52521991 61.24581981 46.390625 65.7890625 C49.65279785 73.67607198 53.32593406 81.36812104 56.97851562 89.08007812 C57.49736328 90.18931641 58.01621094 91.29855469 58.55078125 92.44140625 C59.02169189 93.43857666 59.49260254 94.43574707 59.9777832 95.46313477 C61 98 61 98 61 101 C54.73 101 48.46 101 42 101 C40.49576526 97.37670441 38.99644193 93.75151244 37.5 90.125 C37.07074219 89.09246094 36.64148438 88.05992187 36.19921875 86.99609375 C35.79316406 86.00996094 35.38710938 85.02382812 34.96875 84.0078125 C34.59169922 83.09660645 34.21464844 82.18540039 33.82617188 81.24658203 C33 79 33 79 33 77 C16.83 77 0.66 77 -16 77 C-16.33 78.98 -16.66 80.96 -17 83 C-17.84790039 85.33349609 -17.84790039 85.33349609 -18.84765625 87.5234375 C-19.17000244 88.23935059 -19.49234863 88.95526367 -19.82446289 89.69287109 C-20.23301514 90.57797363 -20.64156738 91.46307617 -21.0625 92.375 C-22.361875 95.22125 -23.66125 98.0675 -25 101 C-31.27 101 -37.54 101 -44 101 C-42.65488441 96.96465323 -41.34976398 93.39404624 -39.57421875 89.5859375 C-38.87329102 88.07193359 -38.87329102 88.07193359 -38.15820312 86.52734375 C-37.67287109 85.48707031 -37.18753906 84.44679688 -36.6875 83.375 C-33.3388614 76.18567794 -30.11719219 68.97231457 -27.09643555 61.63867188 C-25.82444143 58.57750234 -24.4678466 55.56464622 -23.0625 52.5625 C-22.31806641 50.96535156 -22.31806641 50.96535156 -21.55859375 49.3359375 C-20.78708984 47.68464844 -20.78708984 47.68464844 -20 46 C-18.87241265 43.56368677 -17.74883049 41.12555109 -16.625 38.6875 C-15.75 36.79166667 -14.875 34.89583333 -14 33 C-13.34 33 -12.68 33 -12 33 C-12.08894531 32.21496094 -12.17789063 31.42992188 -12.26953125 30.62109375 C-11.89115333 25.53766858 -9.86217778 21.62426595 -7.6875 17.0625 C-6.87846289 15.32442506 -6.06986093 13.58614748 -5.26171875 11.84765625 C-4.8754834 11.02539551 -4.48924805 10.20313477 -4.09130859 9.35595703 C-2.65920152 6.26427174 -1.32042336 3.14081286 0 0 Z " fill="#F6FCFA" transform="translate(257,41)"/>
<path d="M0 0 C24.75 0 49.5 0 75 0 C75 5.28 75 10.56 75 16 C56.19 16 37.38 16 18 16 C18 24.25 18 32.5 18 41 C34.83 41 51.66 41 69 41 C69 46.28 69 51.56 69 57 C52.17 57 35.34 57 18 57 C18 65.58 18 74.16 18 83 C37.14 83 56.28 83 76 83 C76 88.61 76 94.22 76 100 C50.92 100 25.84 100 0 100 C0 67 0 34 0 0 Z " fill="#F6FCF8" transform="translate(578,42)"/>
<path d="M0 0 C5.61 0 11.22 0 17 0 C17 13.53 17 27.06 17 41 C32.84 41 48.68 41 65 41 C65 27.47 65 13.94 65 0 C70.94 0 76.88 0 83 0 C83 33 83 66 83 100 C77.06 100 71.12 100 65 100 C65 85.81 65 71.62 65 57 C49.16 57 33.32 57 17 57 C17 70.86 17 84.72 17 99 C11.39 99 5.78 99 0 99 C0 66.33 0 33.66 0 0 Z " fill="#FEFBFA" transform="translate(51,387)"/>
<path d="M0 0 C2.6171875 1.62109375 2.6171875 1.62109375 4.6171875 3.62109375 C4.30065447 7.35456029 2.20086977 9.90546006 0.0546875 12.87109375 C-0.58597656 13.763125 -1.22664063 14.65515625 -1.88671875 15.57421875 C-2.38042969 16.2496875 -2.87414062 16.92515625 -3.3828125 17.62109375 C-7.68023883 15.96646971 -11.70346167 13.9615487 -15.78515625 11.83984375 C-23.31916654 8.30509005 -32.45927356 6.55424743 -40.5546875 9.37890625 C-43.54093932 11.25640121 -45.09855301 13.40751293 -46.3828125 16.62109375 C-46.69033748 21.09991915 -46.24813041 24.59844531 -43.3203125 28.05859375 C-39.6802552 29.99479444 -36.42046944 30.79987539 -32.3828125 31.62109375 C-32.3828125 32.28109375 -32.3828125 32.94109375 -32.3828125 33.62109375 C-31.8465625 33.62367187 -31.3103125 33.62625 -30.7578125 33.62890625 C-18.35875221 34.24070199 -5.60548012 39.28644679 3.12890625 48.15625 C8.56945961 54.25154044 9.19224039 59.97180199 9.05078125 67.91015625 C8.12391448 75.84279975 4.58011672 82.38497352 -1.4453125 87.62109375 C-13.23177306 95.61555871 -27.53782063 96.13880321 -41.2578125 94.21875 C-50.94949938 91.71397282 -61.8275596 86.15339171 -69.3828125 79.62109375 C-67.95580233 76.48449713 -66.23521465 73.99728842 -64.0078125 71.37109375 C-63.42257813 70.6646875 -62.83734375 69.95828125 -62.234375 69.23046875 C-60.3828125 67.62109375 -60.3828125 67.62109375 -56.3828125 67.62109375 C-54.4453125 68.79296875 -54.4453125 68.79296875 -52.3828125 70.37109375 C-42.81756455 76.95597896 -32.86650739 78.7652772 -21.3828125 77.62109375 C-17.24113925 76.79908227 -14.30038365 75.62468719 -11.3828125 72.43359375 C-10.10129302 68.82932021 -9.13949278 65.32997969 -10.3828125 61.62109375 C-14.69355631 57.23002552 -18.87836329 55.38300074 -24.6953125 53.62109375 C-25.46987793 53.37472168 -26.24444336 53.12834961 -27.04248047 52.87451172 C-29.48397279 52.10478745 -31.93153933 51.35903868 -34.3828125 50.62109375 C-35.20604004 50.37262695 -36.02926758 50.12416016 -36.87744141 49.86816406 C-41.703257 48.41936676 -46.53855922 47.00691811 -51.3828125 45.62109375 C-51.3828125 44.96109375 -51.3828125 44.30109375 -51.3828125 43.62109375 C-52.7440625 43.28078125 -52.7440625 43.28078125 -54.1328125 42.93359375 C-57.85798696 41.42919637 -59.21723852 39.95274602 -61.3828125 36.62109375 C-61.3828125 35.96109375 -61.3828125 35.30109375 -61.3828125 34.62109375 C-62.0428125 34.62109375 -62.7028125 34.62109375 -63.3828125 34.62109375 C-66.67625106 25.35829781 -66.44170957 15.63400587 -62.3828125 6.62109375 C-49.12763714 -15.42711873 -18.72750232 -10.44159302 0 0 Z " fill="#F9FCF7" transform="translate(122.3828125,48.37890625)"/>
<path d="M0 0 C7.64305565 5.3442141 12.10203267 11.69399998 15.1328125 20.5546875 C17.10145131 31.78984839 16.20018942 42.62173171 9.90625 52.22265625 C4.58015652 59.52093955 -1.56635956 63.97371429 -10.48046875 65.76171875 C-21.34432619 66.69218802 -30.79375471 65.7488583 -39.48046875 58.76171875 C-46.24240314 52.23704522 -51.00413611 44.43953598 -51.68359375 34.9140625 C-51.82658181 25.10746497 -51.03942212 15.52890037 -44.48046875 7.76171875 C-32.19675773 -4.8680123 -15.90460402 -9.3338921 0 0 Z " fill="#156AAF" transform="translate(457.48046875,233.23828125)"/>
<path d="M0 0 C24.75 0 49.5 0 75 0 C75 5.61 75 11.22 75 17 C56.19 17 37.38 17 18 17 C18 25.58 18 34.16 18 43 C34.83 43 51.66 43 69 43 C69 48.61 69 54.22 69 60 C52.17 60 35.34 60 18 60 C18 73.2 18 86.4 18 100 C12.06 100 6.12 100 0 100 C0 67 0 34 0 0 Z " fill="#F6FBFD" transform="translate(58,214)"/>
<path d="M0 0 C24.75 0 49.5 0 75 0 C75 5.28 75 10.56 75 16 C55.86 16 36.72 16 17 16 C17 24.91 17 33.82 17 43 C33.83 43 50.66 43 68 43 C68 48.28 68 53.56 68 59 C51.17 59 34.34 59 17 59 C17 72.2 17 85.4 17 99 C11.39 99 5.78 99 0 99 C0 66.33 0 33.66 0 0 Z " fill="#FDFEF9" transform="translate(406,42)"/>
<path d="M0 0 C0.79664063 0.28875 1.59328125 0.5775 2.4140625 0.875 C4.6888477 1.80145797 6.8248302 2.85839598 9 4 C10.06734375 4.54269531 11.1346875 5.08539062 12.234375 5.64453125 C32.39340215 16.26100521 45.21155998 33.08537681 52.25 54.625 C53.75657004 59.80079708 54.79658165 64.61788941 55 70 C55.0515625 71.09699219 55.103125 72.19398438 55.15625 73.32421875 C55.65323291 93.14141211 50.85879838 111.56944194 38 127 C37.28714844 127.86367188 36.57429687 128.72734375 35.83984375 129.6171875 C27.88134268 138.85297887 19.43877884 145.17576311 8.44506836 150.29931641 C5.09916193 151.86728961 2.49196549 153.26765199 0 156 C-0.99 156.33 -1.98 156.66 -3 157 C-2.67 158.32 -2.34 159.64 -2 161 C-1.05125 161.144375 -0.1025 161.28875 0.875 161.4375 C4 162 4 162 6 163 C5.67 164.32 5.34 165.64 5 167 C4.154375 166.855625 3.30875 166.71125 2.4375 166.5625 C-1.03593149 165.9941203 -4.51445662 165.48797607 -8 165 C-8 165.66 -8 166.32 -8 167 C-12.29963836 170.49345617 -15.69602028 170.4277403 -21 170 C-22.485 169.01 -22.485 169.01 -24 168 C-25.98491642 168.26676204 -25.98491642 168.26676204 -28 169 C-31.91654782 170.25889037 -35.95068455 170.82040034 -40 170 C-43.32398399 167.93046974 -46.23387925 165.5322415 -48 162 C-48.58118751 157.23616799 -48.45088085 153.85511886 -46.1875 149.5625 C-43.93544288 146.92437594 -42.36022174 145.14305362 -38.80859375 144.76953125 C-38.02613281 144.78371094 -37.24367188 144.79789063 -36.4375 144.8125 C-35.65246094 144.81894531 -34.86742187 144.82539062 -34.05859375 144.83203125 C-32 145 -32 145 -30 146 C-30 146.66 -30 147.32 -30 148 C-32.55831243 149.43265496 -34.75025709 150.19403201 -37.625 150.9375 C-41.24607658 151.68977613 -41.24607658 151.68977613 -43 155 C-42.67 155.66 -42.34 156.32 -42 157 C-41.71125 156.236875 -41.4225 155.47375 -41.125 154.6875 C-38.31751712 151.13685989 -35.83409131 150.8369665 -31.5546875 149.7578125 C-29.1356853 149.04024916 -27.46502861 148.18979996 -25.375 146.8125 C-20.98924749 144.45718847 -18.92914139 144.45231762 -14 145 C-10.5 146.5 -10.5 146.5 -8 148 C-8 148.66 -8 149.32 -8 150 C-1.83775307 149.52281666 2.76181857 147.51345297 8.1875 144.625 C9.02321533 144.18091797 9.85893066 143.73683594 10.7199707 143.27929688 C21.98457603 137.06164345 30.53589536 128.47652355 38 118 C38.83144531 116.85144531 38.83144531 116.85144531 39.6796875 115.6796875 C49.63933016 100.66589781 51.17671957 79.05264544 48.46875 61.5703125 C47.77681727 58.97556478 46.9487997 56.51104749 46 54 C45.58234375 52.65808594 45.58234375 52.65808594 45.15625 51.2890625 C39.2330135 33.05979156 25.61997204 18.99113241 9 10 C-8.41890102 1.4401964 -29.99790375 -1.99572151 -48.8125 4.125 C-51.23128287 5.02383789 -53.630196 5.97899601 -56 7 C-57.64355469 7.70382812 -57.64355469 7.70382812 -59.3203125 8.421875 C-65.1448421 11.13706925 -70.14618202 14.35019852 -75.0625 18.484375 C-77 20 -77 20 -79.171875 21.0703125 C-81.53279278 22.27095018 -82.03642607 23.59106518 -83 26 C-83.66 26 -84.32 26 -85 26 C-85.26296875 26.55816406 -85.5259375 27.11632812 -85.796875 27.69140625 C-87.12312014 30.23624676 -88.65657833 32.55095628 -90.25 34.9375 C-102.04286183 53.37769523 -105.3526388 73.86047082 -101.3125 95.51953125 C-100.4214822 98.82743485 -99.36341396 101.85988723 -98 105 C-97.38125 106.50240234 -97.38125 106.50240234 -96.75 108.03515625 C-88.76806445 125.60902003 -74.53772893 139.83142849 -56.72265625 147.390625 C-54.16323245 148.32611581 -51.60639887 149.20606688 -49 150 C-49.33 151.32 -49.66 152.64 -50 154 C-66.10741898 152.42003661 -79.71724204 140.76495731 -90 129 C-105.17652691 110.23493471 -109.84792786 88.94922127 -107.65625 65.2890625 C-104.75572042 44.93701329 -94.70946491 27.42445184 -79 14 C-56.01561714 -2.99775291 -27.40732077 -10.14564059 0 0 Z " fill="#F1E7F8" transform="translate(377,551)"/>
<path d="M0 0 C228.69 0 457.38 0 693 0 C693 0.33 693 0.66 693 1 C521.73 1 350.46 1 174 1 C174 1.66 174 2.32 174 3 C117.24 3 60.48 3 2 3 C2 58.44 2 113.88 2 171 C26.8015625 170.9896875 51.603125 170.979375 77.15625 170.96875 C93.05729569 170.96631203 108.95833127 170.96418787 124.859375 170.96875 C125.84377406 170.96901876 126.82817312 170.96928753 127.84240246 170.96956444 C171.22126616 170.98202635 214.59971355 171.07576671 257.97835493 171.21044207 C260.66765932 171.2187854 263.35696387 171.22707265 266.04626846 171.23534775 C294.10247589 171.32180258 322.15866046 171.4149241 350.2148428 171.50911427 C377.36081149 171.60022978 404.50678492 171.68942803 431.65277815 171.77295732 C434.33244431 171.78121516 437.0121103 171.78952833 439.69177628 171.79784775 C524.12779414 172.05918014 608.5636678 172.05356618 693 172 C693 172.66 693 173.32 693 174 C464.31 174 235.62 174 0 174 C0 116.58 0 59.16 0 0 Z " fill="#973A4E" transform="translate(5,350)"/>
<path d="M0 0 C5.094375 -0.0825 10.18875 -0.165 15.4375 -0.25 C17.82053345 -0.30462402 17.82053345 -0.30462402 20.25170898 -0.36035156 C29.85926417 -0.43551951 37.26302593 0.33749639 44.5625 7.0625 C47.51582131 10.91753566 47.868995 14.51242529 47.57421875 19.28125 C46.44680767 24.61919632 43.85613198 28.09252847 39.35131836 31.10107422 C31.81342969 35.19000197 23.76224345 34.44082023 15.4375 34.25 C10.343125 34.1675 5.24875 34.085 0 34 C0 22.78 0 11.56 0 0 Z " fill="#2F6393" transform="translate(244,230)"/>
<path d="M0 0 C5.259375 -0.0825 10.51875 -0.165 15.9375 -0.25 C17.578396 -0.28641602 19.21929199 -0.32283203 20.90991211 -0.36035156 C37.22656202 -0.48407593 37.22656202 -0.48407593 43.6875 5.58520508 C47.19069368 9.50825951 47.70257458 13.49835696 47.421875 18.63671875 C46.57386632 23.38713772 44.00393793 26.07328806 40.5625 29.25 C35.53809889 32.68129832 31.2884319 33.28461336 25.29296875 33.1953125 C24.3274408 33.19229126 24.3274408 33.19229126 23.34240723 33.18920898 C20.95736478 33.17881174 18.57242459 33.15088947 16.1875 33.125 C10.845625 33.08375 5.50375 33.0425 0 33 C0 22.11 0 11.22 0 0 Z " fill="#9B2B2B" transform="translate(418,403)"/>
<path d="M0 0 C57.09 0 114.18 0 173 0 C173 56.43 173 112.86 173 171 C115.91 171 58.82 171 0 171 C0 114.57 0 58.14 0 0 Z M1 1 C1 56.44 1 111.88 1 169 C57.1 169 113.2 169 171 169 C171 113.56 171 58.12 171 1 C114.9 1 58.8 1 1 1 Z " fill="#5AA350" transform="translate(6,6)"/>
<path d="M0 0 C0.99 0.495 0.99 0.495 2 1 C2 56.44 2 111.88 2 169 C58.1 169 114.2 169 172 169 C172 113.56 172 58.12 172 1 C172.33 1 172.66 1 173 1 C173 57.1 173 113.2 173 171 C115.91 171 58.82 171 0 171 C0 114.57 0 58.14 0 0 Z " fill="#7DAA4A" transform="translate(353,6)"/>
<path d="M0 0 C0.78503906 0.00644531 1.57007813 0.01289062 2.37890625 0.01953125 C4.4375 0.1875 4.4375 0.1875 6.4375 1.1875 C6.4375 1.8475 6.4375 2.5075 6.4375 3.1875 C3.87918757 4.62015496 1.68724291 5.38153201 -1.1875 6.125 C-4.80857658 6.87727613 -4.80857658 6.87727613 -6.5625 10.1875 C-6.2325 10.8475 -5.9025 11.5075 -5.5625 12.1875 C-5.129375 11.0428125 -5.129375 11.0428125 -4.6875 9.875 C-1.88001712 6.32435989 0.60340869 6.0244665 4.8828125 4.9453125 C7.3018147 4.22774916 8.97247139 3.37729996 11.0625 2 C15.44825251 -0.35531153 17.50835861 -0.36018238 22.4375 0.1875 C25.9375 1.6875 25.9375 1.6875 28.4375 3.1875 C28.1075 4.5075 27.7775 5.8275 27.4375 7.1875 C26.68984375 7.23648438 25.9421875 7.28546875 25.171875 7.3359375 C24.18703125 7.41070313 23.2021875 7.48546875 22.1875 7.5625 C21.21296875 7.63210938 20.2384375 7.70171875 19.234375 7.7734375 C16.54116811 8.17215249 14.76786721 8.82257063 12.4375 10.1875 C15.31256421 10.21462325 18.18736908 10.23439851 21.0625 10.25 C21.87074219 10.25837891 22.67898438 10.26675781 23.51171875 10.27539062 C27.94091918 10.2933955 32.07633424 10.08372662 36.4375 9.1875 C36.4375 9.8475 36.4375 10.5075 36.4375 11.1875 C35.4475 11.5175 34.4575 11.8475 33.4375 12.1875 C33.9325 14.1675 33.9325 14.1675 34.4375 16.1875 C35.38625 16.331875 36.335 16.47625 37.3125 16.625 C40.4375 17.1875 40.4375 17.1875 42.4375 18.1875 C42.1075 19.5075 41.7775 20.8275 41.4375 22.1875 C40.591875 22.043125 39.74625 21.89875 38.875 21.75 C35.40156851 21.1816203 31.92304338 20.67547607 28.4375 20.1875 C28.4375 20.8475 28.4375 21.5075 28.4375 22.1875 C24.13786164 25.68095617 20.74147972 25.6152403 15.4375 25.1875 C14.4475 24.5275 13.4575 23.8675 12.4375 23.1875 C10.45258358 23.45426204 10.45258358 23.45426204 8.4375 24.1875 C4.52095218 25.44639037 0.48681545 26.00790034 -3.5625 25.1875 C-6.88648399 23.11796974 -9.79637925 20.7197415 -11.5625 17.1875 C-12.14368751 12.42366799 -12.01338085 9.04261886 -9.75 4.75 C-6.64737081 1.11549152 -4.68720008 -0.08494102 0 0 Z " fill="#60308B" transform="translate(340.5625,695.8125)"/>
<path d="M0 0 C2.31 0 4.62 0 7 0 C7.33 5.94 7.66 11.88 8 18 C8.96186931 14.15252277 9.30659027 10.69832148 9.5625 6.75 C9.64628906 5.48671875 9.73007812 4.2234375 9.81640625 2.921875 C9.90728516 1.47554687 9.90728516 1.47554687 10 0 C11.98 0 13.96 0 16 0 C16.41572266 1.28197266 16.41572266 1.28197266 16.83984375 2.58984375 C18.36793794 7.08151455 20.12881166 11.46991424 21.87890625 15.87890625 C22.85735441 18.60287867 23.52791882 21.15160004 24 24 C22.02 24.99 22.02 24.99 20 26 C20 26.66 20 27.32 20 28 C17.953125 29.76171875 17.953125 29.76171875 15.25 31.6875 C14.36828125 32.33074219 13.4865625 32.97398437 12.578125 33.63671875 C10 35 10 35 7.94921875 34.87890625 C1.80081987 32.10658211 -3.4795219 27.95794372 -8 23 C-7.08121145 20.62646292 -6.13338546 18.28262412 -5.046875 15.98046875 C-2.58338513 10.73176458 -1.02509079 5.70543951 0 0 Z " fill="#F7F1FB" transform="translate(342,654)"/>
<path d="M0 0 C2.32856858 2.89128849 3.88472768 5.69530229 5.33984375 9.10546875 C5.76330078 10.08966797 6.18675781 11.07386719 6.62304688 12.08789062 C7.05681641 13.11076172 7.49058594 14.13363281 7.9375 15.1875 C8.80046894 17.20195673 9.66374619 19.21628142 10.52734375 21.23046875 C11.14778564 22.68912354 11.14778564 22.68912354 11.78076172 24.17724609 C13.22915191 27.53052752 14.75153439 30.8468116 16.30297852 34.15356445 C17 36 17 36 17 39 C6.11 39 -4.78 39 -16 39 C-12.62259194 28.86777583 -12.62259194 28.86777583 -11.1328125 25.3515625 C-10.80667969 24.57852783 -10.48054687 23.80549316 -10.14453125 23.0090332 C-9.80808594 22.22230225 -9.47164062 21.43557129 -9.125 20.625 C-8.77566406 19.80153076 -8.42632812 18.97806152 -8.06640625 18.12963867 C-5.47314298 12.04180961 -2.80213971 5.99496236 0 0 Z " fill="#AF2627" transform="translate(265,408)"/>
<path d="M0 0 C6.23189665 7.6884642 9.44360683 17.83812029 12.82421875 27.02734375 C13.97603301 30.08281491 13.97603301 30.08281491 15.64453125 33.19140625 C17 36 17 36 17 39 C6.11 39 -4.78 39 -16 39 C-14.11632601 33.34897804 -12.58566167 29.01976825 -9.91796875 23.9296875 C-8.53994706 21.03290998 -7.77682365 18.10729459 -7 15 C-6.34 15 -5.68 15 -5 15 C-4.9175 14.195625 -4.835 13.39125 -4.75 12.5625 C-3.79803325 8.04065795 -1.98419821 4.15297299 0 0 Z " fill="#2A9767" transform="translate(265,63)"/>
<path d="M0 0 C4.86351256 0.64325467 6.95176549 3.16268267 10.30029297 6.57861328 C10.93548859 7.20806854 11.5706842 7.8375238 12.22512817 8.48605347 C13.56193313 9.81878174 14.89121577 11.15909238 16.21337891 12.50634766 C18.23885231 14.56394054 20.29431926 16.58758115 22.35498047 18.60986328 C23.65117944 19.9100272 24.94551588 21.21205119 26.23779297 22.51611328 C26.85331024 23.11948517 27.46882751 23.72285706 28.10299683 24.34451294 C30.90053078 27.23632041 32.25395222 28.68660215 32.87890625 32.75390625 C32.37060547 35.44580078 32.37060547 35.44580078 30.37060547 37.44580078 C28.18847656 37.96777344 28.18847656 37.96777344 25.37060547 37.44580078 C22.74351612 35.60065556 20.54340337 33.36668932 18.28466797 31.09423828 C17.62348969 30.44258698 16.9623114 29.79093567 16.28109741 29.11953735 C14.88810919 27.73870777 13.50157277 26.35134345 12.12109375 24.95800781 C10.00298924 22.82822526 7.85490917 20.73238741 5.70263672 18.63720703 C4.35303948 17.29149457 3.00531716 15.9438986 1.65966797 14.59423828 C1.01397858 13.96899261 0.36828918 13.34374695 -0.29696655 12.69955444 C-4.63983136 8.24072029 -4.63983136 8.24072029 -4.58496094 4.06152344 C-3.30598447 0.56051324 -3.30598447 0.56051324 0 0 Z " fill="#F6F0FA" transform="translate(204.62939453125,603.55419921875)"/>
<path d="M0 0 C2.69189453 0.57299805 2.69189453 0.57299805 4.69189453 3.57299805 C4.72550038 8.14882969 2.29890968 10.46286034 -0.71466064 13.56098938 C-1.32815369 14.16952255 -1.94164673 14.77805573 -2.57373047 15.4050293 C-3.20414246 16.04163986 -3.83455444 16.67825043 -4.48406982 17.33415222 C-5.81737525 18.67455013 -7.15582813 20.0098448 -8.49902344 21.34033203 C-10.55272123 23.3801502 -12.58128139 25.44282671 -14.60888672 27.50854492 C-15.90821616 28.80882542 -17.20895154 30.10770283 -18.51123047 31.4050293 C-19.41932465 32.33301079 -19.41932465 32.33301079 -20.34576416 33.27973938 C-24.58256514 37.42451155 -24.58256514 37.42451155 -28.10791016 38.14599609 C-30.30810547 37.57299805 -30.30810547 37.57299805 -32.30810547 34.57299805 C-32.81640625 32.3125 -32.81640625 32.3125 -32.30810547 29.57299805 C-30.5305426 27.0328918 -28.37550679 24.91621541 -26.17529297 22.7409668 C-25.54583771 22.10435623 -24.91638245 21.46774567 -24.26785278 20.81184387 C-22.93400022 19.47021227 -21.59371732 18.13494759 -20.24755859 16.80566406 C-18.19205867 14.7693676 -16.16753512 12.70549954 -14.14404297 10.63745117 C-12.84373143 9.33684923 -11.54170268 8.03796138 -10.23779297 6.7409668 C-9.63442108 6.12231247 -9.03104919 5.50365814 -8.40939331 4.86625671 C-5.53227349 2.06692456 -4.04073766 0.69989751 0 0 Z " fill="#F6EFFA" transform="translate(500.30810546875,603.427001953125)"/>
<path d="M0 0 C2.6940918 0.57299805 2.6940918 0.57299805 4.6940918 3.57299805 C4.59660439 7.27751935 3.71676854 8.54683257 1.2565918 11.38549805 C-1.3059082 13.57299805 -1.3059082 13.57299805 -3.3059082 13.57299805 C-3.5430957 14.1350293 -3.7802832 14.69706055 -4.0246582 15.27612305 C-5.59538517 18.09193846 -7.52062285 20.05255221 -9.8059082 22.32299805 C-10.5999707 23.1222168 -11.3940332 23.92143555 -12.2121582 24.74487305 C-14.3059082 26.57299805 -14.3059082 26.57299805 -16.3059082 26.57299805 C-16.3059082 27.23299805 -16.3059082 27.89299805 -16.3059082 28.57299805 C-16.9659082 28.57299805 -17.6259082 28.57299805 -18.3059082 28.57299805 C-18.3059082 29.23299805 -18.3059082 29.89299805 -18.3059082 30.57299805 C-18.9659082 30.57299805 -19.6259082 30.57299805 -20.3059082 30.57299805 C-20.5534082 31.17112305 -20.8009082 31.76924805 -21.0559082 32.38549805 C-22.53009074 34.96531749 -23.69304104 36.15458444 -26.3059082 37.57299805 C-29.67627131 37.33225782 -30.89388841 36.98501784 -33.3059082 34.57299805 C-33.33581752 30.00903874 -30.91873682 27.68044517 -27.92500305 24.58500671 C-27.31464706 23.97647354 -26.70429108 23.36794037 -26.07543945 22.7409668 C-25.44739914 22.10435623 -24.81935883 21.46774567 -24.17228699 20.81184387 C-22.84327571 19.47136451 -21.50901545 18.13607163 -20.16992188 16.80566406 C-18.12536443 14.76743275 -16.10889629 12.70400359 -14.09301758 10.63745117 C-12.79711515 9.33700309 -11.49963974 8.0381202 -10.20043945 6.7409668 C-9.60020462 6.12231247 -8.99996979 5.50365814 -8.38154602 4.86625671 C-5.51482709 2.06143947 -4.03802408 0.69989237 0 0 Z " fill="#F7F1FB" transform="translate(534.305908203125,603.427001953125)"/>
<path d="M0 0 C1.51509155 0.43421265 1.51509155 0.43421265 3.06079102 0.87719727 C3.91503906 3.47802734 3.91503906 3.47802734 4.06079102 6.87719727 C2.23837904 9.34142613 0.59233824 11.18882677 -1.60717773 13.26391602 C-2.49400993 14.13944878 -2.49400993 14.13944878 -3.39875793 15.03266907 C-5.29228289 16.89367031 -7.20895732 18.72870555 -9.12670898 20.56469727 C-10.39973165 21.81117502 -11.67123522 23.05920626 -12.94116211 24.30883789 C-23.73236738 34.8684483 -23.73236738 34.8684483 -26.93920898 36.87719727 C-31.34946539 36.46694086 -31.34946539 36.46694086 -32.93920898 34.87719727 C-33.43999847 31.91132186 -33.53678546 29.79712545 -31.8576355 27.21218872 C-30.25469447 25.36416759 -28.57975001 23.6338856 -26.84155273 21.91235352 C-26.21446915 21.27478622 -25.58738556 20.63721893 -24.94129944 19.98033142 C-23.61297034 18.63917538 -22.27684954 17.30569791 -20.93359375 15.97949219 C-18.88320024 13.94613459 -16.87289818 11.87826978 -14.86303711 9.80493164 C-13.56647287 8.50514339 -12.26771415 7.20753971 -10.96655273 5.91235352 C-10.36834213 5.29167496 -9.77013153 4.6709964 -9.15379333 4.0315094 C-5.83349499 0.81860289 -4.82102855 -0.15029299 0 0 Z " fill="#F7F1FB" transform="translate(568.939208984375,604.122802734375)"/>
<path d="M0 0 C5.07935457 0.8465591 7.6709089 5.00957984 10.80859375 8.7578125 C12.49757287 10.73500274 14.02403162 12.29858446 16.0625 13.875 C19.19764193 16.46489986 21.64847882 19.30238064 24.26171875 22.40234375 C26.00347548 24.44424681 26.00347548 24.44424681 28.8125 26.375 C30.9375 28.25 30.9375 28.25 31.9375 31.3125 C31.9375 34.25 31.9375 34.25 30.875 36.1875 C28.9375 37.25 28.9375 37.25 26.0625 37.3125 C22.64210488 36.14956566 21.4530323 34.82085765 19.33203125 31.97265625 C17.79251458 30.07090036 16.13042113 28.62637729 14.25 27.0625 C9.88296654 23.34886738 6.1311787 19.18245191 2.33203125 14.8984375 C0.6745475 13.06520099 -1.05482857 11.29540787 -2.8359375 9.58203125 C-5.0625 7.25 -5.0625 7.25 -5.5 4.5625 C-4.79874192 0.85585016 -3.69688587 0.3017866 0 0 Z " fill="#F7F1FB" transform="translate(104.0625,603.75)"/>
<path d="M0 0 C6.09731449 1.07989723 10.08555938 6.7039714 14.1328125 10.984375 C15.01324219 11.891875 15.89367187 12.799375 16.80078125 13.734375 C18.44599037 15.43169482 20.08493723 17.13512472 21.71533203 18.84667969 C24.1128689 21.34379477 26.55722253 23.78943747 29.0078125 26.234375 C30.8828125 28.234375 30.8828125 28.234375 32.0078125 30.234375 C31.76707228 33.60473811 31.41983229 34.82235521 29.0078125 37.234375 C24.43353917 37.26892466 22.11171549 34.8353256 19.01982117 31.82781982 C18.41128799 31.21432678 17.80275482 30.60083374 17.17578125 29.96875 C16.53917068 29.33833801 15.90256012 28.70792603 15.24665833 28.05841064 C13.90626041 26.72510522 12.57096575 25.38665234 11.24047852 24.04345703 C9.20066035 21.98975923 7.13798383 19.96119908 5.07226562 17.93359375 C3.77198513 16.63426431 2.47310772 15.33352892 1.17578125 14.03125 C0.55712692 13.42585388 -0.0615274 12.82045776 -0.69892883 12.19671631 C-4.86360743 7.93956691 -4.86360743 7.93956691 -5.50268555 4.43457031 C-4.67500528 0.86735149 -3.60032335 0.28200966 0 0 Z " fill="#F7F1FB" transform="translate(35.9921875,603.765625)"/>
<path d="M0 0 C2.97627486 -0.46571054 5.13306704 -0.5737569 7.70773315 1.13021851 C9.61085841 2.81624735 11.40296574 4.57167475 13.18359375 6.38671875 C13.84335709 7.04074173 14.50312042 7.69476471 15.18287659 8.36860657 C16.57095588 9.75260906 17.95151133 11.14419323 19.32495117 12.54272461 C21.43378474 14.68372807 23.57276068 16.79080039 25.71679688 18.89648438 C27.06182432 20.24547576 28.40498983 21.59632672 29.74609375 22.94921875 C30.38864609 23.5796257 31.03119843 24.21003265 31.69322205 24.85954285 C35.9960682 29.30237713 35.9960682 29.30237713 36.01586914 32.81567383 C35 35 35 35 33 37 C30.375 37.1875 30.375 37.1875 27 36 C24.84880245 33.91547179 22.9703484 31.68912629 21.0546875 29.38671875 C19.22172455 27.25755456 17.39515482 25.48996411 15.25 23.6875 C11.56843885 20.53608365 8.00120342 17.28708054 4.5 13.9375 C3.68837402 13.19536255 3.68837402 13.19536255 2.86035156 12.43823242 C0.22919484 9.88204587 -0.94451931 8.44331201 -1.40625 4.75390625 C-1 2 -1 2 0 0 Z " fill="#F7F1FB" transform="translate(134,604)"/>
<path d="M0 0 C2.8125 0.5 2.8125 0.5 4.8125 2.5 C4.9375 5.6875 4.9375 5.6875 3.8125 9.5 C2.32617188 11.0168457 2.32617188 11.0168457 0.40625 12.55078125 C-3.06602281 15.46139708 -6.22456112 18.53288427 -9.3515625 21.8125 C-10.69347656 23.20662109 -10.69347656 23.20662109 -12.0625 24.62890625 C-13.4485484 26.07598803 -14.83437785 27.52342298 -16.20214844 28.98779297 C-17.54788765 30.4242295 -18.91819188 31.83752782 -20.2890625 33.25 C-21.08650879 34.09046875 -21.88395508 34.9309375 -22.70556641 35.796875 C-25.1875 37.5 -25.1875 37.5 -28.49365234 37.265625 C-29.82710693 36.88664063 -29.82710693 36.88664063 -31.1875 36.5 C-31.9375 33.8125 -31.9375 33.8125 -32.1875 30.5 C-30.375 27.625 -30.375 27.625 -28.1875 25.5 C-27.5275 25.5 -26.8675 25.5 -26.1875 25.5 C-26.1875 24.84 -26.1875 24.18 -26.1875 23.5 C-25.5275 23.5 -24.8675 23.5 -24.1875 23.5 C-24.1875 22.84 -24.1875 22.18 -24.1875 21.5 C-23.5275 21.5 -22.8675 21.5 -22.1875 21.5 C-22.1875 20.84 -22.1875 20.18 -22.1875 19.5 C-21.5275 19.5 -20.8675 19.5 -20.1875 19.5 C-20.1875 18.84 -20.1875 18.18 -20.1875 17.5 C-19.5275 17.5 -18.8675 17.5 -18.1875 17.5 C-18.1875 16.84 -18.1875 16.18 -18.1875 15.5 C-17.5275 15.5 -16.8675 15.5 -16.1875 15.5 C-16.1875 14.84 -16.1875 14.18 -16.1875 13.5 C-14.61328125 11.984375 -14.61328125 11.984375 -12.5 10.25 C-9.82521494 8.00769336 -7.60841466 5.88653302 -5.5625 3.0625 C-3.1875 0.5 -3.1875 0.5 0 0 Z " fill="#FCF9FE" transform="translate(669.1875,603.5)"/>
<path d="M0 0 C5.06943753 0.84490625 7.65543877 4.98768346 10.78125 8.734375 C12.59438927 10.84970415 14.31829157 12.54168113 16.5 14.25 C17.304375 14.91 18.10875 15.57 18.9375 16.25 C18.9375 16.91 18.9375 17.57 18.9375 18.25 C19.9275 18.58 20.9175 18.91 21.9375 19.25 C23.65625 20.9921875 23.65625 20.9921875 25.4375 23.125 C27.92401015 26.09444691 27.92401015 26.09444691 30.67578125 28.80859375 C31.09214844 29.28425781 31.50851563 29.75992188 31.9375 30.25 C31.625 33.4375 31.625 33.4375 30.9375 36.25 C28.31640625 37.1015625 28.31640625 37.1015625 24.9375 37.25 C22.57960326 35.42316109 20.83289777 33.81279286 18.875 31.625 C18.11993164 30.82255859 18.11993164 30.82255859 17.34960938 30.00390625 C16.3452171 28.93584615 15.34734876 27.86161229 14.35620117 26.78125 C12.27979354 24.54011618 10.10782896 22.39985416 7.9375 20.25 C6.99511726 19.29784047 6.05374421 18.34468077 5.11328125 17.390625 C4.15886663 16.42707098 3.20443948 15.46352938 2.25 14.5 C1.76466797 14.00628906 1.27933594 13.51257813 0.77929688 13.00390625 C-1.88090217 10.28384724 -1.88090217 10.28384724 -5.0625 8.25 C-5.1875 5.375 -5.1875 5.375 -5.0625 2.25 C-3.0625 0.25 -3.0625 0.25 0 0 Z " fill="#F9F4FC" transform="translate(70.0625,603.75)"/>
<path d="M0 0 C2.375 0.375 2.375 0.375 4.375 2.375 C4.7578125 4.7265625 4.7578125 4.7265625 4.375 7.375 C2.6171875 9.5859375 2.6171875 9.5859375 0.25 11.75 C-2.56589013 14.40335045 -5.24632193 16.99755384 -7.6875 20 C-10.41656877 23.27488252 -13.48869325 25.97998278 -16.73046875 28.73828125 C-19.16101577 30.83807342 -21.38757788 33.07177134 -23.625 35.375 C-24.285 36.035 -24.945 36.695 -25.625 37.375 C-28.92214793 37.04528521 -30.2476839 36.7523161 -32.625 34.375 C-32.25 31.25 -32.25 31.25 -31.625 28.375 C-30.965 28.375 -30.305 28.375 -29.625 28.375 C-29.625 27.715 -29.625 27.055 -29.625 26.375 C-27.98046875 24.7890625 -27.98046875 24.7890625 -25.8125 23 C-23.56249143 21.13933718 -21.72149715 19.50627297 -19.98828125 17.1484375 C-19.53839844 16.56320312 -19.08851563 15.97796875 -18.625 15.375 C-17.965 15.375 -17.305 15.375 -16.625 15.375 C-16.625 14.715 -16.625 14.055 -16.625 13.375 C-15.965 13.375 -15.305 13.375 -14.625 13.375 C-14.625 12.715 -14.625 12.055 -14.625 11.375 C-13.015625 9.7890625 -13.015625 9.7890625 -10.875 8 C-8.55390918 6.0460413 -6.46805524 4.2001187 -4.4375 1.9375 C-2.625 0.375 -2.625 0.375 0 0 Z " fill="#FAF5FC" transform="translate(635.625,603.625)"/>
<path d="M0 0 C2.20019531 0.51049805 2.20019531 0.51049805 4.20019531 2.51049805 C4.72436523 4.69262695 4.72436523 4.69262695 4.20019531 7.51049805 C2.34315017 10.13857722 0.09690116 12.33790864 -2.18652344 14.59643555 C-3.16755791 15.58820297 -3.16755791 15.58820297 -4.16841125 16.6000061 C-5.55353858 17.99291244 -6.94509501 19.37945076 -8.3425293 20.76000977 C-10.48143287 22.87967904 -12.58938709 25.02704069 -14.69628906 27.1784668 C-16.04542873 28.52789679 -17.39628455 29.87561363 -18.74902344 31.22143555 C-19.69463387 32.18996964 -19.69463387 32.18996964 -20.65934753 33.17807007 C-25.10343791 37.5060299 -25.10343791 37.5060299 -28.61547852 37.52856445 C-30.79980469 36.51049805 -30.79980469 36.51049805 -32.79980469 34.51049805 C-32.83435435 29.93622472 -30.40075529 27.61440104 -27.39324951 24.52250671 C-26.77975647 23.91397354 -26.16626343 23.30544037 -25.53417969 22.6784668 C-24.9037677 22.04185623 -24.27335571 21.40524567 -23.62384033 20.74934387 C-22.29053491 19.40894596 -20.95208203 18.07365129 -19.60888672 16.74316406 C-17.55518892 14.70334589 -15.52662876 12.64066938 -13.49902344 10.57495117 C-12.199694 9.27467067 -10.89895861 7.97579326 -9.59667969 6.6784668 C-8.99128357 6.05981247 -8.38588745 5.44115814 -7.762146 4.80375671 C-3.50499659 0.63907812 -3.50499659 0.63907812 0 0 Z " fill="#FAF5FD" transform="translate(601.7998046875,603.489501953125)"/>
<path d="M0 0 C4.35573667 0.79015803 6.5909753 3.56313038 9.6340332 6.64111328 C10.27064377 7.27056854 10.90725433 7.9000238 11.56315613 8.54855347 C12.90478773 9.88240603 14.24005241 11.22268893 15.56933594 12.56884766 C17.6056324 14.62434758 19.66950046 16.64887113 21.73754883 18.67236328 C23.03815077 19.97267482 24.33703862 21.27470357 25.6340332 22.57861328 C26.25268753 23.18198517 26.87134186 23.78535706 27.50874329 24.40701294 C30.36285039 27.34042979 31.69711278 28.71914553 32.25 32.87890625 C31.80200195 35.50830078 31.80200195 35.50830078 30.80200195 36.50830078 C27.75224046 37.01659436 25.66499627 37.07351464 23.0246582 35.34423828 C21.20993817 33.7955713 19.49671626 32.18710228 17.80200195 30.50830078 C16.91512695 29.66267578 16.02825195 28.81705078 15.11450195 27.94580078 C12.85476271 25.56391347 10.85186222 23.07062612 8.80200195 20.50830078 C6.49293243 18.13509044 4.14815187 15.82479912 1.7043457 13.59033203 C0.97344727 12.90326172 0.24254883 12.21619141 -0.51049805 11.50830078 C-1.20788086 10.86892578 -1.90526367 10.22955078 -2.6237793 9.57080078 C-4.19799805 7.50830078 -4.19799805 7.50830078 -4.5534668 4.88330078 C-4.07553521 1.69008752 -3.14452984 0.72719217 0 0 Z " fill="#FAF5FD" transform="translate(171.197998046875,603.49169921875)"/>
<path d="M0 0 C6.27 0 12.54 0 19 0 C19 33 19 66 19 100 C13.06 100 7.12 100 1 100 C0.67 76.57 0.34 53.14 0 29 C0.99 29.33 1.98 29.66 3 30 C3 52.77 3 75.54 3 99 C7.62 99 12.24 99 17 99 C17 66.99 17 34.98 17 2 C3.06615032 1.27534507 3.06615032 1.27534507 -1 6 C-1.99 5.67 -2.98 5.34 -4 5 C-2.68 3.35 -1.36 1.7 0 0 Z " fill="#D1F5FE" transform="translate(644,214)"/>
<path d="M0 0 C16.83 0 33.66 0 51 0 C51 5.61 51 11.22 51 17 C34.17 17 17.34 17 0 17 C0 16.34 0 15.68 0 15 C16.17 15 32.34 15 49 15 C49 10.71 49 6.42 49 2 C32.83 2 16.66 2 0 2 C0 1.34 0 0.68 0 0 Z " fill="#C0E6F6" transform="translate(76,257)"/>
<path d="M0 0 C0.33 0 0.66 0 1 0 C1.82396374 7.6215624 2.13662054 15.13008137 2.09765625 22.79296875 C2.0962413 23.86501053 2.09482635 24.93705231 2.09336853 26.0415802 C2.08782702 29.42358338 2.07528587 32.80551726 2.0625 36.1875 C2.05747743 38.49804591 2.05291585 40.80859287 2.04882812 43.11914062 C2.03787684 48.74611689 2.02119821 54.37305349 2 60 C0.68 60 -0.64 60 -2 60 C-2.05081865 52.58018934 -2.0857835 45.16042379 -2.10986328 37.74047852 C-2.11990461 35.21767499 -2.13354032 32.69488306 -2.15087891 30.17211914 C-2.17520898 26.54049819 -2.18650202 22.90903149 -2.1953125 19.27734375 C-2.20563507 18.15416245 -2.21595764 17.03098114 -2.22659302 15.87376404 C-2.22740405 10.17972365 -1.94142159 5.37081856 0 0 Z " fill="#73439E" transform="translate(350,585)"/>
<path d="M0 0 C6.6 0 13.2 0 20 0 C20 33 20 66 20 100 C14.06 100 8.12 100 2 100 C1.67 76.57 1.34 53.14 1 29 C1.66 29 2.32 29 3 29 C3 52.1 3 75.2 3 99 C8.28 99 13.56 99 19 99 C19 66.66 19 34.32 19 1 C3.94832435 0.16951347 3.94832435 0.16951347 -1 6 C-1.66 5.67 -2.32 5.34 -3 5 C-2.01 3.35 -1.02 1.7 0 0 Z " fill="#FEBFC4" transform="translate(643,387)"/>
<path d="M0 0 C1.98 0 3.96 0 6 0 C6.2475 0.78375 6.495 1.5675 6.75 2.375 C8.22262751 5.46751777 8.86015459 5.83868731 12 7 C14.82085728 7.24073194 14.82085728 7.24073194 17.75 7.125 C18.73484375 7.10695313 19.7196875 7.08890625 20.734375 7.0703125 C21.48203125 7.04710937 22.2296875 7.02390625 23 7 C22.69750921 10.32739873 22.28765829 12.5627594 20.4375 15.375 C17.00544274 17.66303818 13.94322091 17.60725602 10 17 C5.62129918 15.57437648 4.24973686 12.9738375 2.1875 9.0625 C0.4733953 5.56572641 0 4.00876707 0 0 Z " fill="#F5EEFA" transform="translate(363,654)"/>
<path d="M0 0 C1.98 0 3.96 0 6 0 C5.53965428 5.52414861 4.30172855 10.44047009 1 15 C-3.07286374 17.64950505 -7.29297237 17.69093984 -12 17 C-14.5625 15.375 -14.5625 15.375 -16 13 C-16.25 9.75 -16.25 9.75 -16 7 C-15.33613281 7.04640625 -14.67226563 7.0928125 -13.98828125 7.140625 C-8.19355476 7.4038165 -8.19355476 7.4038165 -2.9375 5.1875 C-0.80456149 3.06749463 -0.80456149 3.06749463 0 0 Z " fill="#F6EFFA" transform="translate(331,654)"/>
<path d="M0 0 C0.78503906 0.00644531 1.57007813 0.01289062 2.37890625 0.01953125 C4.4375 0.1875 4.4375 0.1875 6.4375 1.1875 C6.4375 1.8475 6.4375 2.5075 6.4375 3.1875 C3.89546189 4.61104134 1.65195081 5.40420323 -1.1875 6.1875 C-4.59964202 6.90658078 -4.59964202 6.90658078 -6.5625 9.1875 C-7.00746112 12.59886861 -7.03581015 14.46724542 -5.125 17.375 C-1.55033168 19.90342394 2.25154366 21.00684565 6.4375 22.1875 C5.7775 23.1775 5.1175 24.1675 4.4375 25.1875 C0.38104175 25.80628177 -2.08627882 26.10872963 -5.609375 23.91015625 C-11.33234585 19.07400939 -11.33234585 19.07400939 -11.80078125 15.234375 C-11.98043771 9.67448022 -11.31019054 6.57765178 -7.5625 2.1875 C-4.404724 0.082316 -3.60852866 -0.06539344 0 0 Z " fill="#EEE2F6" transform="translate(340.5625,695.8125)"/>
<path d="M0 0 C16.17 0 32.34 0 49 0 C49 0.33 49 0.66 49 1 C44.9472484 1.98248524 41.16138263 2.08159574 37 2 C36.814375 3.3921875 36.814375 3.3921875 36.625 4.8125 C36 8 36 8 34 11 C33.34 8.69 32.68 6.38 32 4 C29.03 3.505 29.03 3.505 26 3 C26.01160156 3.94101562 26.02320313 4.88203125 26.03515625 5.8515625 C26.04417969 7.09679687 26.05320312 8.34203125 26.0625 9.625 C26.07410156 10.85476563 26.08570313 12.08453125 26.09765625 13.3515625 C26.00863924 16.67723791 25.63686087 19.74047588 25 23 C22.64641749 20.64641749 22.72128096 20.07031606 22.5859375 16.8671875 C22.54726563 16.06152344 22.50859375 15.25585938 22.46875 14.42578125 C22.4378125 13.58402344 22.406875 12.74226562 22.375 11.875 C22.33632813 11.02550781 22.29765625 10.17601562 22.2578125 9.30078125 C22.16343506 7.20088316 22.08062414 5.10047109 22 3 C18.25016118 2.11768498 14.84613884 1.92150737 11 2 C7.15386116 2.07849263 3.74983882 1.88231502 0 1 C0 0.67 0 0.34 0 0 Z " fill="#602C8F" transform="translate(326,651)"/>
<path d="M0 0 C6.15238479 -0.62566625 9.76787274 0.13846527 15.3125 2.9375 C21.59522199 6.08626987 27.01927002 6.97484422 34 7 C34 7.66 34 8.32 34 9 C30.68070915 11.69692381 27.59691888 12.6297036 23.30859375 12.5 C19.33634377 11.6396819 16.08697595 9.4480419 12.62109375 7.390625 C10.227405 6.12065004 8.65594084 5.55956426 6 5.3125 C3 5 3 5 1.0625 3.5625 C0 2 0 2 0 0 Z " fill="#E9DBF3" transform="translate(335,709)"/>
<path d="M0 0 C3 1.4375 3 1.4375 5 3 C5 3.33 5 3.66 5 4 C4.38253906 4.01417969 3.76507813 4.02835938 3.12890625 4.04296875 C-2.86352343 4.38044196 -6.92280385 5.62628141 -11.9921875 8.84375 C-15.54972107 10.89244637 -18.69611512 11.12211595 -22.75 11.0625 C-23.54921875 11.05347656 -24.3484375 11.04445313 -25.171875 11.03515625 C-25.77515625 11.02355469 -26.3784375 11.01195312 -27 11 C-26.29296875 9.09375 -26.29296875 9.09375 -25 7 C-22.86328125 6.09375 -22.86328125 6.09375 -20.3125 5.5 C-16.9458902 4.62574408 -14.28004176 3.72459446 -11.375 1.8125 C-7.00795724 -0.5327637 -4.9011857 -0.55335968 0 0 Z " fill="#F0E4F7" transform="translate(363,696)"/>
<path d="M0 0 C21.81378535 -0.82555811 21.81378535 -0.82555811 30 4 C29.67 5.32 29.34 6.64 29 8 C25.8460002 7.53843905 22.91581882 6.97306202 19.875 6 C15.58571605 4.67579153 11.23117222 4.6650652 6.76953125 4.5390625 C3.37743696 3.87882412 2.17915346 2.61082347 0 0 Z " fill="#F3E9F9" transform="translate(353,710)"/>
<path d="M0 0 C0.66 0 1.32 0 2 0 C2.65043719 1.72744016 3.29514844 3.4570369 3.9375 5.1875 C4.47697266 6.63189453 4.47697266 6.63189453 5.02734375 8.10546875 C6.86154184 13.56386548 7.09668677 18.29548038 7 24 C5.68 24 4.36 24 3 24 C2.29419739 21.5039427 1.6103726 19.00495146 0.9375 16.5 C0.73833984 15.80390625 0.53917969 15.1078125 0.33398438 14.390625 C-1.03161083 9.2157379 -0.94371481 5.27055819 0 0 Z " fill="#6C3B99" transform="translate(335,620)"/>
<path d="M0 0 C0.33 0 0.66 0 1 0 C1 23.1 1 46.2 1 70 C0.67 70 0.34 70 0 70 C-0.01030746 69.2277005 -0.02061493 68.455401 -0.03123474 67.65969849 C-0.12910994 60.3904686 -0.23161 53.12132579 -0.33933926 45.85223579 C-0.39456319 42.11489964 -0.44798232 38.37755565 -0.49731445 34.64013672 C-0.54496587 31.03503385 -0.59730892 27.43002715 -0.65294075 23.82503891 C-0.67336079 22.44791933 -0.69207447 21.07077338 -0.70907402 19.69360733 C-0.73312547 17.768496 -0.76374251 15.84347005 -0.79467773 13.91845703 C-0.81799416 12.27298386 -0.81799416 12.27298386 -0.84178162 10.5942688 C-0.82896195 8.01546248 -0.82896195 8.01546248 -2 6 C-2.66 5.67 -3.32 5.34 -4 5 C-2.69254251 3.31295807 -1.35827971 1.64639965 0 0 Z " fill="#B4434A" transform="translate(644,417)"/>
<path d="M0 0 C0.99 0.33 1.98 0.66 3 1 C3 1.66 3 2.32 3 3 C4.98 2.34 6.96 1.68 9 1 C8.773125 1.7425 8.54625 2.485 8.3125 3.25 C7.70523302 6.05914993 7.70523302 6.05914993 9.4375 8.3125 C9.953125 8.869375 10.46875 9.42625 11 10 C10.030625 10.12375 9.06125 10.2475 8.0625 10.375 C7.051875 10.58125 6.04125 10.7875 5 11 C4.67 11.66 4.34 12.32 4 13 C3.34 13 2.68 13 2 13 C1.87625 12.071875 1.87625 12.071875 1.75 11.125 C1.18741541 8.81562433 1.18741541 8.81562433 -1.0625 7.75 C-1.701875 7.5025 -2.34125 7.255 -3 7 C-2.01 6.34 -1.02 5.68 0 5 C0.25030977 2.41619823 0.25030977 2.41619823 0 0 Z " fill="#73489B" transform="translate(304,616)"/>
<path d="M0 0 C1.65 1.65 3.3 3.3 5 5 C4.67 5.66 4.34 6.32 4 7 C3.01 6.67 2.02 6.34 1 6 C1 26.79 1 47.58 1 69 C0.67 69 0.34 69 0 69 C0 46.23 0 23.46 0 0 Z " fill="#1B8FC4" transform="translate(582,245)"/>
<path d="M0 0 C0.33 1.32 0.66 2.64 1 4 C9.91 4 18.82 4 28 4 C28.33 2.68 28.66 1.36 29 0 C30.4606285 2.64738916 31 3.89448334 31 7 C20.11 7 9.22 7 -2 7 C-1.34 4.69 -0.68 2.38 0 0 Z " fill="#992C2D" transform="translate(251,440)"/>
<path d="M0 0 C0.886875 0.12375 1.77375 0.2475 2.6875 0.375 C1.79292587 0.78208946 1.79292587 0.78208946 0.88027954 1.19740295 C-1.27763311 2.3562753 -2.67698429 3.49166495 -4.39697266 5.21655273 C-4.97081696 5.7873204 -5.54466125 6.35808807 -6.13589478 6.94615173 C-6.74331512 7.5607576 -7.35073547 8.17536346 -7.9765625 8.80859375 C-8.60984467 9.44233414 -9.24312683 10.07607452 -9.89559937 10.72901917 C-11.23095165 12.06738757 -12.5638776 13.40818065 -13.89453125 14.7512207 C-15.9317793 16.80672802 -17.97691864 18.85411762 -20.0234375 20.90039062 C-21.32078542 22.20265403 -22.6176761 23.50537316 -23.9140625 24.80859375 C-24.52553131 25.42117538 -25.13700012 26.03375702 -25.76699829 26.66490173 C-26.33453827 27.23882156 -26.90207825 27.81274139 -27.48681641 28.40405273 C-27.98549225 28.90654037 -28.48416809 29.40902802 -28.99795532 29.92674255 C-30.53555915 31.54873033 -30.53555915 31.54873033 -32.3125 34.375 C-31.70233051 28.88347458 -31.70233051 28.88347458 -29.875 26.5 C-28.3125 25.375 -28.3125 25.375 -26.3125 25.375 C-26.3125 24.715 -26.3125 24.055 -26.3125 23.375 C-25.6525 23.375 -24.9925 23.375 -24.3125 23.375 C-24.3125 22.715 -24.3125 22.055 -24.3125 21.375 C-23.6525 21.375 -22.9925 21.375 -22.3125 21.375 C-22.3125 20.715 -22.3125 20.055 -22.3125 19.375 C-21.6525 19.375 -20.9925 19.375 -20.3125 19.375 C-20.3125 18.715 -20.3125 18.055 -20.3125 17.375 C-19.6525 17.375 -18.9925 17.375 -18.3125 17.375 C-18.3125 16.715 -18.3125 16.055 -18.3125 15.375 C-17.6525 15.375 -16.9925 15.375 -16.3125 15.375 C-16.3125 14.715 -16.3125 14.055 -16.3125 13.375 C-14.73828125 11.859375 -14.73828125 11.859375 -12.625 10.125 C-9.95021494 7.88269336 -7.73341466 5.76153302 -5.6875 2.9375 C-3.3125 0.375 -3.3125 0.375 0 0 Z " fill="#EBDBF5" transform="translate(669.3125,603.625)"/>
<path d="M0 0 C1.00675781 -0.01611328 2.01351563 -0.03222656 3.05078125 -0.04882812 C8.99331832 -0.05272232 13.235516 0.51019742 18.5 3.3125 C16.24297692 4.06484103 14.80848188 4.38295939 12.46484375 3.84765625 C8.22226431 3.08186787 4.05191919 3.16840864 -0.25 3.1875 C-1.53390625 3.18169922 -1.53390625 3.18169922 -2.84375 3.17578125 C-8.47088334 3.18430721 -13.91788261 3.60061053 -19.5 4.3125 C-18.5 2.3125 -18.5 2.3125 -15.65625 1.20703125 C-10.50004813 -0.13331817 -5.29475896 -0.01694865 0 0 Z " fill="#3B7BAF" transform="translate(439.5,210.6875)"/>
<path d="M0 0 C0.99 0 1.98 0 3 0 C2.79503906 0.58007812 2.59007812 1.16015625 2.37890625 1.7578125 C2.10949219 2.53898438 1.84007812 3.32015625 1.5625 4.125 C1.29566406 4.89070312 1.02882813 5.65640625 0.75390625 6.4453125 C-2.33105967 16.8990312 -1.37900327 28.31272465 0 39 C-0.66 38.67 -1.32 38.34 -2 38 C-5.29394536 27.20317911 -4.80285989 15.86108207 -2 5 C-1.34 5 -0.68 5 0 5 C0 3.35 0 1.7 0 0 Z " fill="#2E71A9" transform="translate(389,242)"/>
<path d="M0 0 C0.33 0 0.66 0 1 0 C1 1.98 1 3.96 1 6 C2.32 6.66 3.64 7.32 5 8 C4.21625 8.0825 3.4325 8.165 2.625 8.25 C-0.14749104 8.72806339 -0.14749104 8.72806339 -1.3125 11.0625 C-1.539375 11.701875 -1.76625 12.34125 -2 13 C-2.33 12.34 -2.66 11.68 -3 11 C-6.02934491 10.34227572 -6.02934491 10.34227572 -9 10 C-8.484375 9.236875 -7.96875 8.47375 -7.4375 7.6875 C-6.7259375 6.3571875 -6.7259375 6.3571875 -6 5 C-6.33 4.01 -6.66 3.02 -7 2 C-4.03 2.495 -4.03 2.495 -1 3 C-0.67 2.01 -0.34 1.02 0 0 Z " fill="#72469A" transform="translate(395,616)"/>
<path d="M0 0 C0.99 0.33 1.98 0.66 3 1 C-3.33333333 7.33333333 -9.66666667 13.66666667 -16 20 C-16.99 19.67 -17.98 19.34 -19 19 C-12.73 12.73 -6.46 6.46 0 0 Z " fill="#7C51A3" transform="translate(599,617)"/>
<path d="M0 0 C0.66 0.33 1.32 0.66 2 1 C-2.23202977 5.97263498 -6.609616 10.69457896 -11.30078125 15.23828125 C-13.19089136 17.09309306 -13.19089136 17.09309306 -15 20 C-15.66 20 -16.32 20 -17 20 C-14.04775805 13.60347579 -10.26575835 9.09137213 -4.90234375 4.61328125 C-3.17443907 3.14793293 -1.57630241 1.62540841 0 0 Z " fill="#6F3F99" transform="translate(303,567)"/>
<path d="M0 0 C0 1.33333333 0 2.66666667 0 4 C-0.74765625 4.04898438 -1.4953125 4.09796875 -2.265625 4.1484375 C-3.25046875 4.22320313 -4.2353125 4.29796875 -5.25 4.375 C-6.22453125 4.44460938 -7.1990625 4.51421875 -8.203125 4.5859375 C-11.31584202 4.8984174 -11.31584202 4.8984174 -15 7 C-11.04 7.33 -7.08 7.66 -3 8 C-3 8.33 -3 8.66 -3 9 C-7.62 9 -12.24 9 -17 9 C-17 7.68 -17 6.36 -17 5 C-11.34724339 1.19053359 -6.77386385 0.27259009 0 0 Z " fill="#8765A7" transform="translate(368,699)"/>
<path d="M0 0 C3 2 3 2 3.75 4.125 C4.07890795 7.90744144 3.57252213 11.24679939 3 15 C1.68 15 0.36 15 -1 15 C-1.18451025 4.44191344 -1.18451025 4.44191344 0 0 Z " fill="#6A3A97" transform="translate(360,629)"/>
<path d="M0 0 C5.94 0 11.88 0 18 0 C18 0.33 18 0.66 18 1 C13.05 1.33 8.1 1.66 3 2 C6.40431947 4.26954631 8.16524202 4.36549949 12.1875 4.625 C13.27417969 4.69976563 14.36085938 4.77453125 15.48046875 4.8515625 C16.72763672 4.92503906 16.72763672 4.92503906 18 5 C18 5.33 18 5.66 18 6 C9.85015527 7.26867295 4.20214017 7.23762288 -3 3 C-2.01 2.67 -1.02 2.34 0 2 C0 1.34 0 0.68 0 0 Z " fill="#8962AD" transform="translate(351,709)"/>
<path d="M0 0 C0.33 1.65 0.66 3.3 1 5 C-2.61973402 6.31626692 -5.09567131 7 -9 7 C-8.8125 4.625 -8.8125 4.625 -8 2 C-5.11090151 0.40339294 -3.30941204 0 0 0 Z " fill="#EADAF4" transform="translate(327,711)"/>
<path d="M0 0 C0.33 0.99 0.66 1.98 1 3 C-1.45023758 5.50804718 -3.91147598 8.0050076 -6.375 10.5 C-7.42300781 11.57314453 -7.42300781 11.57314453 -8.4921875 12.66796875 C-9.1625 13.34472656 -9.8328125 14.02148438 -10.5234375 14.71875 C-11.14138184 15.34716797 -11.75932617 15.97558594 -12.39599609 16.62304688 C-14 18 -14 18 -16 18 C-14.40907948 13.86360664 -11.39525082 10.76786752 -8 8 C-7.34 8 -6.68 8 -6 8 C-5.7525 7.4225 -5.505 6.845 -5.25 6.25 C-3.83316683 3.6997003 -2.12372463 1.98214299 0 0 Z " fill="#76499F" transform="translate(631,619)"/>
<path d="M0 0 C0.85078125 0.46599609 0.85078125 0.46599609 1.71875 0.94140625 C4.02137772 2.00992014 6.01033517 2.48987191 8.5 2.9375 C12.00074425 3.65841109 14.35470108 4.46971408 17 7 C15.68 7.99 14.36 8.98 13 10 C12.67 9.01 12.34 8.02 12 7 C9.48359313 6.08131178 6.95755563 5.53849114 4.34765625 4.94140625 C2 4 2 4 0.68359375 1.90234375 C0.45800781 1.27457031 0.23242188 0.64679687 0 0 Z " fill="#764E9C" transform="translate(334,711)"/>
<path d="M0 0 C0.66 0.33 1.32 0.66 2 1 C3.29930238 5.28769786 3.07516774 9.56510345 3 14 C1.68 14 0.36 14 -1 14 C-1.18451025 4.58997722 -1.18451025 4.58997722 0 0 Z " fill="#653392" transform="translate(339,630)"/>
<path d="M0 0 C0.66 0.165 1.32 0.33 2 0.5 C2 0.83 2 1.16 2 1.5 C0.02 1.5 -1.96 1.5 -4 1.5 C-4.33 2.82 -4.66 4.14 -5 5.5 C-5.66 5.17 -6.32 4.84 -7 4.5 C-7.66 5.16 -8.32 5.82 -9 6.5 C-9 4.85 -9 3.2 -9 1.5 C-10.65 1.5 -12.3 1.5 -14 1.5 C-9.54547875 -1.46968084 -5.09423683 -0.84903947 0 0 Z " fill="#6E3C9C" transform="translate(346,652.5)"/>
<path d="M0 0 C0.33 0 0.66 0 1 0 C1.33 5.28 1.66 10.56 2 16 C1.01 15.67 0.02 15.34 -1 15 C-1.02693575 12.87506859 -1.04636628 10.75004088 -1.0625 8.625 C-1.07410156 7.44164062 -1.08570313 6.25828125 -1.09765625 5.0390625 C-1 2 -1 2 0 0 Z " fill="#6D4591" transform="translate(350,585)"/>
<path d="M0 0 C0.66 0 1.32 0 2 0 C2.08333357 4.8333472 1.95261487 9.23692563 1 14 C-1 12 -1 12 -1.23046875 9.43359375 C-1.21628906 8.44488281 -1.20210938 7.45617187 -1.1875 6.4375 C-1.18105469 5.44621094 -1.17460937 4.45492187 -1.16796875 3.43359375 C-1 1 -1 1 0 0 Z " fill="#734B96" transform="translate(350,660)"/>
<path d="M0 0 C0.88107422 0.03351563 1.76214844 0.06703125 2.66992188 0.1015625 C3.56259766 0.11960938 4.45527344 0.13765625 5.375 0.15625 C7.57855691 0.20338491 9.77994789 0.26915593 11.98242188 0.3515625 C11.65242187 1.0115625 11.32242188 1.6715625 10.98242188 2.3515625 C9.93441406 2.31675781 8.88640625 2.28195313 7.80664062 2.24609375 C6.42775041 2.21795313 5.04884285 2.19065326 3.66992188 2.1640625 C2.97962891 2.13892578 2.28933594 2.11378906 1.578125 2.08789062 C-2.49989046 1.99409583 -2.49989046 1.99409583 -5.99804688 3.86328125 C-6.33449219 4.35441406 -6.6709375 4.84554687 -7.01757812 5.3515625 C-8.00757813 5.0215625 -8.99757813 4.6915625 -10.01757812 4.3515625 C-7.83748398 -0.48462889 -4.73009237 -0.07194057 0 0 Z " fill="#E3FAFD" transform="translate(650.017578125,214.6484375)"/>
<path d="M0 0 C2.56800144 -0.08029861 5.092363 -0.02192966 7.65869141 0.10009766 C8.55136719 0.12265625 9.44404297 0.14521484 10.36376953 0.16845703 C12.56793413 0.22739191 14.76871812 0.30958948 16.97119141 0.41259766 C16.97119141 0.74259766 16.97119141 1.07259766 16.97119141 1.41259766 C15.86259766 1.43837891 14.75400391 1.46416016 13.61181641 1.49072266 C12.14823593 1.54701421 10.68469579 1.60436132 9.22119141 1.66259766 C8.12677734 1.68386719 8.12677734 1.68386719 7.01025391 1.70556641 C3.34543292 1.87214918 1.34068069 2.11195731 -1.54443359 4.45947266 C-2.03427734 5.10400391 -2.52412109 5.74853516 -3.02880859 6.41259766 C-3.68880859 6.08259766 -4.34880859 5.75259766 -5.02880859 5.41259766 C-3.97300697 2.48493812 -3.20332093 0.65145757 0 0 Z " fill="#FDD4D7" transform="translate(645.02880859375,386.58740234375)"/>
<path d="M0 0 C0 0.66 0 1.32 0 2 C-0.99 2.33 -1.98 2.66 -3 3 C-2.67 3.99 -2.34 4.98 -2 6 C-3.27875 5.71125 -4.5575 5.4225 -5.875 5.125 C-6.59429687 4.96257813 -7.31359375 4.80015625 -8.0546875 4.6328125 C-10 4 -10 4 -12 2 C-10.37548581 1.66430703 -8.75037083 1.3315204 -7.125 1 C-6.22007812 0.814375 -5.31515625 0.62875 -4.3828125 0.4375 C-2 0 -2 0 0 0 Z " fill="#673892" transform="translate(377,705)"/>
<path d="M0 0 C0.66 0.33 1.32 0.66 2 1 C0.92492371 2.29854721 -0.16043736 3.58858361 -1.25 4.875 C-1.85328125 5.59429687 -2.4565625 6.31359375 -3.078125 7.0546875 C-4.97087634 8.97052118 -6.53657727 9.96449045 -9 11 C-7.59155282 7.78475695 -5.89655214 5.67816132 -3.375 3.25 C-2.74335938 2.63640625 -2.11171875 2.0228125 -1.4609375 1.390625 C-0.73777344 0.70226562 -0.73777344 0.70226562 0 0 Z " fill="#D2E9F6" transform="translate(406,223)"/>
<path d="M0 0 C0.66 0.33 1.32 0.66 2 1 C-5.29840547 9.44646925 -5.29840547 9.44646925 -9 13 C-9.66 12.67 -10.32 12.34 -11 12 C-7.37 8.04 -3.74 4.08 0 0 Z " fill="#EBDBF4" transform="translate(349,563)"/>
<path d="M0 0 C0.66 0.33 1.32 0.66 2 1 C0.515 3.475 0.515 3.475 -1 6 C1.31 6 3.62 6 6 6 C6 6.33 6 6.66 6 7 C3.98177083 6.90234375 1.96354167 6.8046875 -0.0546875 6.70703125 C-1.01761719 6.85205078 -1.01761719 6.85205078 -2 7 C-2.66 7.99 -3.32 8.98 -4 10 C-4.25 7.25 -4.25 7.25 -4 4 C-2 1.625 -2 1.625 0 0 Z " fill="#8764A6" transform="translate(337,701)"/>
<path d="M0 0 C0.99 0 1.98 0 3 0 C2.79503906 0.58007812 2.59007812 1.16015625 2.37890625 1.7578125 C0.85990187 6.1621984 -0.4047151 10.35677777 -1 15 C-1.33 15 -1.66 15 -2 15 C-2 11.7 -2 8.4 -2 5 C-1.34 5 -0.68 5 0 5 C0 3.35 0 1.7 0 0 Z " fill="#3A7BB0" transform="translate(389,242)"/>
<path d="M0 0 C0.33 0.66 0.66 1.32 1 2 C-0.78706284 5.45087996 -2.25853216 8.25853216 -5 11 C-5.99 10.67 -6.98 10.34 -8 10 C-7.01 9.67 -6.02 9.34 -5 9 C-4.28752268 7.3523962 -3.62599617 5.68236471 -3 4 C-2.04175747 2.63634717 -1.05278825 1.29205831 0 0 Z " fill="#4885B7" transform="translate(485,290)"/>
<path d="M0 0 C0.99 0.33 1.98 0.66 3 1 C2.67 1.66 2.34 2.32 2 3 C1.9047301 4.47668337 1.87014041 5.95775457 1.875 7.4375 C1.87242187 8.21996094 1.86984375 9.00242187 1.8671875 9.80859375 C1.91617452 12.17895347 1.91617452 12.17895347 3 15 C2.34 15 1.68 15 1 15 C1 14.34 1 13.68 1 13 C0.34 12.67 -0.32 12.34 -1 12 C-1.02698189 10.37509046 -1.04638757 8.75005367 -1.0625 7.125 C-1.07410156 6.22007812 -1.08570313 5.31515625 -1.09765625 4.3828125 C-1 2 -1 2 0 0 Z " fill="#8360A4" transform="translate(328,701)"/>
<path d="M0 0 C0.66 0.33 1.32 0.66 2 1 C-0.64 3.64 -3.28 6.28 -6 9 C-6.66 8.67 -7.32 8.34 -8 8 C-3.375 2.25 -3.375 2.25 0 0 Z " fill="#EBDCF4" transform="translate(378,611)"/>
<path d="M0 0 C0.99 0 1.98 0 3 0 C3 4.62 3 9.24 3 14 C2.67 14 2.34 14 2 14 C1.67 11.03 1.34 8.06 1 5 C0.67 5 0.34 5 0 5 C0 3.35 0 1.7 0 0 Z " fill="#C7B0DB" transform="translate(349,582)"/>
<path d="M0 0 C0.33 1.32 0.66 2.64 1 4 C-3.1077065 5.58706842 -4.59232396 6.10191901 -9 5 C-6.03 4.01 -3.06 3.02 0 2 C0 1.34 0 0.68 0 0 Z " fill="#714C93" transform="translate(347,697)"/>
<path d="M0 0 C0.99 0.33 1.98 0.66 3 1 C1.02 2.98 -0.96 4.96 -3 7 C-3.99 6.67 -4.98 6.34 -6 6 C-4.02 4.02 -2.04 2.04 0 0 Z " fill="#764A9F" transform="translate(586,630)"/>
<path d="M0 0 C1.65 0 3.3 0 5 0 C4.67 1.65 4.34 3.3 4 5 C2.35 5.33 0.7 5.66 -1 6 C-0.67 4.02 -0.34 2.04 0 0 Z " fill="#6D3C99" transform="translate(363,621)"/>
<path d="M0 0 C2.97 0.99 5.94 1.98 9 3 C9 3.66 9 4.32 9 5 C5.625 4.75 5.625 4.75 2 4 C1.34 2.68 0.68 1.36 0 0 Z " fill="#6D4590" transform="translate(334,711)"/>
<path d="M0 0 C0.66 0.33 1.32 0.66 2 1 C0.02 2.98 -1.96 4.96 -4 7 C-4.99 6.67 -5.98 6.34 -7 6 C-4.69 4.02 -2.38 2.04 0 0 Z " fill="#784CA1" transform="translate(673,612)"/>
<path d="M0 0 C0.8125 1.6875 0.8125 1.6875 1 4 C-1.4375 6.75 -1.4375 6.75 -4 9 C-4 5.00095031 -2.27413033 3.19799578 0 0 Z " fill="#BB3740" transform="translate(624,446)"/>
<path d="M0 0 C2.97 0 5.94 0 9 0 C9.33 0.66 9.66 1.32 10 2 C9.030625 2.12375 8.06125 2.2475 7.0625 2.375 C6.051875 2.58125 5.04125 2.7875 4 3 C3.67 3.66 3.34 4.32 3 5 C2.34 5 1.68 5 1 5 C0.67 3.35 0.34 1.7 0 0 Z " fill="#9270B1" transform="translate(305,624)"/>
<path d="M0 0 C0.66 0.33 1.32 0.66 2 1 C-0.31 3.31 -2.62 5.62 -5 8 C-5.66 7.67 -6.32 7.34 -7 7 C-4.78071806 4.09197539 -3.07030857 2.04687238 0 0 Z " fill="#EBDBF4" transform="translate(300,611)"/>
<path d="M0 0 C3 3.625 3 3.625 3 7 C0.69 6.67 -1.62 6.34 -4 6 C-2.68 5.34 -1.36 4.68 0 4 C0 2.68 0 1.36 0 0 Z " fill="#A13738" transform="translate(279,440)"/>
<path d="M0 0 C0.78375 0.04125 1.5675 0.0825 2.375 0.125 C1.199375 0.99125 1.199375 0.99125 0 1.875 C-2.42547244 3.95397637 -3.48194417 5.21540333 -4.625 8.125 C-4.75 5.25 -4.75 5.25 -4.625 2.125 C-2.625 0.125 -2.625 0.125 0 0 Z " fill="#E2CFF2" transform="translate(69.625,603.875)"/>
</svg>
