<?xml version="1.0" encoding="UTF-8"?>
<svg version="1.1" xmlns="http://www.w3.org/2000/svg" width="733" height="396">
<path d="M0 0 C241.89 0 483.78 0 733 0 C733 130.68 733 261.36 733 396 C491.11 396 249.22 396 0 396 C0 265.32 0 134.64 0 0 Z " fill="#FD0202" transform="translate(0,0)"/>
<path d="M0 0 C1.88474806 0.00215191 3.76950173 0.00119705 5.65424728 -0.0025568 C10.63432583 -0.00411654 15.61319127 0.0360091 20.59298706 0.08571625 C25.2913533 0.12602544 29.98944662 0.12748175 34.68798828 0.13244629 C48.36604181 0.16896057 62.04387674 0.26668944 75.72167969 0.35717773 C106.32917969 0.50155273 136.93667969 0.64592773 168.47167969 0.79467773 C168.47167969 108.04467773 168.47167969 215.29467773 168.47167969 325.79467773 C62.87167969 325.79467773 -42.72832031 325.79467773 -151.52832031 325.79467773 C-144.77321827 316.78787501 -144.77321827 316.78787501 -142.26660156 313.75170898 C-141.43322266 312.74043945 -141.43322266 312.74043945 -140.58300781 311.70874023 C-140.00808594 311.01522461 -139.43316406 310.32170898 -138.84082031 309.60717773 C-138.22851562 308.8659668 -137.61621094 308.12475586 -136.98535156 307.36108398 C-132.92957879 302.46035855 -128.83549345 297.59377058 -124.71313477 292.74902344 C-120.32642229 287.58287689 -116.03064134 282.34313891 -111.73071289 277.10473633 C-107.65076842 272.14062635 -103.52320459 267.22057913 -99.36035156 262.32592773 C-95.79595833 258.12880197 -92.31049035 253.87167831 -88.83691406 249.59936523 C-86.74852062 247.06219689 -84.6290759 244.55736861 -82.49243164 242.06103516 C-80.15259926 239.32097365 -77.83797625 236.56018682 -75.52832031 233.79467773 C-75.08810547 233.27147949 -74.64789063 232.74828125 -74.19433594 232.20922852 C-62.10046491 217.70652592 -51.12374062 198.05644148 -52.11035156 178.56420898 C-53.91944368 166.57686027 -60.03422746 156.92831556 -69.64160156 149.70483398 C-82.24080108 141.36788058 -96.2661974 137.00640436 -110.84082031 133.54467773 C-135.14816719 127.727616 -171.05998732 118.50287362 -186.09082031 96.48217773 C-188.07381161 91.39537396 -188.61451466 87.17247914 -187.52832031 81.79467773 C-179.75397466 65.66620472 -156.56932892 56.56789933 -141.27832031 49.23217773 C-140.58778564 48.89758545 -139.89725098 48.56299316 -139.18579102 48.21826172 C-135.30912578 46.4074353 -131.78228029 45.27688127 -127.52832031 44.79467773 C-127.52832031 44.13467773 -127.52832031 43.47467773 -127.52832031 42.79467773 C-105.98578695 33.35716857 -84.31644703 24.39141384 -62.27832031 16.16967773 C-61.28654785 15.79917297 -60.29477539 15.42866821 -59.27294922 15.04693604 C-56.3751719 13.96663802 -53.47573674 12.89096814 -50.57519531 11.81811523 C-49.75533142 11.51444031 -48.93546753 11.21076538 -48.09075928 10.89788818 C-46.38563407 10.27145751 -44.67658225 9.65562953 -42.96410751 9.04957867 C-40.36833056 8.1014865 -37.81248384 7.10917649 -35.24982452 6.07874393 C-23.20374732 1.37552561 -12.85681976 -0.1962881 0 0 Z " fill="#FEFB59" transform="translate(531.5283203125,31.205322265625)"/>
<path d="M0 0 C102.63 0 205.26 0 311 0 C308.00478549 1.99680967 305.74021955 2.80181732 302.3125 3.8125 C300.57117798 4.33505371 300.57117798 4.33505371 298.79467773 4.86816406 C297.54243408 5.24166992 296.29019043 5.61517578 295 6 C284.69338014 9.12033642 274.53116568 12.48838546 264.4375 16.25 C263.36435547 16.64960937 262.29121094 17.04921875 261.18554688 17.4609375 C251.38080012 21.15991754 241.73472455 25.04580577 232.40625 29.828125 C230.09360808 30.95441165 227.77855394 31.8991495 225.375 32.8125 C200.33706211 42.65021057 175.48035099 57.19729435 154.91796875 74.5390625 C153 76 153 76 150 77 C150 77.66 150 78.32 150 79 C148.89163965 79.98151802 147.73554396 80.90927902 146.5625 81.8125 C137.21328539 89.80243163 129.24583507 102.11441599 127.52734375 114.37109375 C126.58892768 135.95466329 141.58909663 156.53267063 155.3125 171.9375 C156.87218027 173.62760649 158.43490937 175.31490243 160 177 C160.96219313 178.06396999 161.92306419 179.12913665 162.8828125 180.1953125 C168.26694367 186.14655944 173.76023444 191.70772149 179.8046875 197.00390625 C185.13231121 201.84806233 189.54021971 206.49417532 190.5 213.8125 C190.33172052 217.78535912 189.05442709 220.22461657 186.2421875 223.12109375 C182.27814059 226.44288219 177.94979461 229.19275676 173.609375 231.98828125 C168.08101138 235.5620612 162.70457997 239.35010883 157.3125 243.125 C135.9284477 258.04289745 135.9284477 258.04289745 131.35546875 260.3125 C126.56704366 262.72064859 121.99244527 265.46878202 117.375 268.1875 C98.18707468 279.42204947 78.94894255 290.5066032 59.33032227 300.97460938 C50.621374 305.63152872 42.04286291 310.49242793 33.48828125 315.42578125 C28.95663805 318.03686638 24.3811306 320.55156718 19.765625 323.01171875 C18.03278459 323.87666384 18.03278459 323.87666384 17 325 C11.39 325 5.78 325 0 325 C0 217.75 0 110.5 0 0 Z " fill="#FEFB59" transform="translate(25,32)"/>
<path d="M0 0 C241.89 0 483.78 0 733 0 C733 130.68 733 261.36 733 396 C491.11 396 249.22 396 0 396 C0 265.32 0 134.64 0 0 Z M10 15 C10 133.47 10 251.94 10 374 C243.64 374 477.28 374 718 374 C718 255.53 718 137.06 718 15 C484.36 15 250.72 15 10 15 Z " fill="#FEFEFE" transform="translate(0,0)"/>
<path d="M0 0 C7.8699931 1.35891806 14.40068281 11.58503498 18.89453125 17.73046875 C29.30486437 33.44839568 36.56201876 53.58207745 36.14453125 72.54296875 C36.66660156 72.33800781 37.18867187 72.13304687 37.7265625 71.921875 C48.07488151 68.13413652 57.75528759 67.37369057 68.14453125 71.54296875 C79.19255774 77.7748146 86.46117848 86.42955192 90.14453125 98.54296875 C90.73179158 102.1463848 90.8607566 105.64581795 90.83203125 109.29296875 C90.82550537 110.25235352 90.81897949 111.21173828 90.81225586 112.20019531 C90.4017966 124.44196282 85.13157641 133.41385849 76.69921875 142.2109375 C72.1321089 146.37999649 67.20721781 149.99651827 62.14453125 153.54296875 C62.47453125 154.78046875 62.80453125 156.01796875 63.14453125 157.29296875 C65.10513505 166.40906088 65.25439211 174.22135706 60.57421875 182.484375 C58.75254258 185.1073896 56.8284504 186.82250776 54.14453125 188.54296875 C53.46390625 189.09984375 52.78328125 189.65671875 52.08203125 190.23046875 C47.43122033 193.38101808 41.54927135 193.02697533 36.14453125 192.54296875 C33.31128741 191.75949939 30.84232652 190.74198887 28.14453125 189.54296875 C27.850625 190.0534375 27.55671875 190.56390625 27.25390625 191.08984375 C21.48355945 200.44178511 12.7935456 210.13952071 3.14453125 215.54296875 C-0.32306889 215.92618063 -2.2310892 215.90349759 -5.27734375 214.14453125 C-22.89254817 199.18934092 -22.89254817 199.18934092 -26.85546875 190.54296875 C-26.85546875 189.88296875 -26.85546875 189.22296875 -26.85546875 188.54296875 C-27.59796875 189.01734375 -28.34046875 189.49171875 -29.10546875 189.98046875 C-34.37565249 192.97489133 -39.89569595 193.30434942 -45.85546875 192.54296875 C-52.99129983 189.99690422 -58.35026401 185.26869587 -61.88671875 178.59765625 C-65.49080743 170.08800242 -63.75148985 162.95522053 -60.85546875 154.54296875 C-61.94214844 153.65544922 -61.94214844 153.65544922 -63.05078125 152.75 C-65.04866791 151.11706064 -67.04333061 149.48017075 -69.03515625 147.83984375 C-70.56213949 146.59626183 -72.09790031 145.36192544 -73.67578125 144.18359375 C-81.28052022 138.44887256 -87.94125126 127.89696834 -89.85546875 118.54296875 C-90.7344423 104.00388173 -89.15941109 93.75634222 -80.734375 81.5390625 C-78.59784903 79.26928128 -76.80015053 78.4773875 -73.85546875 77.54296875 C-73.85546875 76.88296875 -73.85546875 76.22296875 -73.85546875 75.54296875 C-72.25256345 74.72798313 -70.64809597 73.91606948 -69.04296875 73.10546875 C-68.14964844 72.65300781 -67.25632812 72.20054687 -66.3359375 71.734375 C-61.69925399 69.50730654 -57.65435352 69.35978404 -52.60546875 69.35546875 C-51.86683594 69.34322266 -51.12820313 69.33097656 -50.3671875 69.31835938 C-45.48447005 69.30544213 -41.48805518 69.99264551 -36.85546875 71.54296875 C-36.74066162 70.91543701 -36.62585449 70.28790527 -36.50756836 69.64135742 C-33.11676311 51.45491346 -29.30295375 31.67539616 -17.85546875 16.54296875 C-17.19546875 16.54296875 -16.53546875 16.54296875 -15.85546875 16.54296875 C-15.69046875 15.86234375 -15.52546875 15.18171875 -15.35546875 14.48046875 C-13.47628533 10.80040122 -11.00794483 8.86263631 -7.828125 6.2890625 C-5.76192249 4.62749901 -5.76192249 4.62749901 -4.4765625 2.328125 C-2.85546875 0.54296875 -2.85546875 0.54296875 0 0 Z " fill="#FB0000" transform="translate(589.85546875,89.45703125)"/>
<path d="M0 0 C-3.39697132 2.26464755 -6.79400081 3.3370662 -10.6484375 4.5390625 C-12.21830644 5.03859647 -13.78812887 5.5382766 -15.35791016 6.03808594 C-16.17833801 6.29746948 -16.99876587 6.55685303 -17.84405518 6.82409668 C-30.41257006 10.80133285 -42.90840651 14.8411554 -55.14599609 19.76416016 C-60.73258893 22 -60.73258893 22 -64 22 C-64 22.66 -64 23.32 -64 24 C-67.3 24.66 -70.6 25.32 -74 26 C-74 26.66 -74 27.32 -74 28 C-78.36406222 29.76335697 -82.72544302 31.52541403 -87.13671875 33.16796875 C-93.41302005 35.50738624 -99.39500323 38.08996881 -105.34765625 41.15625 C-109.15054553 43.10094662 -113.01379463 44.91300341 -116.87597656 46.73632812 C-157.17803188 64.07509063 -157.17803188 64.07509063 -186.16015625 95.37890625 C-188.35400213 102.22574619 -187.99511643 109.81506508 -184.9375 116.3125 C-180.41188995 124.79992357 -173.22487821 130.71503066 -165.5625 136.25 C-163.78119243 137.5611197 -161.99994317 138.87231863 -160.21875 140.18359375 C-159.33832031 140.8266748 -158.45789063 141.46975586 -157.55078125 142.13232422 C-153.86622293 144.83014879 -150.21285472 147.56866652 -146.5625 150.3125 C-145.59062744 151.04158569 -145.59062744 151.04158569 -144.59912109 151.78540039 C-134.56342928 159.32046638 -124.64640504 166.96800023 -115 175 C-114.46842285 175.43989258 -113.9368457 175.87978516 -113.38916016 176.33300781 C-91.41598927 194.53661586 -91.41598927 194.53661586 -89.66015625 205.03125 C-89.39465268 210.38380207 -91.00130138 215.09410338 -93 220 C-93.26683594 220.65871094 -93.53367187 221.31742188 -93.80859375 221.99609375 C-99.38548135 234.3148188 -108.79035046 241.05155618 -119.63964844 248.37744141 C-123.64557237 251.13120334 -127.53715266 254.03706717 -131.4375 256.9375 C-139.83370169 263.15441103 -148.28725085 269.28759423 -156.76611328 275.39111328 C-160.51359784 278.09012128 -164.25655845 280.79538884 -168 283.5 C-169.49997854 284.58336304 -170.99997854 285.66669638 -172.5 286.75 C-173.2425 287.28625 -173.985 287.8225 -174.75 288.375 C-177 290 -179.25 291.625 -181.5 293.25 C-182.6142334 294.05473755 -182.6142334 294.05473755 -183.75097656 294.87573242 C-185.24768701 295.95667191 -186.74443168 297.03756401 -188.24121094 298.1184082 C-195.09932843 303.070463 -195.09932843 303.070463 -201.95166016 308.03051758 C-203.4771805 309.1303377 -205.0080951 310.22271611 -206.54443359 311.30737305 C-209.98549654 313.74650805 -213.28524409 316.18947879 -216.3984375 319.0390625 C-225.62680098 327.16152471 -234.22384901 326.97689916 -246.2421875 326.3515625 C-247.82862663 326.24137374 -249.41481702 326.12698656 -251 326 C-246.86235976 321.57387887 -242.27667985 318.10620784 -237.375 314.5625 C-235.66142188 313.31124783 -233.94788124 312.05994435 -232.234375 310.80859375 C-231.36232422 310.17421387 -230.49027344 309.53983398 -229.59179688 308.88623047 C-215.24785014 298.44714489 -201.08608012 287.78384888 -187 277 C-173.76218082 266.86555235 -160.44963532 256.8516084 -147 247 C-141.37094265 242.8730662 -135.75034662 238.73526133 -130.14355469 234.578125 C-128.16162261 233.11898959 -126.1656591 231.68196811 -124.1640625 230.25 C-116.94803961 225.0181325 -109.92597513 219.4908554 -107.29296875 210.6171875 C-106.42455369 204.98680415 -107.08712165 200.04525116 -110.16796875 195.140625 C-115.26266247 188.59217549 -122.33591304 184.53324338 -129.23730469 180.13574219 C-131.51305083 178.66943041 -133.72863479 177.12742485 -135.9375 175.5625 C-140.08402225 172.63674663 -144.25489442 169.74879414 -148.4375 166.875 C-149.11143799 166.41174316 -149.78537598 165.94848633 -150.47973633 165.47119141 C-154.23559594 162.8916822 -157.99627965 160.31941219 -161.76171875 157.75390625 C-201.42754709 130.71735873 -201.42754709 130.71735873 -207 114 C-208.21538834 99.79390345 -203.91741737 90.81606469 -195 80 C-183.10096795 66.15030695 -166.76469417 56.82227277 -151 48 C-150.36787598 47.63874023 -149.73575195 47.27748047 -149.08447266 46.90527344 C-126.03882998 33.77914666 -100.80714659 24.3932922 -75.88748169 15.49635315 C-71.17653248 13.80825827 -66.50178271 12.04438073 -61.83847046 10.22904968 C-40.68368352 2.03463195 -22.75065913 -2.09278325 0 0 Z " fill="#FEF6F6" transform="translate(435,32)"/>
<path d="M0 0 C7.8699931 1.35891806 14.40068281 11.58503498 18.89453125 17.73046875 C29.30486437 33.44839568 36.56201876 53.58207745 36.14453125 72.54296875 C36.66660156 72.33800781 37.18867187 72.13304687 37.7265625 71.921875 C48.07488151 68.13413652 57.75528759 67.37369057 68.14453125 71.54296875 C79.19255774 77.7748146 86.46117848 86.42955192 90.14453125 98.54296875 C90.73179158 102.1463848 90.8607566 105.64581795 90.83203125 109.29296875 C90.82550537 110.25235352 90.81897949 111.21173828 90.81225586 112.20019531 C90.4017966 124.44196282 85.13157641 133.41385849 76.69921875 142.2109375 C72.1321089 146.37999649 67.20721781 149.99651827 62.14453125 153.54296875 C62.47453125 154.78046875 62.80453125 156.01796875 63.14453125 157.29296875 C65.10513505 166.40906088 65.25439211 174.22135706 60.57421875 182.484375 C58.75254258 185.1073896 56.8284504 186.82250776 54.14453125 188.54296875 C53.46390625 189.09984375 52.78328125 189.65671875 52.08203125 190.23046875 C47.43122033 193.38101808 41.54927135 193.02697533 36.14453125 192.54296875 C33.31128741 191.75949939 30.84232652 190.74198887 28.14453125 189.54296875 C27.850625 190.0534375 27.55671875 190.56390625 27.25390625 191.08984375 C21.48355945 200.44178511 12.7935456 210.13952071 3.14453125 215.54296875 C-0.32306889 215.92618063 -2.2310892 215.90349759 -5.27734375 214.14453125 C-22.89254817 199.18934092 -22.89254817 199.18934092 -26.85546875 190.54296875 C-26.85546875 189.88296875 -26.85546875 189.22296875 -26.85546875 188.54296875 C-27.59796875 189.01734375 -28.34046875 189.49171875 -29.10546875 189.98046875 C-34.37565249 192.97489133 -39.89569595 193.30434942 -45.85546875 192.54296875 C-52.99129983 189.99690422 -58.35026401 185.26869587 -61.88671875 178.59765625 C-65.49080743 170.08800242 -63.75148985 162.95522053 -60.85546875 154.54296875 C-61.94214844 153.65544922 -61.94214844 153.65544922 -63.05078125 152.75 C-65.04866791 151.11706064 -67.04333061 149.48017075 -69.03515625 147.83984375 C-70.56213949 146.59626183 -72.09790031 145.36192544 -73.67578125 144.18359375 C-81.28052022 138.44887256 -87.94125126 127.89696834 -89.85546875 118.54296875 C-90.7344423 104.00388173 -89.15941109 93.75634222 -80.734375 81.5390625 C-78.59784903 79.26928128 -76.80015053 78.4773875 -73.85546875 77.54296875 C-73.85546875 76.88296875 -73.85546875 76.22296875 -73.85546875 75.54296875 C-72.25256345 74.72798313 -70.64809597 73.91606948 -69.04296875 73.10546875 C-68.14964844 72.65300781 -67.25632812 72.20054687 -66.3359375 71.734375 C-61.69925399 69.50730654 -57.65435352 69.35978404 -52.60546875 69.35546875 C-51.86683594 69.34322266 -51.12820313 69.33097656 -50.3671875 69.31835938 C-45.48447005 69.30544213 -41.48805518 69.99264551 -36.85546875 71.54296875 C-36.74066162 70.91543701 -36.62585449 70.28790527 -36.50756836 69.64135742 C-33.11676311 51.45491346 -29.30295375 31.67539616 -17.85546875 16.54296875 C-17.19546875 16.54296875 -16.53546875 16.54296875 -15.85546875 16.54296875 C-15.69046875 15.86234375 -15.52546875 15.18171875 -15.35546875 14.48046875 C-13.47628533 10.80040122 -11.00794483 8.86263631 -7.828125 6.2890625 C-5.76192249 4.62749901 -5.76192249 4.62749901 -4.4765625 2.328125 C-2.85546875 0.54296875 -2.85546875 0.54296875 0 0 Z M-5.85546875 12.54296875 C-22.27384139 31.50261993 -30.40517136 57.51814145 -28.85546875 82.54296875 C-30.28439453 82.01896484 -30.28439453 82.01896484 -31.7421875 81.484375 C-33.00904654 81.02455209 -34.27597745 80.56492713 -35.54296875 80.10546875 C-36.16880859 79.87537109 -36.79464844 79.64527344 -37.43945312 79.40820312 C-45.9918988 76.31857615 -54.72442242 75.08917229 -63.60546875 77.60546875 C-72.49323128 82.90394257 -78.97646016 90.18652152 -82.34375 100.09375 C-84.5187276 110.50375731 -83.36306864 120.43178842 -77.85546875 129.54296875 C-73.22862139 135.64002929 -67.79139852 140.74370638 -61.85546875 145.54296875 C-59.57190461 143.38101454 -57.78283285 141.11499103 -55.98046875 138.54296875 C-53.53851951 135.30291902 -51.76820218 132.96578091 -47.85546875 131.54296875 C-42.97474043 130.8849866 -38.45288764 130.86925931 -33.98046875 133.10546875 C-30.259633 136.00772063 -28.87986749 138.33221936 -26.85546875 142.54296875 C-28.17546875 142.87296875 -29.49546875 143.20296875 -30.85546875 143.54296875 C-30.85546875 144.86296875 -30.85546875 146.18296875 -30.85546875 147.54296875 C-29.53546875 147.54296875 -28.21546875 147.54296875 -26.85546875 147.54296875 C-27.67503047 151.4172605 -28.33146622 153.97405171 -31.04296875 156.91796875 C-34.59618442 158.97093781 -36.72710429 159.68532615 -40.85546875 159.54296875 C-42.86730962 158.11738759 -44.49630143 156.59286603 -46.1796875 154.79296875 C-47.7844542 153.31359603 -47.7844542 153.31359603 -49.921875 153.6796875 C-52.59582789 154.87351293 -53.76820658 156.69848204 -55.08203125 159.2578125 C-56.98728071 164.88695864 -57.11229304 170.81656622 -54.609375 176.24609375 C-52.30462463 179.80954818 -50.41108493 182.17255796 -46.85546875 184.54296875 C-37.20836583 186.47238933 -29.92446912 182.16055728 -21.85546875 177.54296875 C-21.83484375 178.63609375 -21.81421875 179.72921875 -21.79296875 180.85546875 C-20.53852578 190.46721419 -12.90601964 197.94420351 -6.48046875 204.64453125 C-3.13731715 207.06234625 -0.97227112 207.56591637 3.14453125 207.54296875 C12.28478798 202.08028962 19.91185678 191.65933828 23.14453125 181.54296875 C23.14453125 180.22296875 23.14453125 178.90296875 23.14453125 177.54296875 C24.48644531 178.3009375 24.48644531 178.3009375 25.85546875 179.07421875 C32.87384831 182.90030166 38.91790301 186.19458627 47.14453125 184.54296875 C51.89300355 182.92417138 54.35979837 179.13978035 56.98046875 175.02734375 C59.26540232 170.15077411 58.81097151 165.54228954 57.14453125 160.54296875 C56.48453125 160.54296875 55.82453125 160.54296875 55.14453125 160.54296875 C55.02078125 159.77984375 54.89703125 159.01671875 54.76953125 158.23046875 C54.26350333 155.34029739 54.26350333 155.34029739 52.14453125 152.54296875 C49.57925474 153.64237297 48.21852991 154.44978525 46.45703125 156.66796875 C43.3742643 159.16750952 41.21065344 159.11950781 37.328125 158.921875 C33.93675117 158.33338974 32.3911043 157.11992019 30.14453125 154.54296875 C28.92605157 152.23920352 28.04343815 150.00313501 27.14453125 147.54296875 C28.79453125 147.54296875 30.44453125 147.54296875 32.14453125 147.54296875 C31.64953125 145.06796875 31.64953125 145.06796875 31.14453125 142.54296875 C30.15453125 142.54296875 29.16453125 142.54296875 28.14453125 142.54296875 C32.14453125 134.97154018 32.14453125 134.97154018 36.14453125 132.54296875 C41.43974131 131.16983198 46.54995907 130.83603286 51.58203125 133.16796875 C56.63144487 136.16670214 59.28142036 140.53252469 62.14453125 145.54296875 C73.50154819 139.34823224 80.48426059 129.53830924 84.48046875 117.2890625 C87.06121855 106.61690303 84.03190754 98.28384466 78.67578125 88.99609375 C74.24220573 82.51959618 68.58484316 78.924228 61.14453125 76.54296875 C50.7063219 74.8846818 39.39466947 77.52211133 30.14453125 82.54296875 C30.16773438 81.83914062 30.1909375 81.1353125 30.21484375 80.41015625 C30.66195534 55.9467648 23.34305934 29.60864952 6.14453125 11.54296875 C1.17754652 7.25847047 -1.16540626 8.29856831 -5.85546875 12.54296875 Z " fill="#0D0703" transform="translate(589.85546875,89.45703125)"/>
<path d="M0 0 C4.35820909 0.10319985 6.91073093 1.52440445 10.25 4.375 C10.58 5.365 10.91 6.355 11.25 7.375 C10.5075 7.024375 9.765 6.67375 9 6.3125 C6.1177274 5.32990707 5.03823655 5.3423198 2.25 6.375 C2.311875 7.303125 2.37375 8.23125 2.4375 9.1875 C2.25 12.375 2.25 12.375 1.0625 14.25 C-1.31036279 15.72281139 -3.00913944 15.59723194 -5.75 15.375 C-5.66621094 14.77171875 -5.58242188 14.1684375 -5.49609375 13.546875 C-5.39425781 12.74765625 -5.29242187 11.9484375 -5.1875 11.125 C-5.08308594 10.33609375 -4.97867188 9.5471875 -4.87109375 8.734375 C-4.62628837 6.37969445 -4.62628837 6.37969445 -5.34765625 4.203125 C-5.48042969 3.59984375 -5.61320313 2.9965625 -5.75 2.375 C-3.75 0.375 -3.75 0.375 0 0 Z " fill="#F9F857" transform="translate(631.75,226.625)"/>
<path d="M0 0 C2.38376485 3.645758 1.69282842 5.84302947 1 10 C1.82342532 12.31980946 1.82342532 12.31980946 3 14 C2 15 2 15 -1.0625 15.0625 C-2.031875 15.041875 -3.00125 15.02125 -4 15 C-4.66 11.7 -5.32 8.4 -6 5 C-7.98 5 -9.96 5 -12 5 C-12.33 5.99 -12.66 6.98 -13 8 C-13.66 8 -14.32 8 -15 8 C-14.09126425 4.94334338 -13.32469175 3.27694297 -10.875 1.1875 C-7.02507023 -0.40268838 -4.14686216 -0.2108574 0 0 Z " fill="#F5F355" transform="translate(552,227)"/>
<path d="M0 0 C0.90621094 0.08636719 1.81242188 0.17273438 2.74609375 0.26171875 C2.15280273 0.52903809 1.55951172 0.79635742 0.94824219 1.07177734 C-1.2832387 2.27756868 -2.72038615 3.49752825 -4.48828125 5.30078125 C-5.06191406 5.88085938 -5.63554688 6.4609375 -6.2265625 7.05859375 C-7.10634766 7.96351562 -7.10634766 7.96351562 -8.00390625 8.88671875 C-8.60589844 9.49773437 -9.20789063 10.10875 -9.828125 10.73828125 C-11.3079593 12.24160499 -12.78155301 13.75106731 -14.25390625 15.26171875 C-14.91390625 14.93171875 -15.57390625 14.60171875 -16.25390625 14.26171875 C-15.59390625 13.62234375 -14.93390625 12.98296875 -14.25390625 12.32421875 C-12.4914069 10.59666981 -10.91280916 8.84287674 -9.3515625 6.92578125 C-8.34416016 5.69988281 -8.34416016 5.69988281 -7.31640625 4.44921875 C-6.68863281 3.65902344 -6.06085937 2.86882812 -5.4140625 2.0546875 C-3.25390625 0.26171875 -3.25390625 0.26171875 0 0 Z " fill="#2D2D0F" transform="translate(590.25390625,89.73828125)"/>
<path d="M0 0 C0.99 0.33 1.98 0.66 3 1 C-1.26041226 4.76354036 -5.51848911 8.49881962 -10 12 C-7.87880087 6.98625661 -4.506805 3.00453667 0 0 Z " fill="#DE0000" transform="translate(589,98)"/>
</svg>
