<?xml version="1.0" encoding="UTF-8"?>
<svg version="1.1" xmlns="http://www.w3.org/2000/svg" width="733" height="500">
<path d="M0 0 C241.89 0 483.78 0 733 0 C733 165 733 330 733 500 C491.11 500 249.22 500 0 500 C0 335 0 170 0 0 Z " fill="#FD0303" transform="translate(0,0)"/>
<path d="M0 0 C1.88474806 0.00215191 3.76950173 0.00119705 5.65424728 -0.0025568 C10.63432583 -0.00411654 15.61319127 0.0360091 20.59298706 0.08571625 C25.2913533 0.12602544 29.98944662 0.12748175 34.68798828 0.13244629 C48.36604181 0.16896057 62.04387674 0.26668944 75.72167969 0.35717773 C106.32917969 0.50155273 136.93667969 0.64592773 168.47167969 0.79467773 C168.47167969 108.04467773 168.47167969 215.29467773 168.47167969 325.79467773 C62.87167969 325.79467773 -42.72832031 325.79467773 -151.52832031 325.79467773 C-144.77321827 316.78787501 -144.77321827 316.78787501 -142.26660156 313.75170898 C-141.71061279 313.0770459 -141.15462402 312.40238281 -140.58178711 311.70727539 C-140.00726807 311.01424316 -139.43274902 310.32121094 -138.84082031 309.60717773 C-138.23214111 308.87031738 -137.62346191 308.13345703 -136.99633789 307.37426758 C-132.82033837 302.32810883 -128.60472528 297.31688831 -124.36157227 292.32714844 C-120.79837218 288.13201188 -117.31528146 283.87580143 -113.84082031 279.60717773 C-110.80464666 275.9145341 -107.70982061 272.27345985 -104.61425781 268.63061523 C-100.96551246 264.32958021 -97.39187304 259.97121676 -93.83300781 255.59545898 C-91.30798686 252.52691657 -88.733353 249.50438513 -86.15332031 246.48217773 C-81.25820248 240.7376511 -76.57194618 234.84512112 -71.93847656 228.88842773 C-70.4777905 227.01344659 -68.9909455 225.15793928 -67.45800781 223.34155273 C-58.4299232 211.42594308 -51.3466456 193.65256194 -52.11035156 178.56420898 C-53.91944368 166.57686027 -60.03422746 156.92831556 -69.64160156 149.70483398 C-82.2405241 141.36806386 -96.26623312 137.00563472 -110.84082031 133.54467773 C-135.35750226 127.6887671 -170.99156003 118.50193232 -186.09082031 96.48217773 C-188.07381161 91.39537396 -188.61451466 87.17247914 -187.52832031 81.79467773 C-179.75397466 65.66620472 -156.56932892 56.56789933 -141.27832031 49.23217773 C-140.58778564 48.89758545 -139.89725098 48.56299316 -139.18579102 48.21826172 C-135.30912578 46.4074353 -131.78228029 45.27688127 -127.52832031 44.79467773 C-127.52832031 44.13467773 -127.52832031 43.47467773 -127.52832031 42.79467773 C-105.98578695 33.35716857 -84.31644703 24.39141384 -62.27832031 16.16967773 C-61.28654785 15.79917297 -60.29477539 15.42866821 -59.27294922 15.04693604 C-56.3751719 13.96663802 -53.47573674 12.89096814 -50.57519531 11.81811523 C-49.75533142 11.51444031 -48.93546753 11.21076538 -48.09075928 10.89788818 C-46.38563407 10.27145751 -44.67658225 9.65562953 -42.96410751 9.04957867 C-40.36833056 8.1014865 -37.81248384 7.10917649 -35.24982452 6.07874393 C-23.20374732 1.37552561 -12.85681976 -0.1962881 0 0 Z " fill="#FEFB59" transform="translate(531.5283203125,19.205322265625)"/>
<path d="M0 0 C222.75 0 445.5 0 675 0 C675 38.28 675 76.56 675 116 C452.25 116 229.5 116 0 116 C0 77.72 0 39.44 0 0 Z " fill="#FBF757" transform="translate(25,360)"/>
<path d="M0 0 C101.64 0 203.28 0 308 0 C304.74077654 2.17281564 301.54009931 3.25514801 297.8515625 4.43359375 C296.37067906 4.91647468 294.88988878 5.39964136 293.40917969 5.88305664 C292.23953674 6.26253952 292.23953674 6.26253952 291.04626465 6.64968872 C265.39597396 14.99557042 240.31903461 24.25611375 216 36 C215.23913086 36.36722168 214.47826172 36.73444336 213.69433594 37.11279297 C209.73135904 39.03821009 205.79817296 41.01482841 201.88330078 43.03613281 C199.96120191 44.01985674 198.02669277 44.97538136 196.08984375 45.9296875 C169.63762623 59.17653935 138.38626899 78.64951666 128 108 C123.66115188 125.6913033 132.12018238 141.21860842 141 156 C151.29195562 171.75893398 166.03884945 186.95075402 180.625 198.875 C184.87146241 202.51091953 187.44269967 206.54089451 188.33984375 212.109375 C188.55597073 216.70855718 187.74552219 219.39616893 185 223 C182.25837861 225.22544369 179.33086429 227.13499119 176.375 229.0625 C174.65279551 230.21096549 172.93145907 231.36073361 171.2109375 232.51171875 C170.34049805 233.09099121 169.47005859 233.67026367 168.57324219 234.26708984 C164.00084119 237.34630258 159.52452243 240.56071662 155.04833984 243.77758789 C145.42867162 250.63395208 135.33593953 256.62138172 125.0625 262.4375 C123.84375162 263.13008761 122.62516799 263.8229652 121.40673828 264.51611328 C119.51490637 265.59219777 117.622915 266.66799436 115.73028564 267.74267578 C111.34212855 270.2344286 106.96016736 272.73677952 102.58203125 275.24609375 C80.1747051 288.08516993 80.1747051 288.08516993 69.67724609 293.81982422 C66.46216212 295.58533276 63.31947912 297.41026102 60.2265625 299.3828125 C54.1511033 303.22200134 47.76695096 306.51286462 41.42822266 309.89135742 C36.52357471 312.51595669 31.66347473 315.15957105 26.921875 318.0703125 C26.14763184 318.53542236 25.37338867 319.00053223 24.57568359 319.47973633 C23.17250613 320.32951953 21.7828255 321.20229787 20.41259766 322.10424805 C13.19039424 326.4164293 9.71502783 325 0 325 C0 217.75 0 110.5 0 0 Z " fill="#FEFB59" transform="translate(25,20)"/>
<path d="M0 0 C0.75190109 -0.00029205 1.50380219 -0.00058411 2.27848816 -0.00088501 C4.74583774 0.00050027 7.21287943 0.0160233 9.68017578 0.03173828 C11.39795771 0.03547127 13.11574178 0.03831689 14.83352661 0.04031372 C19.34132834 0.04792767 23.84899995 0.06755683 28.35675049 0.08972168 C32.96193685 0.11022843 37.56714436 0.11932575 42.17236328 0.12939453 C51.19846193 0.15080493 60.22446426 0.18491373 69.25048828 0.22705078 C65.93812056 2.43529593 62.67547164 3.49243887 58.91845703 4.66064453 C57.39754824 5.14347983 55.8767183 5.62656355 54.35595703 6.10986328 C53.55464355 6.3628418 52.75333008 6.61582031 51.92773438 6.87646484 C-39.66448153 33.55003383 -39.66448153 33.55003383 -107.80810547 95.16064453 C-111.42383709 102.65161005 -111.41857058 110.47599599 -108.74951172 118.22705078 C-103.66641004 130.75800144 -92.52600446 138.46113174 -81.74926758 145.83081055 C-79.38973225 147.47825073 -77.07569031 149.1823176 -74.75732422 150.88720703 C-68.47012182 155.4747449 -62.03704905 159.83163972 -55.58251953 164.17843628 C-53.52340173 165.56556039 -51.46625252 166.95555874 -49.40966797 168.34643555 C-44.56516135 171.62278128 -39.71941627 174.89728999 -34.87207031 178.16943359 C-32.6616362 179.66357624 -30.45479915 181.16282764 -28.24951172 182.66455078 C-27.66532471 183.05747314 -27.0811377 183.45039551 -26.47924805 183.85522461 C-13.07578614 193.01422357 -13.07578614 193.01422357 -10.74951172 200.22705078 C-9.690501 207.5200318 -10.66230101 213.13957502 -14.74951172 219.22705078 C-19.19077422 224.95253377 -24.04929892 229.26515589 -29.99951172 233.35205078 C-31.60176484 234.48127983 -33.20330443 235.61152186 -34.80419922 236.74267578 C-35.62243164 237.31695312 -36.44066406 237.89123047 -37.28369141 238.48291016 C-41.27003926 241.30256056 -45.19791618 244.20003338 -49.12451172 247.10205078 C-49.90858398 247.68035645 -50.69265625 248.25866211 -51.50048828 248.85449219 C-58.11120889 253.73780861 -64.68487407 258.66995179 -71.25317383 263.61010742 C-77.03784378 267.95665906 -82.85413221 272.25797523 -88.68701172 276.53955078 C-97.24489046 282.82798493 -105.71358201 289.21343644 -114.02294922 295.82861328 C-122.59232468 302.64061177 -131.3352325 309.18660422 -140.31978893 315.44431305 C-142.7866805 317.20107216 -142.7866805 317.20107216 -145.07558918 319.26136017 C-152.71400015 325.63767844 -158.89314902 326.347798 -168.58422852 326.13525391 C-170.0439593 326.13299233 -171.50369915 326.1342737 -172.96342468 326.13879395 C-176.8932152 326.14107245 -180.8210187 326.09432207 -184.75035071 326.03820229 C-188.86884744 325.98790402 -192.98739891 325.98347001 -197.1061554 325.97399902 C-204.89065406 325.94921758 -212.67424484 325.8836839 -220.45834523 325.80320311 C-229.32650112 325.71352107 -238.19470231 325.66973232 -247.0631994 325.62963963 C-265.29248326 325.54620871 -283.52092428 325.40566042 -301.74951172 325.22705078 C-298.58438209 322.65196607 -295.61392562 320.47221224 -291.96826172 318.63330078 C-291.05447754 318.16649902 -290.14069336 317.69969727 -289.19921875 317.21875 C-288.22581543 316.72648926 -287.25241211 316.23422852 -286.24951172 315.72705078 C-272.76996258 308.80234663 -259.64744501 301.32551049 -246.6159668 293.59570312 C-245.95878662 293.20592285 -245.30160645 292.81614258 -244.62451172 292.41455078 C-243.95895264 292.01961426 -243.29339355 291.62467773 -242.60766602 291.21777344 C-236.03678573 287.34557974 -229.36304148 283.66410076 -222.68701172 279.97705078 C-211.70784284 273.91263068 -200.84255308 267.67516198 -190.03076172 261.31689453 C-186.26887231 259.10618249 -182.48492901 256.94437351 -178.6730957 254.82128906 C-173.06386858 251.6897138 -167.86163177 248.28172498 -162.72607422 244.42626953 C-159.12767745 241.76761155 -155.44612151 239.24644582 -151.74951172 236.72705078 C-145.99593972 232.80477876 -140.34997589 228.78238556 -134.78857422 224.59033203 C-132.74951172 223.22705078 -132.74951172 223.22705078 -130.74951172 223.22705078 C-128.61708627 218.96219989 -128.05810256 214.91867767 -128.74951172 210.22705078 C-130.97979181 203.70231296 -135.04875099 199.57036753 -140.12451172 195.10205078 C-141.5674014 193.78596697 -143.00877891 192.4682236 -144.44873047 191.14892578 C-145.17108887 190.49214844 -145.89344727 189.83537109 -146.63769531 189.15869141 C-165.5967537 171.81718042 -186.88248906 148.61296114 -190.14794922 121.97705078 C-189.99591152 104.13796122 -181.00386813 91.45362853 -168.74951172 79.22705078 C-168.25708984 78.7267334 -167.76466797 78.22641602 -167.25732422 77.7109375 C-158.65841803 69.04798506 -149.1768069 62.51075843 -138.74951172 56.22705078 C-138.03182617 55.79118652 -137.31414062 55.35532227 -136.57470703 54.90625 C-131.6740956 51.9399739 -126.73146993 49.05441852 -121.74951172 46.22705078 C-121.15025879 45.88609375 -120.55100586 45.54513672 -119.93359375 45.19384766 C-87.68323755 27.01292396 -52.32050878 14.68928018 -17.21166992 3.34936523 C-15.12964928 2.67444464 -13.05897084 1.96015158 -11.01747131 1.1710968 C-7.28026345 0.09149465 -3.85081337 -0.03964501 0 0 Z " fill="#2B7C38" transform="translate(340.74951171875,19.77294921875)"/>
<path d="M0 0 C241.89 0 483.78 0 733 0 C733 165 733 330 733 500 C491.11 500 249.22 500 0 500 C0 335 0 170 0 0 Z M10 7 C10 166.72 10 326.44 10 491 C243.64 491 477.28 491 718 491 C718 331.28 718 171.56 718 7 C484.36 7 250.72 7 10 7 Z " fill="#FEFEFE" transform="translate(0,0)"/>
<path d="M0 0 C3.83433624 -0.42104717 5.50644053 -0.35954186 8.67578125 1.94921875 C26.25936349 20.21009453 38.62353869 43.94174488 39.046875 69.87109375 C39.03140625 70.57363281 39.0159375 71.27617187 39 72 C39.52207031 71.79503906 40.04414062 71.59007812 40.58203125 71.37890625 C50.98754915 67.57023157 60.53355862 66.92816251 71 71 C80.64645001 76.22286365 88.18772443 83.87809985 92.10546875 94.203125 C95.06124398 106.74903558 94.79137395 119.81494952 88.109375 131.02734375 C81.61571094 140.17859996 74.11288906 146.61635183 65 153 C65.33 154.2375 65.66 155.475 66 156.75 C67.9606038 165.86609213 68.10986086 173.67838831 63.4296875 181.94140625 C61.60801133 184.56442085 59.68391915 186.27953901 57 188 C56.319375 188.556875 55.63875 189.11375 54.9375 189.6875 C50.53136934 192.67229819 45.13488428 192.4890366 40 192 C36.91434131 191.19828807 33.96162614 190.17624868 31 189 C30.70609375 189.51046875 30.4121875 190.0209375 30.109375 190.546875 C24.3390282 199.89881636 15.64901435 209.59655196 6 215 C2.53239986 215.38321188 0.62437955 215.36052884 -2.421875 213.6015625 C-19.77991581 198.86470235 -19.77991581 198.86470235 -24 191 C-24 190.01 -24 189.02 -24 188 C-24.7425 188.474375 -25.485 188.94875 -26.25 189.4375 C-31.52018374 192.43192258 -37.0402272 192.76138067 -43 192 C-50.14198402 189.4517401 -55.44585461 184.73097384 -59.03125 178.08984375 C-62.62847351 169.71297603 -61.27280268 162.24044962 -58 154 C-59.08667969 153.11248047 -59.08667969 153.11248047 -60.1953125 152.20703125 C-62.19319916 150.57409189 -64.18786186 148.937202 -66.1796875 147.296875 C-67.70667074 146.05329308 -69.24243156 144.81895669 -70.8203125 143.640625 C-78.42505147 137.90590381 -85.08578251 127.35399959 -87 118 C-87.62219452 107.7082907 -87.79792973 98.39000769 -83 89 C-82.66097656 88.28714844 -82.32195312 87.57429688 -81.97265625 86.83984375 C-77.62976517 78.81863211 -69.49746057 72.67389062 -60.9765625 69.6171875 C-52.01985656 67.76002275 -42.66606308 68.16052979 -34 71 C-33.88519287 70.37246826 -33.77038574 69.74493652 -33.65209961 69.09838867 C-30.00835396 49.55530931 -25.52462738 31.46017433 -14 15 C-13.46890625 14.22527344 -12.9378125 13.45054688 -12.390625 12.65234375 C-11.93171875 12.10707031 -11.4728125 11.56179687 -11 11 C-10.34 11 -9.68 11 -9 11 C-8.79375 10.443125 -8.5875 9.88625 -8.375 9.3125 C-7.03153247 7.05303189 -5.94842298 6.0001344 -3.9375 4.375 C-0.99175287 2.32880603 -0.99175287 2.32880603 0 0 Z " fill="#FB0000" transform="translate(586,71)"/>
<path d="M0 0 C1.65805664 0.00966797 1.65805664 0.00966797 3.34960938 0.01953125 C4.48333984 0.03628906 5.61707031 0.05304687 6.78515625 0.0703125 C7.94595703 0.07933594 9.10675781 0.08835937 10.30273438 0.09765625 C13.15125733 0.12110088 15.99934703 0.15391728 18.84765625 0.1953125 C15.54324831 2.39825113 12.30077879 3.43942427 8.55078125 4.59375 C7.0328911 5.07211778 5.5151569 5.5509806 3.99755859 6.03027344 C3.198078 6.28127808 2.39859741 6.53228271 1.57489014 6.79089355 C-13.42365497 11.50992726 -28.15246446 16.67149837 -42.74121094 22.53662109 C-43.94165039 23.01695801 -45.14208984 23.49729492 -46.37890625 23.9921875 C-47.42643066 24.41854492 -48.47395508 24.84490234 -49.55322266 25.28417969 C-52.15234375 26.1953125 -52.15234375 26.1953125 -55.15234375 26.1953125 C-55.15234375 26.8553125 -55.15234375 27.5153125 -55.15234375 28.1953125 C-59.51640597 29.95866947 -63.87778677 31.72072653 -68.2890625 33.36328125 C-74.5653638 35.70269874 -80.54734698 38.28528131 -86.5 41.3515625 C-90.30288928 43.29625912 -94.16613838 45.10831591 -98.02832031 46.93164062 C-138.33037563 64.27040313 -138.33037563 64.27040313 -167.3125 95.57421875 C-169.50634588 102.42105869 -169.14746018 110.01037758 -166.08984375 116.5078125 C-161.5642337 124.99523607 -154.37722196 130.91034316 -146.71484375 136.4453125 C-144.93353618 137.7564322 -143.15228692 139.06763113 -141.37109375 140.37890625 C-140.49066406 141.0219873 -139.61023438 141.66506836 -138.703125 142.32763672 C-135.01856668 145.02546129 -131.36519847 147.76397902 -127.71484375 150.5078125 C-126.74297119 151.23689819 -126.74297119 151.23689819 -125.75146484 151.98071289 C-115.71577303 159.51577888 -105.79874879 167.16331273 -96.15234375 175.1953125 C-95.6207666 175.63520508 -95.08918945 176.07509766 -94.54150391 176.52832031 C-72.04450122 195.16589525 -72.04450122 195.16589525 -70.71484375 207.1328125 C-71.46595135 219.00970146 -77.96077751 229.80314769 -86.15234375 238.1953125 C-88.59255627 240.1839479 -91.16686874 241.93876792 -93.77734375 243.6953125 C-95.30336981 244.74683334 -96.8280602 245.80029466 -98.3515625 246.85546875 C-99.53564697 247.67362061 -99.53564697 247.67362061 -100.74365234 248.50830078 C-104.74553962 251.31116324 -108.66640448 254.22163914 -112.58984375 257.1328125 C-120.98677889 263.34874771 -129.43957982 269.48289609 -137.91845703 275.58642578 C-141.66594159 278.28543378 -145.4089022 280.99070134 -149.15234375 283.6953125 C-150.65232229 284.77867554 -152.15232229 285.86200888 -153.65234375 286.9453125 C-154.39484375 287.4815625 -155.13734375 288.0178125 -155.90234375 288.5703125 C-158.15234375 290.1953125 -160.40234375 291.8203125 -162.65234375 293.4453125 C-163.39524658 293.98188477 -164.13814941 294.51845703 -164.90356445 295.07128906 C-166.39937522 296.15153368 -167.89530568 297.23161257 -169.39135742 298.31152344 C-173.98387481 301.62697984 -178.57272332 304.94738771 -183.15527344 308.27661133 C-184.68594699 309.38254724 -186.2217273 310.48145175 -187.76269531 311.57299805 C-191.09681956 313.93824703 -194.33728545 316.29936652 -197.3984375 319.01171875 C-207.15894157 327.12220262 -216.97486759 326.15449165 -229.15234375 325.1953125 C-225.46037726 321.1400408 -221.10186143 318.1613005 -216.65234375 315.0078125 C-215.02030528 313.83927882 -213.38879519 312.67000683 -211.7578125 311.5 C-210.96552246 310.93249023 -210.17323242 310.36498047 -209.35693359 309.78027344 C-202.10060953 304.56343448 -195.03932234 299.12488942 -188.08984375 293.5078125 C-180.11763688 287.07336034 -171.88013343 281.02321468 -163.60498047 274.98632812 C-159.55016239 272.02533416 -155.50727271 269.04818722 -151.46484375 266.0703125 C-150.67440674 265.48854248 -149.88396973 264.90677246 -149.06958008 264.30737305 C-143.40107669 260.13024195 -137.7693039 255.90627492 -132.14648438 251.66796875 C-127.13326556 247.90179438 -122.05705421 244.2287003 -116.96484375 240.5703125 C-114.7240563 238.9510364 -112.48460505 237.32994056 -110.24609375 235.70751953 C-108.90316409 234.73759109 -107.55707175 233.77201793 -106.20703125 232.81201172 C-98.08409921 227.02442264 -90.41875523 220.99454694 -87.15234375 211.1953125 C-86.42976234 205.61588642 -86.38894564 200.5881377 -89.27734375 195.6328125 C-92.20315004 191.91125724 -95.57306169 189.24785668 -99.43359375 186.5703125 C-100.35128036 185.92466591 -100.35128036 185.92466591 -101.2875061 185.26597595 C-107.65681071 180.80247179 -114.09458859 176.4382898 -120.54510498 172.09332275 C-123.2629903 170.26217921 -125.97754191 168.42612018 -128.69229126 166.59033203 C-130.66700827 165.25500321 -132.64207415 163.9201917 -134.6171875 162.58544922 C-154.30316151 149.27829145 -154.30316151 149.27829145 -161.1484375 143.796875 C-162.53921833 142.68533476 -163.94978579 141.59828208 -165.375 140.53125 C-176.01195395 132.53985064 -184.9582401 124.31795851 -187.08984375 110.5703125 C-187.72460044 99.38272576 -182.5582851 89.83888899 -175.30981445 81.60644531 C-172.98728529 79.07160516 -170.58607273 76.62302166 -168.15234375 74.1953125 C-167.38148438 73.41285156 -166.610625 72.63039063 -165.81640625 71.82421875 C-128.8016479 36.38858831 -69.89271913 21.32232367 -22.44140625 5.28515625 C-21.60715118 5.00230774 -20.77289612 4.71945923 -19.9133606 4.42803955 C-6.55079033 -0.06788384 -6.55079033 -0.06788384 0 0 Z " fill="#FEFBFB" transform="translate(416.15234375,19.8046875)"/>
<path d="M0 0 C3.83433624 -0.42104717 5.50644053 -0.35954186 8.67578125 1.94921875 C26.25936349 20.21009453 38.62353869 43.94174488 39.046875 69.87109375 C39.03140625 70.57363281 39.0159375 71.27617187 39 72 C39.52207031 71.79503906 40.04414062 71.59007812 40.58203125 71.37890625 C50.98754915 67.57023157 60.53355862 66.92816251 71 71 C80.64645001 76.22286365 88.18772443 83.87809985 92.10546875 94.203125 C95.06124398 106.74903558 94.79137395 119.81494952 88.109375 131.02734375 C81.61571094 140.17859996 74.11288906 146.61635183 65 153 C65.33 154.2375 65.66 155.475 66 156.75 C67.9606038 165.86609213 68.10986086 173.67838831 63.4296875 181.94140625 C61.60801133 184.56442085 59.68391915 186.27953901 57 188 C56.319375 188.556875 55.63875 189.11375 54.9375 189.6875 C50.53136934 192.67229819 45.13488428 192.4890366 40 192 C36.91434131 191.19828807 33.96162614 190.17624868 31 189 C30.70609375 189.51046875 30.4121875 190.0209375 30.109375 190.546875 C24.3390282 199.89881636 15.64901435 209.59655196 6 215 C2.53239986 215.38321188 0.62437955 215.36052884 -2.421875 213.6015625 C-19.77991581 198.86470235 -19.77991581 198.86470235 -24 191 C-24 190.01 -24 189.02 -24 188 C-24.7425 188.474375 -25.485 188.94875 -26.25 189.4375 C-31.52018374 192.43192258 -37.0402272 192.76138067 -43 192 C-50.14198402 189.4517401 -55.44585461 184.73097384 -59.03125 178.08984375 C-62.62847351 169.71297603 -61.27280268 162.24044962 -58 154 C-59.08667969 153.11248047 -59.08667969 153.11248047 -60.1953125 152.20703125 C-62.19319916 150.57409189 -64.18786186 148.937202 -66.1796875 147.296875 C-67.70667074 146.05329308 -69.24243156 144.81895669 -70.8203125 143.640625 C-78.42505147 137.90590381 -85.08578251 127.35399959 -87 118 C-87.62219452 107.7082907 -87.79792973 98.39000769 -83 89 C-82.66097656 88.28714844 -82.32195312 87.57429688 -81.97265625 86.83984375 C-77.62976517 78.81863211 -69.49746057 72.67389062 -60.9765625 69.6171875 C-52.01985656 67.76002275 -42.66606308 68.16052979 -34 71 C-33.88519287 70.37246826 -33.77038574 69.74493652 -33.65209961 69.09838867 C-30.00835396 49.55530931 -25.52462738 31.46017433 -14 15 C-13.46890625 14.22527344 -12.9378125 13.45054688 -12.390625 12.65234375 C-11.93171875 12.10707031 -11.4728125 11.56179687 -11 11 C-10.34 11 -9.68 11 -9 11 C-8.79375 10.443125 -8.5875 9.88625 -8.375 9.3125 C-7.03153247 7.05303189 -5.94842298 6.0001344 -3.9375 4.375 C-0.99175287 2.32880603 -0.99175287 2.32880603 0 0 Z M-3 12 C-19.41837264 30.95965118 -27.54970261 56.9751727 -26 82 C-27.44632813 81.47599609 -27.44632813 81.47599609 -28.921875 80.94140625 C-30.19788003 80.48166914 -31.47392374 80.02203937 -32.75 79.5625 C-33.38421875 79.33240234 -34.0184375 79.10230469 -34.671875 78.86523438 C-43.33097095 75.75337177 -51.7616591 74.5401345 -60.8125 77.0625 C-69.65710861 82.43863465 -76.09310558 89.63874729 -79.4921875 99.54296875 C-81.69052867 110.17955794 -80.41762521 119.95532547 -74.6796875 129.10546875 C-70.3446132 135.22905731 -64.97540407 141.93082221 -58 145 C-57.36384766 143.98679688 -57.36384766 143.98679688 -56.71484375 142.953125 C-53.03353733 137.35430293 -50.33139744 133.44369726 -44 131 C-38.3974349 130.05699399 -33.97868968 131.22342306 -29 134 C-26.25682041 136.81536852 -24.58090899 139.07886431 -24 143 C-25.32 143 -26.64 143 -28 143 C-28 144.32 -28 145.64 -28 147 C-26.68 147 -25.36 147 -24 147 C-24.81956172 150.87429175 -25.47599747 153.43108296 -28.1875 156.375 C-31.74071567 158.42796906 -33.87163554 159.1423574 -38 159 C-40.01184087 157.57441884 -41.64083268 156.04989728 -43.32421875 154.25 C-44.92898545 152.77062728 -44.92898545 152.77062728 -47.06640625 153.13671875 C-49.74035914 154.33054418 -50.91273783 156.15551329 -52.2265625 158.71484375 C-54.13181196 164.34398989 -54.25682429 170.27359747 -51.75390625 175.703125 C-49.44915588 179.26657943 -47.55561618 181.62958921 -44 184 C-34.35289708 185.92942058 -27.06900037 181.61758853 -19 177 C-18.979375 178.093125 -18.95875 179.18625 -18.9375 180.3125 C-17.68305703 189.92424544 -10.05055089 197.40123476 -3.625 204.1015625 C-0.2818484 206.5193775 1.88319763 207.02294762 6 207 C15.14025673 201.53732087 22.76732553 191.11636953 26 181 C26 179.68 26 178.36 26 177 C27.34191406 177.75796875 27.34191406 177.75796875 28.7109375 178.53125 C38.75135785 184.0130377 38.75135785 184.0130377 50 184 C54.73265467 182.21210824 57.91955418 178.56328239 60 174 C61.37816073 166.2075959 59.34120968 158.51181452 55 152 C52.47562314 153.0818758 51.0225394 153.97435171 49.1875 156.0625 C46.1294615 158.77104838 44.05111538 159 40 159 C34.27040127 156.41606332 32.29032689 152.55067458 30 147 C31.65 147 33.3 147 35 147 C34.505 144.525 34.505 144.525 34 142 C33.01 142 32.02 142 31 142 C35 134.42857143 35 134.42857143 39 132 C44.24157848 130.6407708 49.37780696 130.28241192 54.375 132.5625 C59.32830389 135.49591153 62.74937505 139.68034102 65 145 C75.41002628 139.32180385 83.17099525 130.26196216 87 118.9375 C89.7644511 107.53413923 87.50492844 98.66472332 81.61328125 88.640625 C77.23473761 82.2587477 71.28727378 78.45771089 64 76 C53.03752944 74.65447713 42.79873891 77.10063054 33 82 C33.02320313 81.29617187 33.04640625 80.59234375 33.0703125 79.8671875 C33.51742409 55.40379605 26.19852809 29.06568077 9 11 C4.03301527 6.71550172 1.69006249 7.75559956 -3 12 Z " fill="#0E0703" transform="translate(586,71)"/>
<path d="M0 0 C7.92 -0.061875 15.84 -0.12375 24 -0.1875 C26.4853125 -0.21481201 28.970625 -0.24212402 31.53125 -0.27026367 C33.5208284 -0.27903286 35.51041222 -0.28667577 37.5 -0.29296875 C39.02560547 -0.3159906 39.02560547 -0.3159906 40.58203125 -0.33947754 C47.37333212 -0.34195491 53.78113382 0.02969491 59.0234375 4.8671875 C59.46945312 5.52976562 59.91546875 6.19234375 60.375 6.875 C60.83648437 7.53242188 61.29796875 8.18984375 61.7734375 8.8671875 C64.65673944 13.88082718 65.33934177 18.13086063 65.3125 23.875 C65.32861328 24.55691406 65.34472656 25.23882812 65.36132812 25.94140625 C65.36754965 32.47400864 63.42232399 37.89496786 59 42.8125 C58.2575 43.65748047 58.2575 43.65748047 57.5 44.51953125 C54.53312384 47.44777621 53.24205992 48 49 48 C49 48.66 49 49.32 49 50 C49.75925781 50.24363281 50.51851563 50.48726563 51.30078125 50.73828125 C61.67762376 55.58881689 67.27008555 75.99750929 71 86 C71 86.66 71 87.32 71 88 C62.42 88 53.84 88 45 88 C40.3125 77.125 40.3125 77.125 38.8684082 73.76220703 C38.0308626 71.8278796 37.18122513 69.8987646 36.32275391 67.97363281 C35.4542724 66.02123252 34.61179536 64.05701449 33.79833984 62.08105469 C33.40469238 61.18547852 33.01104492 60.28990234 32.60546875 59.3671875 C32.2705542 58.5716748 31.93563965 57.77616211 31.59057617 56.95654297 C29.63869432 54.17396109 29.63869432 54.17396109 23 53 C23 64.55 23 76.1 23 88 C15.41 88 7.82 88 0 88 C0 58.96 0 29.92 0 0 Z " fill="#030301" transform="translate(450,374)"/>
<path d="M0 0 C7.92 -0.061875 15.84 -0.12375 24 -0.1875 C26.4853125 -0.21481201 28.970625 -0.24212402 31.53125 -0.27026367 C33.5208284 -0.27903286 35.51041222 -0.28667577 37.5 -0.29296875 C39.02560547 -0.3159906 39.02560547 -0.3159906 40.58203125 -0.33947754 C48.09722668 -0.34221898 54.14965002 0.27633224 59.8125 5.6875 C65.39556988 14.14186296 66.11191852 21.97155393 65 32 C62.96375438 38.90513515 59.06440346 44.10556081 53 48 C52.01 48.33 51.02 48.66 50 49 C51.36318359 50.01126953 51.36318359 50.01126953 52.75390625 51.04296875 C56.28707074 53.99780945 58.03024164 57.17706986 59.9375 61.3125 C60.26814453 62.00166504 60.59878906 62.69083008 60.93945312 63.40087891 C61.98050526 65.59155005 62.99438789 67.79285231 64 70 C64.34305176 70.75039551 64.68610352 71.50079102 65.03955078 72.27392578 C71 85.39938481 71 85.39938481 71 88 C62.42 88 53.84 88 45 88 C44.09636719 85.88078125 43.19273437 83.7615625 42.26171875 81.578125 C41.37930761 79.51897147 40.49504236 77.46062366 39.6105957 75.40234375 C38.99862668 73.97544111 38.38857761 72.54771342 37.78051758 71.11914062 C36.90433554 69.06158151 36.02120907 67.00712392 35.13671875 64.953125 C34.86784348 64.31755676 34.5989682 63.68198853 34.32194519 63.02716064 C32.27309415 58.09687418 32.27309415 58.09687418 29 54 C25.535 53.505 25.535 53.505 22 53 C22 64.55 22 76.1 22 88 C14.74 88 7.48 88 0 88 C0 58.96 0 29.92 0 0 Z " fill="#020200" transform="translate(602,374)"/>
<path d="M0 0 C6.93 0 13.86 0 21 0 C27.20818879 7.95206205 27.20818879 7.95206205 28.73046875 11.78125 C31.20838911 17.63017687 34.2803861 23.08442489 37.375 28.625 C38.78971268 31.23233116 40.19704228 33.84352248 41.60302734 36.45556641 C43.36199978 39.65934318 45.18667024 42.82667292 47 46 C47.33 30.82 47.66 15.64 48 0 C54.93 0 61.86 0 69 0 C69 29.04 69 58.08 69 88 C61.74 88 54.48 88 47 88 C46.20078125 86.51113281 45.4015625 85.02226562 44.578125 83.48828125 C37.24808319 69.87293923 29.72198937 56.39718637 22 43 C21.67 57.85 21.34 72.7 21 88 C14.07 88 7.14 88 0 88 C0 58.96 0 29.92 0 0 Z " fill="#010100" transform="translate(208,374)"/>
<path d="M0 0 C7.59 0 15.18 0 23 0 C23.0093457 1.78615723 23.01869141 3.57231445 23.02832031 5.41259766 C23.06390638 11.32799949 23.11774175 17.24308559 23.18390274 23.15821266 C23.22333601 26.74302571 23.25554438 30.32759467 23.27099609 33.91259766 C23.28619074 37.3753274 23.32068408 40.83738592 23.36830902 44.29981613 C23.39026753 46.25719741 23.39247133 48.21476819 23.39434814 50.17227173 C23.46544751 58.91320657 23.46544751 58.91320657 28 66 C31.75456567 68.50304378 33.54745934 68.45280074 38 68 C41.35177687 66.29249103 43.43303443 65.12132404 45.14804077 61.72944641 C46.09429004 58.69792027 46.27807229 56.19004014 46.31884766 53.01635742 C46.33871735 51.83551071 46.35858704 50.654664 46.37905884 49.43803406 C46.39061005 48.17328751 46.40216125 46.90854095 46.4140625 45.60546875 C46.43342865 44.30297684 46.4527948 43.00048492 46.4727478 41.65852356 C46.52394518 38.2079265 46.56363676 34.75729056 46.60089111 31.30651855 C46.64100888 27.78042074 46.69206562 24.25448292 46.7421875 20.72851562 C46.83879982 13.81912102 46.92223937 6.90963223 47 0 C54.26 0 61.52 0 69 0 C69.09087676 8.00694154 69.16404424 16.01347269 69.20724869 24.02079391 C69.22799934 27.74013394 69.25608273 31.45909859 69.30175781 35.17822266 C69.34566943 38.77685408 69.36923088 42.3751277 69.37950897 45.97400665 C69.39034408 47.99448972 69.42149526 50.01483164 69.45318604 52.03509521 C69.45614264 64.36945907 67.11305997 73.99066279 58.37109375 82.93359375 C49.5077352 90.65800343 39.28750461 90.47031269 28 90 C20.0711685 89.27159831 13.40459678 86.0128254 8.20703125 79.88671875 C0.36568565 68.67649874 -0.15346219 57.95574518 -0.09765625 44.62890625 C-0.0962413 43.35144028 -0.09482635 42.0739743 -0.09336853 40.75779724 C-0.08873516 37.38275254 -0.07977023 34.00777703 -0.06866455 30.63275146 C-0.05838426 27.18030389 -0.05385681 23.72784913 -0.04882812 20.27539062 C-0.03782466 13.51690569 -0.02057322 6.7584623 0 0 Z " fill="#030301" transform="translate(365,374)"/>
<path d="M0 0 C19.8 0 39.6 0 60 0 C60 6.27 60 12.54 60 19 C47.79 19 35.58 19 23 19 C23 23.62 23 28.24 23 33 C34.55 33 46.1 33 58 33 C58 38.94 58 44.88 58 51 C46.45 51 34.9 51 23 51 C23 56.61 23 62.22 23 68 C35.54 68 48.08 68 61 68 C61 74.6 61 81.2 61 88 C40.87 88 20.74 88 0 88 C0 58.96 0 29.92 0 0 Z " fill="#020200" transform="translate(528,374)"/>
<path d="M0 0 C19.8 0 39.6 0 60 0 C60 6.27 60 12.54 60 19 C47.79 19 35.58 19 23 19 C23 23.62 23 28.24 23 33 C34.55 33 46.1 33 58 33 C58 38.94 58 44.88 58 51 C46.45 51 34.9 51 23 51 C23 56.61 23 62.22 23 68 C35.54 68 48.08 68 61 68 C61 74.6 61 81.2 61 88 C40.87 88 20.74 88 0 88 C0 58.96 0 29.92 0 0 Z " fill="#020200" transform="translate(134,374)"/>
<path d="M0 0 C7.59 0 15.18 0 23 0 C26.54391518 10.91019601 29.30372525 21.95249925 32.00146484 33.09692383 C32.75789611 36.22010171 33.52109958 39.3415704 34.28515625 42.46289062 C34.76862298 44.44782079 35.25171018 46.43284344 35.734375 48.41796875 C35.96243835 49.35118454 36.19050171 50.28440033 36.42547607 51.24589539 C36.63279358 52.10471817 36.84011108 52.96354095 37.05371094 53.84838867 C37.23705994 54.60415695 37.42040894 55.35992523 37.60931396 56.13859558 C38 58 38 58 38 60 C38.66 60 39.32 60 40 60 C40.11500854 59.33097153 40.23001709 58.66194305 40.34851074 57.97264099 C41.51986565 51.32601353 42.92656942 44.77703769 44.53125 38.22265625 C44.76783325 37.24888535 45.0044165 36.27511444 45.24816895 35.27183533 C45.74404404 33.23542894 46.24157853 31.19942594 46.74072266 29.16381836 C47.50367751 26.04747898 48.25794001 22.92911686 49.01171875 19.81054688 C49.49687295 17.82278897 49.98253197 15.8351542 50.46875 13.84765625 C50.80477234 12.45390526 50.80477234 12.45390526 51.14758301 11.03199768 C51.36120483 10.16687057 51.57482666 9.30174347 51.79492188 8.41040039 C51.97986206 7.65304092 52.16480225 6.89568146 52.35534668 6.1153717 C53 4 53 4 55 0 C62.26 0 69.52 0 77 0 C75.87333777 7.88663564 75.87333777 7.88663564 74.80078125 11.64453125 C74.56415771 12.47694336 74.32753418 13.30935547 74.08374023 14.16699219 C73.82923096 15.04000977 73.57472168 15.91302734 73.3125 16.8125 C73.04703369 17.73321289 72.78156738 18.65392578 72.50805664 19.60253906 C70.55792432 26.28575115 68.42018015 32.89069138 66.17871094 39.48095703 C64.30053301 45.02366334 62.60100565 50.6011479 60.97338867 56.22192383 C59.11371635 62.64184905 57.19079344 69.04164717 55.25 75.4375 C54.94392822 76.45158936 54.63785645 77.46567871 54.32250977 78.51049805 C53.89216431 79.92649292 53.89216431 79.92649292 53.453125 81.37109375 C53.19692383 82.21599365 52.94072266 83.06089355 52.67675781 83.93139648 C52 86 52 86 51 88 C42.75 88 34.5 88 26 88 C23.10532263 79.57138058 20.41752983 71.14012681 18 62.5625 C14.60875226 50.54114121 10.90504007 38.6554953 6.9375 26.8125 C3.34040391 16.05798716 3.34040391 16.05798716 1.625 10.6875 C1.30789062 9.70136719 0.99078125 8.71523438 0.6640625 7.69921875 C0 5 0 5 0 0 Z " fill="#020201" transform="translate(49,374)"/>
<path d="M0 0 C22.44 0 44.88 0 68 0 C68 6.93 68 13.86 68 21 C60.41 21 52.82 21 45 21 C45 43.11 45 65.22 45 88 C37.74 88 30.48 88 23 88 C23 65.89 23 43.78 23 21 C15.41 21 7.82 21 0 21 C0 14.07 0 7.14 0 0 Z " fill="#000000" transform="translate(287,374)"/>
<path d="M0 0 C3.58875 -0.0928125 3.58875 -0.0928125 7.25 -0.1875 C8.37003418 -0.22846802 8.37003418 -0.22846802 9.51269531 -0.27026367 C12.52551245 -0.30794414 14.73209092 -0.13160446 17.44921875 1.203125 C19.4635114 3.53706611 19.56710095 4.87786689 19.5625 7.9375 C19.58441406 8.79214844 19.60632813 9.64679688 19.62890625 10.52734375 C19 13 19 13 16.921875 15.30078125 C11.60076689 18.39527594 6.0166961 17.22492322 0 17 C0 11.39 0 5.78 0 0 Z " fill="#FCFA58" transform="translate(625,392)"/>
<path d="M0 0 C2.3925 -0.0825 4.785 -0.165 7.25 -0.25 C7.99668945 -0.28641602 8.74337891 -0.32283203 9.51269531 -0.36035156 C12.85074037 -0.41601557 14.7071599 -0.2062451 17.45703125 1.73046875 C19.18624155 4.2739401 19.51473787 5.5193281 19.4375 8.5625 C19.43621094 9.32691406 19.43492187 10.09132813 19.43359375 10.87890625 C18.89756987 13.50107711 18.09719643 14.37652324 16 16 C10.83608171 17.7213061 5.40708764 17.05353552 0 17 C0 11.39 0 5.78 0 0 Z " fill="#FDFB58" transform="translate(473,392)"/>
<path d="M0 0 C4.35820909 0.10319985 6.91073093 1.52440445 10.25 4.375 C10.58 5.365 10.91 6.355 11.25 7.375 C10.5075 7.024375 9.765 6.67375 9 6.3125 C6.1177274 5.32990707 5.03823655 5.3423198 2.25 6.375 C2.311875 7.303125 2.37375 8.23125 2.4375 9.1875 C2.25 12.375 2.25 12.375 1.0625 14.25 C-1.31036279 15.72281139 -3.00913944 15.59723194 -5.75 15.375 C-5.66621094 14.77171875 -5.58242188 14.1684375 -5.49609375 13.546875 C-5.39425781 12.74765625 -5.29242187 11.9484375 -5.1875 11.125 C-5.08308594 10.33609375 -4.97867188 9.5471875 -4.87109375 8.734375 C-4.62628837 6.37969445 -4.62628837 6.37969445 -5.34765625 4.203125 C-5.48042969 3.59984375 -5.61320313 2.9965625 -5.75 2.375 C-3.75 0.375 -3.75 0.375 0 0 Z " fill="#F9F857" transform="translate(630.75,207.625)"/>
<path d="M0 0 C2.38376485 3.645758 1.69282842 5.84302947 1 10 C1.82342532 12.31980946 1.82342532 12.31980946 3 14 C2 15 2 15 -1.0625 15.0625 C-2.031875 15.041875 -3.00125 15.02125 -4 15 C-4.66 11.7 -5.32 8.4 -6 5 C-7.98 5 -9.96 5 -12 5 C-12.33 5.99 -12.66 6.98 -13 8 C-13.66 8 -14.32 8 -15 8 C-14.09126425 4.94334338 -13.32469175 3.27694297 -10.875 1.1875 C-7.02507023 -0.40268838 -4.14686216 -0.2108574 0 0 Z " fill="#F5F355" transform="translate(551,208)"/>
<path d="M0 0 C1.03688965 0.01047363 2.0737793 0.02094727 3.14208984 0.03173828 C4.26357422 0.03818359 5.38505859 0.04462891 6.54052734 0.05126953 C7.71615234 0.06802734 8.89177734 0.08478516 10.10302734 0.10205078 C11.87806641 0.11558594 11.87806641 0.11558594 13.68896484 0.12939453 C16.61885257 0.15302266 19.54834075 0.18596564 22.47802734 0.22705078 C18.79067977 2.6852825 15.78102763 3.23947694 11.47802734 4.22705078 C11.47802734 3.56705078 11.47802734 2.90705078 11.47802734 2.22705078 C6.19802734 2.22705078 0.91802734 2.22705078 -4.52197266 2.22705078 C-2.52197266 0.22705078 -2.52197266 0.22705078 0 0 Z " fill="#FEECD8" transform="translate(412.52197265625,19.77294921875)"/>
<path d="M0 0 C1.98 0 3.96 0 6 0 C5.4112207 0.26280762 4.82244141 0.52561523 4.21582031 0.79638672 C1.89660759 2.05616181 0.39050597 3.38004021 -1.453125 5.2578125 C-2.38125 6.19560547 -2.38125 6.19560547 -3.328125 7.15234375 C-4.27945313 8.12880859 -4.27945313 8.12880859 -5.25 9.125 C-6.22453125 10.11306641 -6.22453125 10.11306641 -7.21875 11.12109375 C-8.81711727 12.74296643 -10.41061897 14.3693281 -12 16 C-12.66 15.67 -13.32 15.34 -14 15 C-12.625 13 -12.625 13 -11 11 C-10.34 11 -9.68 11 -9 11 C-8.79375 10.443125 -8.5875 9.88625 -8.375 9.3125 C-7.03153247 7.05303189 -5.94842298 6.0001344 -3.9375 4.375 C-0.99175287 2.32880603 -0.99175287 2.32880603 0 0 Z " fill="#343412" transform="translate(586,71)"/>
<path d="M0 0 C0.99 0.33 1.98 0.66 3 1 C2.45730469 1.47050781 1.91460938 1.94101563 1.35546875 2.42578125 C0.28232422 3.35970703 0.28232422 3.35970703 -0.8125 4.3125 C-1.52019531 4.92738281 -2.22789062 5.54226562 -2.95703125 6.17578125 C-4.70136739 7.73334335 -6.36778041 9.32658875 -8 11 C-8.66 10.67 -9.32 10.34 -10 10 C-8.90033225 8.70450101 -7.79508199 7.41373929 -6.6875 6.125 C-6.07261719 5.40570313 -5.45773437 4.68640625 -4.82421875 3.9453125 C-3 2 -3 2 0 0 Z " fill="#DD0000" transform="translate(588,79)"/>
</svg>
